TouchandTell_Full.ufo
<glyph name="A" format="2">
  <advance width="2048"/>
  <unicode hex="0041"/>
  <outline>
    <contour>
      <point x="1772" y="308" type="curve" smooth="yes"/>
      <point x="1772" y="479"/>
      <point x="1657" y="619"/>
      <point x="1516" y="619" type="curve" smooth="yes"/>
      <point x="1471" y="619"/>
      <point x="1429" y="605"/>
      <point x="1392" y="581" type="curve"/>
      <point x="1455" y="706" type="line"/>
      <point x="1421" y="725" type="line"/>
      <point x="1345" y="578" type="line"/>
      <point x="1306" y="600"/>
      <point x="1262" y="612"/>
      <point x="1215" y="612" type="curve" smooth="yes"/>
      <point x="1058" y="612"/>
      <point x="930" y="474"/>
      <point x="930" y="304" type="curve" smooth="yes"/>
      <point x="930" y="134"/>
      <point x="1126" y="-4"/>
      <point x="1283" y="-4" type="curve" smooth="yes"/>
      <point x="1313" y="-4"/>
      <point x="1342" y="1"/>
      <point x="1370" y="10" type="curve"/>
      <point x="1387" y="-4"/>
      <point x="1411" y="-12"/>
      <point x="1444" y="-12" type="curve" smooth="yes"/>
      <point x="1585" y="-12"/>
      <point x="1772" y="136"/>
    </contour>
    <contour>
      <point x="610" y="865" type="line"/>
      <point x="762" y="865" type="line"/>
      <point x="478" y="1634" type="line"/>
      <point x="326" y="1634" type="line"/>
      <point x="110" y="865" type="line"/>
      <point x="262" y="865" type="line"/>
      <point x="321" y="1092" type="line"/>
      <point x="521" y="1092" type="line"/>
      <point x="521" y="1093" type="line"/>
    </contour>
    <contour>
      <point x="1057" y="874" type="line"/>
      <point x="1209" y="874" type="line"/>
      <point x="1209" y="1387" type="line"/>
      <point x="1057" y="1387" type="line" smooth="yes"/>
      <point x="1052" y="1387"/>
      <point x="1044" y="1388"/>
      <point x="1033" y="1388" type="curve" smooth="yes"/>
      <point x="925" y="1388"/>
      <point x="775" y="1244"/>
      <point x="775" y="1139" type="qcurve" smooth="yes"/>
      <point x="775" y="1067"/>
      <point x="800" y="1006"/>
      <point x="851" y="956" type="curve" smooth="yes"/>
      <point x="901" y="906"/>
      <point x="962" y="881"/>
      <point x="1033" y="881" type="curve" smooth="yes"/>
      <point x="1044" y="881"/>
      <point x="1052" y="881"/>
      <point x="1057" y="882" type="curve"/>
    </contour>
    <contour>
      <point x="1057" y="1242" type="qcurve"/>
      <point x="1057" y="1035" type="line"/>
      <point x="1045" y="1032"/>
      <point x="1033" y="1032" type="qcurve" smooth="yes"/>
      <point x="1003" y="1032"/>
      <point x="978" y="1042"/>
      <point x="957" y="1063" type="curve" smooth="yes"/>
      <point x="937" y="1083"/>
      <point x="926" y="1109"/>
      <point x="926" y="1139" type="curve" smooth="yes"/>
      <point x="926" y="1168"/>
      <point x="937" y="1193"/>
      <point x="957" y="1214" type="curve" smooth="yes"/>
      <point x="978" y="1234"/>
      <point x="1003" y="1245"/>
      <point x="1033" y="1245" type="curve" smooth="yes"/>
      <point x="1045" y="1245"/>
    </contour>
    <contour>
      <point x="467" y="1232" type="line"/>
      <point x="357" y="1232" type="line"/>
      <point x="417" y="1400" type="line"/>
    </contour>
  </outline>
</glyph>
<glyph name="B" format="2">
  <advance width="2048"/>
  <unicode hex="0042"/>
  <outline>
    <contour>
      <point x="266" y="1395" type="curve"/>
      <point x="266" y="1602" type="line"/>
      <point x="274" y="1604"/>
      <point x="282" y="1605"/>
      <point x="290" y="1605" type="curve"/>
      <point x="320" y="1605"/>
      <point x="346" y="1594"/>
      <point x="366" y="1574" type="curve" smooth="yes"/>
      <point x="387" y="1553"/>
      <point x="397" y="1528"/>
      <point x="397" y="1498" type="curve"/>
      <point x="397" y="1468"/>
      <point x="387" y="1443"/>
      <point x="366" y="1423" type="curve" smooth="yes"/>
      <point x="346" y="1402"/>
      <point x="320" y="1392"/>
      <point x="290" y="1392" type="curve"/>
      <point x="282" y="1392"/>
      <point x="274" y="1393"/>
    </contour>
    <contour>
      <point x="266" y="1077" type="curve"/>
      <point x="266" y="1284" type="line"/>
      <point x="274" y="1286"/>
      <point x="282" y="1287"/>
      <point x="290" y="1287" type="curve"/>
      <point x="320" y="1287"/>
      <point x="346" y="1276"/>
      <point x="366" y="1256" type="curve" smooth="yes"/>
      <point x="387" y="1235"/>
      <point x="397" y="1210"/>
      <point x="397" y="1180" type="curve"/>
      <point x="397" y="1150"/>
      <point x="387" y="1125"/>
      <point x="366" y="1105" type="curve" smooth="yes"/>
      <point x="346" y="1084"/>
      <point x="320" y="1074"/>
      <point x="290" y="1074" type="curve"/>
      <point x="282" y="1074"/>
      <point x="274" y="1075"/>
    </contour>
    <contour>
      <point x="266" y="1721" type="curve"/>
      <point x="114" y="1721" type="line"/>
      <point x="114" y="945" type="line"/>
      <point x="266" y="945" type="line"/>
      <point x="272" y="944"/>
      <point x="280" y="944"/>
      <point x="290" y="944" type="curve"/>
      <point x="362" y="944"/>
      <point x="422" y="969"/>
      <point x="473" y="1019" type="curve" smooth="yes"/>
      <point x="523" y="1069"/>
      <point x="548" y="1129"/>
      <point x="548" y="1201" type="curve"/>
      <point x="548" y="1217"/>
      <point x="544" y="1233"/>
      <point x="535" y="1248" type="curve" smooth="yes"/>
      <point x="527" y="1263"/>
      <point x="512" y="1281"/>
      <point x="492" y="1303" type="curve" smooth="yes"/>
      <point x="471" y="1324"/>
      <point x="461" y="1335"/>
      <point x="459" y="1337" type="curve"/>
      <point x="463" y="1341"/>
      <point x="473" y="1352"/>
      <point x="490" y="1370" type="curve" smooth="yes"/>
      <point x="506" y="1387"/>
      <point x="519" y="1403"/>
      <point x="528" y="1418" type="curve" smooth="yes"/>
      <point x="538" y="1432"/>
      <point x="542" y="1447"/>
      <point x="542" y="1463" type="curve"/>
      <point x="542" y="1534"/>
      <point x="517" y="1595"/>
      <point x="467" y="1645" type="curve" smooth="yes"/>
      <point x="416" y="1695"/>
      <point x="356" y="1721"/>
      <point x="284" y="1721" type="curve"/>
      <point x="272" y="1721"/>
      <point x="272" y="1721"/>
    </contour>
    <contour>
      <point x="769" y="1090" type="curve"/>
      <point x="769" y="1297" type="line"/>
      <point x="777" y="1299"/>
      <point x="785" y="1300"/>
      <point x="793" y="1300" type="curve"/>
      <point x="823" y="1300"/>
      <point x="848" y="1290"/>
      <point x="869" y="1269" type="curve" smooth="yes"/>
      <point x="890" y="1249"/>
      <point x="900" y="1223"/>
      <point x="900" y="1193" type="curve"/>
      <point x="900" y="1164"/>
      <point x="890" y="1139"/>
      <point x="869" y="1118" type="curve" smooth="yes"/>
      <point x="848" y="1098"/>
      <point x="823" y="1087"/>
      <point x="793" y="1087" type="curve"/>
      <point x="785" y="1087"/>
      <point x="777" y="1088"/>
    </contour>
    <contour>
      <point x="769" y="1713" type="line"/>
      <point x="617" y="1713" type="line"/>
      <point x="617" y="937" type="line"/>
      <point x="769" y="937" type="line"/>
      <point x="774" y="937"/>
      <point x="782" y="936"/>
      <point x="793" y="936" type="curve"/>
      <point x="864" y="936"/>
      <point x="925" y="961"/>
      <point x="976" y="1011" type="curve" smooth="yes"/>
      <point x="1026" y="1061"/>
      <point x="1051" y="1122"/>
      <point x="1051" y="1193" type="curve" smooth="yes"/>
      <point x="1051" y="1265"/>
      <point x="1026" y="1326"/>
      <point x="976" y="1376" type="curve" smooth="yes"/>
      <point x="925" y="1426"/>
      <point x="864" y="1451"/>
      <point x="793" y="1451" type="curve"/>
      <point x="782" y="1451"/>
      <point x="774" y="1451"/>
      <point x="769" y="1450" type="curve"/>
    </contour>
    <contour>
      <point x="1916" y="233.5" type="curve" smooth="yes"/>
      <point x="1916" y="431.4940828033"/>
      <point x="1753.7032218025" y="592"/>
      <point x="1553.5" y="592" type="curve" smooth="yes"/>
      <point x="1353.2967781975" y="592"/>
      <point x="1191" y="431.4940828033"/>
      <point x="1191" y="233.5" type="curve" smooth="yes"/>
      <point x="1191" y="35.50591719670001"/>
      <point x="1353.2967781975" y="-125"/>
      <point x="1553.5" y="-125" type="curve" smooth="yes"/>
      <point x="1753.7032218025" y="-125"/>
      <point x="1916" y="35.50591719670001"/>
    </contour>
    <contour>
      <point x="1554" y="593" type="curve"/>
      <point x="1678" y="515"/>
      <point x="1723" y="353"/>
      <point x="1723" y="233" type="curve" smooth="yes"/>
      <point x="1723" y="66"/>
      <point x="1720" y="-36"/>
      <point x="1549" y="-127" type="curve"/>
      <point x="1374" y="-48"/>
      <point x="1308" y="80"/>
      <point x="1308" y="259" type="curve" smooth="yes"/>
      <point x="1308" y="411"/>
      <point x="1420" y="541"/>
    </contour>
    <contour>
      <point x="1554" y="590" type="curve"/>
      <point x="1672" y="516"/>
      <point x="1713" y="347"/>
      <point x="1713" y="233" type="curve" smooth="yes"/>
      <point x="1713" y="74"/>
      <point x="1713" y="-39"/>
      <point x="1550" y="-125" type="curve"/>
      <point x="1384" y="-50"/>
      <point x="1318" y="87"/>
      <point x="1318" y="258" type="curve" smooth="yes"/>
      <point x="1318" y="402"/>
      <point x="1427" y="541"/>
    </contour>
  </outline>
</glyph>
<glyph name="C" format="2">
  <advance width="2034.016331462744"/>
  <unicode hex="0043"/>
  <outline>
    <contour>
      <point x="1362" y="159" type="curve" smooth="yes"/>
      <point x="1381" y="171"/>
      <point x="1407" y="173"/>
      <point x="1431" y="161" type="curve" smooth="yes"/>
      <point x="1441" y="155"/>
      <point x="1442" y="154"/>
      <point x="1440" y="143" type="curve" smooth="yes"/>
      <point x="1435" y="124"/>
      <point x="1422" y="108"/>
      <point x="1406" y="99" type="curve" smooth="yes"/>
      <point x="1400" y="95"/>
      <point x="1397" y="95"/>
      <point x="1392" y="98" type="curve" smooth="yes"/>
      <point x="1375" y="107"/>
      <point x="1362" y="125"/>
      <point x="1358" y="143" type="curve" smooth="yes"/>
      <point x="1355" y="153"/>
      <point x="1356" y="155"/>
    </contour>
    <contour>
      <point x="1419" y="149" type="curve" smooth="yes"/>
      <point x="1411" y="152"/>
      <point x="1399" y="155"/>
      <point x="1388" y="152" type="curve" smooth="yes"/>
      <point x="1382" y="151"/>
      <point x="1373" y="148"/>
      <point x="1373" y="147" type="curve" smooth="yes"/>
      <point x="1373" y="138"/>
      <point x="1392" y="108"/>
      <point x="1401" y="114" type="curve" smooth="yes"/>
      <point x="1406" y="118"/>
      <point x="1433" y="143"/>
    </contour>
    <contour>
      <point x="1493" y="276" type="curve" smooth="yes"/>
      <point x="1513" y="290"/>
      <point x="1541" y="301"/>
      <point x="1575" y="293" type="curve" smooth="yes"/>
      <point x="1584" y="291"/>
      <point x="1597" y="285"/>
      <point x="1604" y="281" type="curve" smooth="yes"/>
      <point x="1619" y="272"/>
      <point x="1636" y="255"/>
      <point x="1636" y="249" type="curve" smooth="yes"/>
      <point x="1636" y="246"/>
      <point x="1634" y="242"/>
      <point x="1631" y="241" type="curve" smooth="yes"/>
      <point x="1627" y="240"/>
      <point x="1624" y="241"/>
      <point x="1617" y="249" type="curve" smooth="yes"/>
      <point x="1593" y="278"/>
      <point x="1543" y="292"/>
      <point x="1503" y="264" type="curve" smooth="yes"/>
      <point x="1496" y="259"/>
      <point x="1484" y="247"/>
      <point x="1480" y="241" type="curve" smooth="yes"/>
      <point x="1476" y="234"/>
      <point x="1464" y="231"/>
      <point x="1464" y="242" type="curve" smooth="yes"/>
      <point x="1464" y="248"/>
      <point x="1479" y="266"/>
    </contour>
    <contour>
      <point x="1193" y="281" type="curve" smooth="yes"/>
      <point x="1225" y="301"/>
      <point x="1274" y="298"/>
      <point x="1304" y="276" type="curve" smooth="yes"/>
      <point x="1318" y="266"/>
      <point x="1333" y="248"/>
      <point x="1333" y="242" type="curve" smooth="yes"/>
      <point x="1333" y="229"/>
      <point x="1321" y="235"/>
      <point x="1316" y="242" type="curve" smooth="yes"/>
      <point x="1301" y="265"/>
      <point x="1266" y="284"/>
      <point x="1232" y="279" type="curve" smooth="yes"/>
      <point x="1211" y="275"/>
      <point x="1194" y="265"/>
      <point x="1180" y="249" type="curve" smooth="yes"/>
      <point x="1173" y="241"/>
      <point x="1171" y="240"/>
      <point x="1166" y="241" type="curve" smooth="yes"/>
      <point x="1164" y="242"/>
      <point x="1161" y="246"/>
      <point x="1161" y="249" type="curve" smooth="yes"/>
      <point x="1161" y="255"/>
      <point x="1178" y="272"/>
    </contour>
    <contour>
      <point x="1055" y="377" type="curve"/>
      <point x="1040" y="343"/>
      <point x="1028" y="301"/>
      <point x="1028" y="253" type="curve" smooth="yes"/>
      <point x="1028" y="207.8267903784904"/>
      <point x="1098.4540682859838" y="-27.990227294890197"/>
      <point x="1310" y="-73" type="curve" smooth="yes"/>
      <point x="1332" y="-78"/>
      <point x="1368" y="-84"/>
      <point x="1399" y="-84" type="curve" smooth="yes"/>
      <point x="1696.5761534218427" y="-84"/>
      <point x="1791.5636790587923" y="237.21123288244817"/>
      <point x="1758" y="340" type="curve" smooth="yes"/>
      <point x="1756" y="346"/>
      <point x="1754" y="353"/>
      <point x="1754" y="353" type="curve" smooth="yes"/>
      <point x="1752" y="353"/>
      <point x="1745" y="374"/>
      <point x="1744" y="377" type="curve"/>
      <point x="1748" y="391" type="line" smooth="yes"/>
      <point x="1771" y="470"/>
      <point x="1751" y="551"/>
      <point x="1714" y="608" type="curve" smooth="yes"/>
      <point x="1705" y="622"/>
      <point x="1709" y="618"/>
      <point x="1695" y="617" type="curve" smooth="yes"/>
      <point x="1616" y="608"/>
      <point x="1558" y="561"/>
      <point x="1526" y="498" type="curve" smooth="yes"/>
      <point x="1521" y="488"/>
      <point x="1520" y="493"/>
      <point x="1507" y="498" type="curve" smooth="yes"/>
      <point x="1437" y="526"/>
      <point x="1362" y="526"/>
      <point x="1291" y="498" type="curve" smooth="yes"/>
      <point x="1276" y="492"/>
      <point x="1278" y="488"/>
      <point x="1271" y="500" type="curve" smooth="yes"/>
      <point x="1240" y="559"/>
      <point x="1179" y="608"/>
      <point x="1104" y="617" type="curve" smooth="yes"/>
      <point x="1090" y="618"/>
      <point x="1094" y="622"/>
      <point x="1085" y="608" type="curve" smooth="yes"/>
      <point x="1038.272533327825" y="537.9087999917375"/>
      <point x="1033.609279959377" y="464.6931201760331"/>
      <point x="1052" y="385" type="curve"/>
      <point x="1052" y="385"/>
      <point x="1054" y="378"/>
    </contour>
    <contour>
      <point x="596" y="1522" type="curve"/>
      <point x="622" y="1522"/>
      <point x="646" y="1518"/>
      <point x="669" y="1510" type="curve"/>
      <point x="669" y="1676" type="line"/>
      <point x="645" y="1681"/>
      <point x="621" y="1683"/>
      <point x="596" y="1683" type="curve"/>
      <point x="491" y="1683"/>
      <point x="401" y="1645"/>
      <point x="326" y="1568" type="curve" smooth="yes"/>
      <point x="252" y="1492"/>
      <point x="214" y="1399"/>
      <point x="214" y="1290" type="curve" smooth="yes"/>
      <point x="214" y="1182"/>
      <point x="252" y="1089"/>
      <point x="326" y="1012" type="curve" smooth="yes"/>
      <point x="401" y="935"/>
      <point x="491" y="896"/>
      <point x="596" y="896" type="curve"/>
      <point x="621" y="896"/>
      <point x="645" y="899"/>
      <point x="669" y="903" type="curve"/>
      <point x="669" y="1065" type="line"/>
      <point x="646" y="1057"/>
      <point x="622" y="1053"/>
      <point x="596" y="1053" type="curve"/>
      <point x="533" y="1053"/>
      <point x="479" y="1076"/>
      <point x="434" y="1122" type="curve" smooth="yes"/>
      <point x="390" y="1168"/>
      <point x="367" y="1223"/>
      <point x="367" y="1288" type="curve"/>
      <point x="367" y="1353"/>
      <point x="390" y="1408"/>
      <point x="434" y="1454" type="curve" smooth="yes"/>
      <point x="479" y="1500"/>
      <point x="533" y="1522"/>
    </contour>
    <contour>
      <point x="997" y="914" type="curve"/>
      <point x="997" y="1067" type="line"/>
      <point x="988" y="1065"/>
      <point x="980" y="1064"/>
      <point x="971" y="1064" type="curve"/>
      <point x="941" y="1064"/>
      <point x="916" y="1075"/>
      <point x="895" y="1095" type="curve" smooth="yes"/>
      <point x="874" y="1116"/>
      <point x="864" y="1141"/>
      <point x="864" y="1170" type="curve"/>
      <point x="864" y="1200"/>
      <point x="874" y="1226"/>
      <point x="895" y="1246" type="curve" smooth="yes"/>
      <point x="916" y="1267"/>
      <point x="941" y="1277"/>
      <point x="971" y="1277" type="curve"/>
      <point x="980" y="1277"/>
      <point x="988" y="1276"/>
      <point x="997" y="1274" type="curve"/>
      <point x="997" y="1427" type="line"/>
      <point x="988" y="1428"/>
      <point x="980" y="1428"/>
      <point x="971" y="1428" type="curve"/>
      <point x="900" y="1428"/>
      <point x="839" y="1403"/>
      <point x="788" y="1353" type="curve" smooth="yes"/>
      <point x="738" y="1303"/>
      <point x="713" y="1242"/>
      <point x="713" y="1170" type="curve" smooth="yes"/>
      <point x="713" y="1099"/>
      <point x="738" y="1038"/>
      <point x="788" y="988" type="curve" smooth="yes"/>
      <point x="839" y="938"/>
      <point x="900" y="913"/>
      <point x="971" y="913" type="curve"/>
      <point x="980" y="913"/>
      <point x="988" y="914"/>
    </contour>
    <contour>
      <point x="1108" y="133" type="line"/>
      <point x="1286" y="133" type="line"/>
      <point x="1286" y="125" type="line"/>
      <point x="1109" y="122" type="line"/>
    </contour>
    <contour>
      <point x="1131" y="44" type="line"/>
      <point x="1288" y="91" type="line"/>
      <point x="1288" y="83" type="line"/>
      <point x="1134" y="35" type="line"/>
    </contour>
    <contour>
      <point x="1051" y="207" type="line"/>
      <point x="1288" y="175" type="line"/>
      <point x="1288" y="167" type="line"/>
      <point x="1051" y="199" type="line"/>
    </contour>
    <contour>
      <point x="1674" y="133" type="line"/>
      <point x="1673" y="122" type="line"/>
      <point x="1496" y="125" type="line"/>
      <point x="1496" y="133" type="line"/>
    </contour>
    <contour>
      <point x="1651" y="44" type="line"/>
      <point x="1648" y="35" type="line"/>
      <point x="1494" y="83" type="line"/>
      <point x="1494" y="91" type="line"/>
    </contour>
    <contour>
      <point x="1731" y="207" type="line"/>
      <point x="1731" y="199" type="line"/>
      <point x="1494" y="167" type="line"/>
      <point x="1494" y="175" type="line"/>
    </contour>
  </outline>
</glyph>
<glyph name="D" format="2">
  <advance width="2048"/>
  <unicode hex="0044"/>
  <outline>
    <contour>
      <point x="1076" y="627" type="curve" smooth="yes"/>
      <point x="1076" y="635"/>
      <point x="1069" y="641"/>
      <point x="1061" y="641" type="curve" smooth="yes"/>
      <point x="1053" y="641"/>
      <point x="1046" y="635"/>
      <point x="1046" y="627" type="curve" smooth="yes"/>
      <point x="1046" y="619"/>
      <point x="1053" y="613"/>
      <point x="1061" y="613" type="curve" smooth="yes"/>
      <point x="1069" y="613"/>
      <point x="1076" y="619"/>
    </contour>
    <contour>
      <point x="1065" y="681" type="curve" smooth="yes"/>
      <point x="1071" y="682"/>
      <point x="1103" y="682"/>
      <point x="1110" y="681" type="curve" smooth="yes"/>
      <point x="1117" y="681"/>
      <point x="1125" y="679"/>
      <point x="1131" y="678" type="curve" smooth="yes"/>
      <point x="1135" y="677"/>
      <point x="1144" y="675"/>
      <point x="1144" y="674" type="curve" smooth="yes"/>
      <point x="1144" y="674"/>
      <point x="1141" y="674"/>
      <point x="1137" y="674" type="curve" smooth="yes"/>
      <point x="1131" y="674"/>
      <point x="1130" y="674"/>
      <point x="1126" y="673" type="curve" smooth="yes"/>
      <point x="1115" y="669"/>
      <point x="1108" y="662"/>
      <point x="1107" y="654" type="curve" smooth="yes"/>
      <point x="1107" y="651"/>
      <point x="1107" y="649"/>
      <point x="1110" y="645" type="curve" smooth="yes"/>
      <point x="1114" y="640"/>
      <point x="1115" y="638"/>
      <point x="1115" y="628" type="curve" smooth="yes"/>
      <point x="1114" y="622"/>
      <point x="1114" y="619"/>
      <point x="1113" y="615" type="curve" smooth="yes"/>
      <point x="1111" y="605"/>
      <point x="1108" y="596"/>
      <point x="1099" y="578" type="curve" smooth="yes"/>
      <point x="1097" y="571"/>
      <point x="1094" y="565"/>
      <point x="1094" y="563" type="curve" smooth="yes"/>
      <point x="1093" y="558"/>
      <point x="1093" y="542"/>
      <point x="1094" y="533" type="curve" smooth="yes"/>
      <point x="1097" y="509"/>
      <point x="1103" y="489"/>
      <point x="1108" y="485" type="curve" smooth="yes"/>
      <point x="1111" y="483"/>
      <point x="1112" y="484"/>
      <point x="1115" y="486" type="curve" smooth="yes"/>
      <point x="1120" y="493"/>
      <point x="1124" y="496"/>
      <point x="1139" y="501" type="curve" smooth="yes"/>
      <point x="1154" y="507"/>
      <point x="1159" y="510"/>
      <point x="1163" y="517" type="curve" smooth="yes"/>
      <point x="1167" y="522"/>
      <point x="1172" y="528"/>
      <point x="1191" y="546" type="curve" smooth="yes"/>
      <point x="1196" y="551"/>
      <point x="1201" y="556"/>
      <point x="1202" y="557" type="curve" smooth="yes"/>
      <point x="1203" y="559"/>
      <point x="1205" y="560"/>
      <point x="1205" y="560" type="curve" smooth="yes"/>
      <point x="1205" y="560"/>
      <point x="1206" y="558"/>
      <point x="1207" y="554" type="curve" smooth="yes"/>
      <point x="1210" y="544"/>
      <point x="1215" y="529"/>
      <point x="1217" y="524" type="curve" smooth="yes"/>
      <point x="1222" y="511"/>
      <point x="1225" y="506"/>
      <point x="1237" y="491" type="curve" smooth="yes"/>
      <point x="1249" y="474"/>
      <point x="1255" y="467"/>
      <point x="1274" y="448" type="curve" smooth="yes"/>
      <point x="1301" y="419"/>
      <point x="1309" y="409"/>
      <point x="1337" y="362" type="curve" smooth="yes"/>
      <point x="1355" y="332"/>
      <point x="1363" y="320"/>
      <point x="1380" y="297" type="curve" smooth="yes"/>
      <point x="1396" y="275"/>
      <point x="1416" y="250"/>
      <point x="1450" y="209" type="curve" smooth="yes"/>
      <point x="1462" y="195"/>
      <point x="1473" y="180"/>
      <point x="1476" y="176" type="curve" smooth="yes"/>
      <point x="1491" y="157"/>
      <point x="1502" y="137"/>
      <point x="1509" y="118" type="curve" smooth="yes"/>
      <point x="1520" y="86"/>
      <point x="1522" y="56"/>
      <point x="1515" y="21" type="curve" smooth="yes"/>
      <point x="1514" y="14" type="line"/>
      <point x="1516" y="11" type="line" smooth="yes"/>
      <point x="1522" y="2"/>
      <point x="1531" y="-10"/>
      <point x="1541" y="-20" type="curve" smooth="yes"/>
      <point x="1553" y="-32"/>
      <point x="1564" y="-39"/>
      <point x="1575" y="-41" type="curve" smooth="yes"/>
      <point x="1578" y="-42"/>
      <point x="1589" y="-43"/>
      <point x="1609" y="-43" type="curve" smooth="yes"/>
      <point x="1620" y="-44"/>
      <point x="1633" y="-44"/>
      <point x="1638" y="-45" type="curve" smooth="yes"/>
      <point x="1695" y="-48"/>
      <point x="1732" y="-56"/>
      <point x="1752" y="-70" type="curve" smooth="yes"/>
      <point x="1756" y="-73"/>
      <point x="1761" y="-77"/>
      <point x="1761" y="-77" type="curve" smooth="yes"/>
      <point x="1761" y="-78"/>
      <point x="1759" y="-78"/>
      <point x="1756" y="-79" type="curve" smooth="yes"/>
      <point x="1739" y="-81"/>
      <point x="1721" y="-84"/>
      <point x="1694" y="-89" type="curve" smooth="yes"/>
      <point x="1688" y="-91" type="line"/>
      <point x="1687" y="-90" type="line" smooth="yes"/>
      <point x="1684" y="-88"/>
      <point x="1682" y="-87"/>
      <point x="1670" y="-88" type="curve" smooth="yes"/>
      <point x="1652" y="-88"/>
      <point x="1642" y="-90"/>
      <point x="1630" y="-94" type="curve" smooth="yes"/>
      <point x="1620" y="-98"/>
      <point x="1617" y="-99"/>
      <point x="1603" y="-99" type="curve" smooth="yes"/>
      <point x="1589" y="-99"/>
      <point x="1578" y="-98"/>
      <point x="1559" y="-95" type="curve" smooth="yes"/>
      <point x="1538" y="-92"/>
      <point x="1528" y="-89"/>
      <point x="1507" y="-82" type="curve" smooth="yes"/>
      <point x="1502" y="-80"/>
      <point x="1492" y="-76"/>
      <point x="1486" y="-74" type="curve" smooth="yes"/>
      <point x="1467" y="-68"/>
      <point x="1463" y="-65"/>
      <point x="1459" y="-57" type="curve" smooth="yes"/>
      <point x="1457" y="-53"/>
      <point x="1455" y="-52"/>
      <point x="1452" y="-52" type="curve" smooth="yes"/>
      <point x="1450" y="-53"/>
      <point x="1449" y="-53"/>
      <point x="1441" y="-59" type="curve" smooth="yes"/>
      <point x="1418" y="-74"/>
      <point x="1401" y="-80"/>
      <point x="1377" y="-82" type="curve" smooth="yes"/>
      <point x="1369" y="-83"/>
      <point x="1361" y="-83"/>
      <point x="1348" y="-81" type="curve" smooth="yes"/>
      <point x="1319" y="-78"/>
      <point x="1296" y="-74"/>
      <point x="1285" y="-68" type="curve" smooth="yes"/>
      <point x="1282" y="-67"/>
      <point x="1277" y="-63"/>
      <point x="1277" y="-62" type="curve" smooth="yes"/>
      <point x="1277" y="-62"/>
      <point x="1278" y="-61"/>
      <point x="1279" y="-61" type="curve" smooth="yes"/>
      <point x="1281" y="-60"/>
      <point x="1284" y="-56"/>
      <point x="1285" y="-54" type="curve" smooth="yes"/>
      <point x="1285" y="-51"/>
      <point x="1284" y="-48"/>
      <point x="1282" y="-46" type="curve" smooth="yes"/>
      <point x="1279" y="-42"/>
      <point x="1275" y="-43"/>
      <point x="1272" y="-48" type="curve" smooth="yes"/>
      <point x="1271" y="-50"/>
      <point x="1271" y="-51"/>
      <point x="1271" y="-55" type="curve" smooth="yes"/>
      <point x="1271" y="-59" type="line"/>
      <point x="1263" y="-59" type="line" smooth="yes"/>
      <point x="1252" y="-59"/>
      <point x="1245" y="-58"/>
      <point x="1243" y="-56" type="curve" smooth="yes"/>
      <point x="1241" y="-54"/>
      <point x="1241" y="-54"/>
      <point x="1242" y="-52" type="curve" smooth="yes"/>
      <point x="1242" y="-49"/>
      <point x="1245" y="-45"/>
      <point x="1253" y="-35" type="curve" smooth="yes"/>
      <point x="1261" y="-24"/>
      <point x="1263" y="-21"/>
      <point x="1266" y="-19" type="curve" smooth="yes"/>
      <point x="1268" y="-18"/>
      <point x="1268" y="-18"/>
      <point x="1271" y="-20" type="curve" smooth="yes"/>
      <point x="1277" y="-23"/>
      <point x="1288" y="-26"/>
      <point x="1312" y="-31" type="curve" smooth="yes"/>
      <point x="1320" y="-32"/>
      <point x="1327" y="-34"/>
      <point x="1328" y="-34" type="curve" smooth="yes"/>
      <point x="1330" y="-34"/>
      <point x="1335" y="-36"/>
      <point x="1339" y="-37" type="curve" smooth="yes"/>
      <point x="1353" y="-42"/>
      <point x="1366" y="-46"/>
      <point x="1371" y="-46" type="curve" smooth="yes"/>
      <point x="1375" y="-46"/>
      <point x="1377" y="-42"/>
      <point x="1375" y="-39" type="curve" smooth="yes"/>
      <point x="1373" y="-38"/>
      <point x="1372" y="-38"/>
      <point x="1353" y="-35" type="curve" smooth="yes"/>
      <point x="1333" y="-31" type="line"/>
      <point x="1323" y="-27" type="line" smooth="yes"/>
      <point x="1296" y="-16"/>
      <point x="1284" y="-13"/>
      <point x="1274" y="-14" type="curve" smooth="yes"/>
      <point x="1268" y="-14" type="line"/>
      <point x="1267" y="-12" type="line" smooth="yes"/>
      <point x="1264" y="-8"/>
      <point x="1259" y="0"/>
      <point x="1252" y="16" type="curve" smooth="yes"/>
      <point x="1239" y="43"/>
      <point x="1233" y="54"/>
      <point x="1227" y="64" type="curve" smooth="yes"/>
      <point x="1217" y="79"/>
      <point x="1205" y="89"/>
      <point x="1194" y="94" type="curve" smooth="yes"/>
      <point x="1192" y="95"/>
      <point x="1190" y="95"/>
      <point x="1187" y="95" type="curve" smooth="yes"/>
      <point x="1184" y="95"/>
      <point x="1183" y="95"/>
      <point x="1181" y="94" type="curve" smooth="yes"/>
      <point x="1180" y="93"/>
      <point x="1179" y="91"/>
      <point x="1178" y="89" type="curve" smooth="yes"/>
      <point x="1177" y="86"/>
      <point x="1177" y="85"/>
      <point x="1177" y="66" type="curve" smooth="yes"/>
      <point x="1176" y="44"/>
      <point x="1176" y="40"/>
      <point x="1173" y="30" type="curve" smooth="yes"/>
      <point x="1170" y="21"/>
      <point x="1164" y="12"/>
      <point x="1157" y="4" type="curve" smooth="yes"/>
      <point x="1153" y="1"/>
      <point x="1151" y="-1"/>
      <point x="1147" y="-3" type="curve" smooth="yes"/>
      <point x="1138" y="-8"/>
      <point x="1137" y="-9"/>
      <point x="1136" y="-25" type="curve" smooth="yes"/>
      <point x="1136" y="-31"/>
      <point x="1135" y="-37"/>
      <point x="1135" y="-39" type="curve" smooth="yes"/>
      <point x="1132" y="-51"/>
      <point x="1122" y="-56"/>
      <point x="1099" y="-56" type="curve" smooth="yes"/>
      <point x="1094" y="-56"/>
      <point x="1087" y="-57"/>
      <point x="1078" y="-58" type="curve" smooth="yes"/>
      <point x="1074" y="-58" type="line"/>
      <point x="1076" y="-55" type="line" smooth="yes"/>
      <point x="1080" y="-49"/>
      <point x="1081" y="-45"/>
      <point x="1077" y="-43" type="curve" smooth="yes"/>
      <point x="1074" y="-42"/>
      <point x="1073" y="-42"/>
      <point x="1070" y="-43" type="curve" smooth="yes"/>
      <point x="1064" y="-45"/>
      <point x="1061" y="-50"/>
      <point x="1061" y="-54" type="curve" smooth="yes"/>
      <point x="1062" y="-55"/>
      <point x="1062" y="-56"/>
      <point x="1063" y="-57" type="curve" smooth="yes"/>
      <point x="1065" y="-59"/>
      <point x="1065" y="-59"/>
      <point x="1064" y="-60" type="curve" smooth="yes"/>
      <point x="1062" y="-61"/>
      <point x="1058" y="-61"/>
      <point x="1057" y="-60" type="curve" smooth="yes"/>
      <point x="1052" y="-57"/>
      <point x="1052" y="-45"/>
      <point x="1057" y="-36" type="curve" smooth="yes"/>
      <point x="1059" y="-31"/>
      <point x="1065" y="-25"/>
      <point x="1069" y="-23" type="curve" smooth="yes"/>
      <point x="1070" y="-22"/>
      <point x="1076" y="-21"/>
      <point x="1081" y="-20" type="curve" smooth="yes"/>
      <point x="1092" y="-17"/>
      <point x="1097" y="-15"/>
      <point x="1102" y="-11" type="curve" smooth="yes"/>
      <point x="1107" y="-8"/>
      <point x="1111" y="-3"/>
      <point x="1113" y="3" type="curve" smooth="yes"/>
      <point x="1114" y="7"/>
      <point x="1115" y="14"/>
      <point x="1117" y="43" type="curve" smooth="yes"/>
      <point x="1119" y="70"/>
      <point x="1120" y="76"/>
      <point x="1120" y="105" type="curve" smooth="yes"/>
      <point x="1120" y="132"/>
      <point x="1120" y="136"/>
      <point x="1118" y="151" type="curve" smooth="yes"/>
      <point x="1115" y="173"/>
      <point x="1109" y="189"/>
      <point x="1101" y="198" type="curve" smooth="yes"/>
      <point x="1098" y="201"/>
      <point x="1096" y="203"/>
      <point x="1091" y="207" type="curve" smooth="yes"/>
      <point x="1087" y="210"/>
      <point x="1079" y="218"/>
      <point x="1076" y="222" type="curve" smooth="yes"/>
      <point x="1071" y="230"/>
      <point x="1066" y="240"/>
      <point x="1062" y="251" type="curve" smooth="yes"/>
      <point x="1054" y="279"/>
      <point x="1053" y="323"/>
      <point x="1060" y="358" type="curve" smooth="yes"/>
      <point x="1063" y="377"/>
      <point x="1071" y="396"/>
      <point x="1079" y="409" type="curve" smooth="yes"/>
      <point x="1081" y="413" type="line"/>
      <point x="1087" y="413" type="line" smooth="yes"/>
      <point x="1094" y="413"/>
      <point x="1099" y="414"/>
      <point x="1108" y="417" type="curve" smooth="yes"/>
      <point x="1122" y="422"/>
      <point x="1135" y="431"/>
      <point x="1139" y="438" type="curve" smooth="yes"/>
      <point x="1141" y="441"/>
      <point x="1141" y="446"/>
      <point x="1140" y="448" type="curve" smooth="yes"/>
      <point x="1138" y="454"/>
      <point x="1130" y="458"/>
      <point x="1123" y="456" type="curve" smooth="yes"/>
      <point x="1119" y="454"/>
      <point x="1114" y="452"/>
      <point x="1108" y="447" type="curve" smooth="yes"/>
      <point x="1098" y="440"/>
      <point x="1090" y="431"/>
      <point x="1083" y="422" type="curve" smooth="yes"/>
      <point x="1080" y="418"/>
      <point x="1080" y="417"/>
      <point x="1078" y="418" type="curve" smooth="yes"/>
      <point x="1073" y="419"/>
      <point x="1067" y="425"/>
      <point x="1063" y="431" type="curve" smooth="yes"/>
      <point x="1060" y="437"/>
      <point x="1059" y="442"/>
      <point x="1058" y="455" type="curve" smooth="yes"/>
      <point x="1053" y="490"/>
      <point x="1046" y="510"/>
      <point x="1035" y="521" type="curve" smooth="yes"/>
      <point x="1029" y="526"/>
      <point x="1025" y="528"/>
      <point x="1014" y="529" type="curve" smooth="yes"/>
      <point x="1000" y="530"/>
      <point x="994" y="532"/>
      <point x="980" y="542" type="curve" smooth="yes"/>
      <point x="969" y="550"/>
      <point x="965" y="552"/>
      <point x="956" y="554" type="curve" smooth="yes"/>
      <point x="950" y="556"/>
      <point x="945" y="558"/>
      <point x="942" y="562" type="curve" smooth="yes"/>
      <point x="934" y="569"/>
      <point x="930" y="579"/>
      <point x="929" y="594" type="curve" smooth="yes"/>
      <point x="928" y="599" type="line"/>
      <point x="930" y="598" type="line" smooth="yes"/>
      <point x="933" y="598"/>
      <point x="936" y="600"/>
      <point x="939" y="605" type="curve" smooth="yes"/>
      <point x="940" y="609"/>
      <point x="941" y="612"/>
      <point x="940" y="615" type="curve" smooth="yes"/>
      <point x="940" y="617"/>
      <point x="939" y="618"/>
      <point x="939" y="618" type="curve" smooth="yes"/>
      <point x="939" y="618"/>
      <point x="942" y="618"/>
      <point x="946" y="617" type="curve" smooth="yes"/>
      <point x="949" y="616"/>
      <point x="953" y="615"/>
      <point x="954" y="615" type="curve" smooth="yes"/>
      <point x="962" y="615"/>
      <point x="965" y="622"/>
      <point x="960" y="632" type="curve" smooth="yes"/>
      <point x="958" y="635"/>
      <point x="957" y="637"/>
      <point x="954" y="640" type="curve" smooth="yes"/>
      <point x="952" y="642"/>
      <point x="950" y="644"/>
      <point x="950" y="644" type="curve" smooth="yes"/>
      <point x="950" y="644"/>
      <point x="956" y="644"/>
      <point x="962" y="644" type="curve" smooth="yes"/>
      <point x="984" y="643"/>
      <point x="995" y="643"/>
      <point x="1004" y="646" type="curve" smooth="yes"/>
      <point x="1014" y="649"/>
      <point x="1020" y="653"/>
      <point x="1030" y="662" type="curve" smooth="yes"/>
      <point x="1044" y="676"/>
      <point x="1050" y="679"/>
    </contour>
    <contour>
      <point x="1128" y="670" type="curve" smooth="yes"/>
      <point x="1146" y="674"/>
      <point x="1164" y="664"/>
      <point x="1177" y="642" type="curve" smooth="yes"/>
      <point x="1180" y="638"/>
      <point x="1185" y="627"/>
      <point x="1188" y="621" type="curve" smooth="yes"/>
      <point x="1190" y="615"/>
      <point x="1203" y="568"/>
      <point x="1203" y="566" type="curve" smooth="yes"/>
      <point x="1203" y="565"/>
      <point x="1200" y="560"/>
      <point x="1195" y="556" type="curve" smooth="yes"/>
      <point x="1193" y="553"/>
      <point x="1188" y="548"/>
      <point x="1184" y="544" type="curve" smooth="yes"/>
      <point x="1172" y="533"/>
      <point x="1165" y="526"/>
      <point x="1161" y="521" type="curve" smooth="yes"/>
      <point x="1156" y="513"/>
      <point x="1152" y="510"/>
      <point x="1137" y="505" type="curve" smooth="yes"/>
      <point x="1123" y="500"/>
      <point x="1117" y="496"/>
      <point x="1113" y="490" type="curve" smooth="yes"/>
      <point x="1111" y="487" type="line"/>
      <point x="1110" y="489" type="line" smooth="yes"/>
      <point x="1104" y="496"/>
      <point x="1097" y="528"/>
      <point x="1097" y="551" type="curve" smooth="yes"/>
      <point x="1097" y="563"/>
      <point x="1097" y="562"/>
      <point x="1106" y="583" type="curve" smooth="yes"/>
      <point x="1116" y="606"/>
      <point x="1120" y="623"/>
      <point x="1118" y="634" type="curve" smooth="yes"/>
      <point x="1118" y="640"/>
      <point x="1117" y="642"/>
      <point x="1114" y="647" type="curve" smooth="yes"/>
      <point x="1111" y="650"/>
      <point x="1111" y="651"/>
      <point x="1111" y="653" type="curve" smooth="yes"/>
      <point x="1111" y="656"/>
      <point x="1112" y="659"/>
      <point x="1116" y="663" type="curve" smooth="yes"/>
      <point x="1119" y="666"/>
      <point x="1124" y="668"/>
    </contour>
    <contour>
      <point x="1173" y="655" type="curve" smooth="yes"/>
      <point x="1170" y="659"/>
      <point x="1170" y="659"/>
      <point x="1174" y="655" type="curve" smooth="yes"/>
      <point x="1177" y="652"/>
      <point x="1181" y="647"/>
      <point x="1183" y="641" type="curve" smooth="yes"/>
      <point x="1186" y="635"/>
      <point x="1186" y="635"/>
      <point x="1183" y="640" type="curve" smooth="yes"/>
      <point x="1180" y="645"/>
      <point x="1176" y="652"/>
    </contour>
    <contour>
      <point x="940" y="640" type="curve" smooth="yes"/>
      <point x="942" y="641"/>
      <point x="943" y="642"/>
      <point x="944" y="642" type="curve" smooth="yes"/>
      <point x="945" y="642"/>
      <point x="950" y="639"/>
      <point x="952" y="636" type="curve" smooth="yes"/>
      <point x="957" y="631"/>
      <point x="960" y="624"/>
      <point x="958" y="621" type="curve" smooth="yes"/>
      <point x="956" y="619"/>
      <point x="954" y="619"/>
      <point x="947" y="620" type="curve" smooth="yes"/>
      <point x="943" y="621"/>
      <point x="939" y="622"/>
      <point x="938" y="622" type="curve" smooth="yes"/>
      <point x="935" y="622"/>
      <point x="935" y="621"/>
      <point x="936" y="614" type="curve" smooth="yes"/>
      <point x="937" y="612"/>
      <point x="937" y="611"/>
      <point x="936" y="608" type="curve" smooth="yes"/>
      <point x="934" y="605"/>
      <point x="932" y="602"/>
      <point x="931" y="603" type="curve" smooth="yes"/>
      <point x="930" y="604"/>
      <point x="930" y="610"/>
      <point x="931" y="616" type="curve" smooth="yes"/>
      <point x="932" y="627"/>
      <point x="935" y="635"/>
    </contour>
    <contour>
      <point x="1202" y="586" type="curve" smooth="yes"/>
      <point x="1200" y="592"/>
      <point x="1199" y="597"/>
      <point x="1199" y="597" type="curve" smooth="yes"/>
      <point x="1199" y="598"/>
      <point x="1204" y="584"/>
      <point x="1205" y="580" type="curve" smooth="yes"/>
      <point x="1206" y="576"/>
      <point x="1206" y="574"/>
      <point x="1205" y="574" type="curve" smooth="yes"/>
      <point x="1205" y="575"/>
      <point x="1204" y="580"/>
    </contour>
    <contour>
      <point x="1122" y="451" type="curve" smooth="yes"/>
      <point x="1126" y="453"/>
      <point x="1130" y="453"/>
      <point x="1133" y="451" type="curve" smooth="yes"/>
      <point x="1135" y="450"/>
      <point x="1137" y="448"/>
      <point x="1137" y="445" type="curve" smooth="yes"/>
      <point x="1137" y="442"/>
      <point x="1135" y="437"/>
      <point x="1131" y="434" type="curve" smooth="yes"/>
      <point x="1123" y="427"/>
      <point x="1109" y="420"/>
      <point x="1097" y="418" type="curve" smooth="yes"/>
      <point x="1092" y="417"/>
      <point x="1085" y="416"/>
      <point x="1085" y="417" type="curve" smooth="yes"/>
      <point x="1085" y="418"/>
      <point x="1092" y="427"/>
      <point x="1097" y="432" type="curve" smooth="yes"/>
      <point x="1105" y="440"/>
      <point x="1116" y="449"/>
    </contour>
    <contour>
      <point x="1276" y="-18" type="curve" smooth="yes"/>
      <point x="1274" y="-17" type="line"/>
      <point x="1276" y="-17" type="line" smooth="yes"/>
      <point x="1279" y="-17"/>
      <point x="1285" y="-18"/>
      <point x="1292" y="-20" type="curve" smooth="yes"/>
      <point x="1299" y="-22"/>
      <point x="1310" y="-26"/>
      <point x="1310" y="-26" type="curve" smooth="yes"/>
      <point x="1308" y="-27"/>
      <point x="1280" y="-20"/>
    </contour>
    <contour>
      <point x="1362" y="-40" type="curve" smooth="yes"/>
      <point x="1362" y="-40"/>
      <point x="1363" y="-40"/>
      <point x="1363" y="-40" type="curve" smooth="yes"/>
      <point x="1364" y="-40"/>
      <point x="1364" y="-40"/>
      <point x="1363" y="-40" type="curve" smooth="yes"/>
      <point x="1363" y="-41"/>
      <point x="1363" y="-41"/>
    </contour>
    <contour>
      <point x="1365" y="-41" type="curve" smooth="yes"/>
      <point x="1364" y="-41" type="line"/>
      <point x="1365" y="-41" type="line" smooth="yes"/>
      <point x="1367" y="-41"/>
      <point x="1371" y="-41"/>
      <point x="1372" y="-42" type="curve" smooth="yes"/>
      <point x="1372" y="-42"/>
      <point x="1367" y="-42"/>
    </contour>
    <contour>
      <point x="1070" y="-47" type="curve" smooth="yes"/>
      <point x="1072" y="-46"/>
      <point x="1075" y="-46"/>
      <point x="1076" y="-47" type="curve" smooth="yes"/>
      <point x="1076" y="-48"/>
      <point x="1074" y="-52"/>
      <point x="1071" y="-55" type="curve" smooth="yes"/>
      <point x="1069" y="-57"/>
      <point x="1069" y="-57"/>
      <point x="1068" y="-56" type="curve" smooth="yes"/>
      <point x="1064" y="-54"/>
      <point x="1065" y="-49"/>
    </contour>
    <contour>
      <point x="1275" y="-49" type="curve" smooth="yes"/>
      <point x="1276" y="-47"/>
      <point x="1278" y="-47"/>
      <point x="1280" y="-49" type="curve" smooth="yes"/>
      <point x="1281" y="-50"/>
      <point x="1281" y="-53"/>
      <point x="1280" y="-55" type="curve" smooth="yes"/>
      <point x="1279" y="-56"/>
      <point x="1275" y="-59"/>
      <point x="1275" y="-58" type="curve" smooth="yes"/>
      <point x="1274" y="-57"/>
      <point x="1275" y="-51"/>
    </contour>
    <contour>
      <point x="856" y="1129" type="curve"/>
      <point x="856" y="1293" type="line"/>
      <point x="852" y="1297"/>
      <point x="844" y="1297"/>
      <point x="836" y="1297" type="curve"/>
      <point x="812" y="1297"/>
      <point x="792" y="1289"/>
      <point x="776" y="1273" type="curve" smooth="yes"/>
      <point x="760" y="1257"/>
      <point x="752" y="1233"/>
      <point x="752" y="1209" type="curve"/>
      <point x="752" y="1189"/>
      <point x="760" y="1169"/>
      <point x="776" y="1149" type="curve" smooth="yes"/>
      <point x="792" y="1133"/>
      <point x="812" y="1125"/>
      <point x="836" y="1125" type="curve"/>
      <point x="844" y="1125"/>
      <point x="852" y="1125"/>
    </contour>
    <contour>
      <point x="856" y="1625" type="line"/>
      <point x="980" y="1625" type="line"/>
      <point x="980" y="1005" type="line"/>
      <point x="856" y="1005" type="line"/>
      <point x="852" y="1005"/>
      <point x="844" y="1005"/>
      <point x="836" y="1005" type="curve"/>
      <point x="780" y="1005"/>
      <point x="732" y="1025"/>
      <point x="692" y="1065" type="curve" smooth="yes"/>
      <point x="652" y="1105"/>
      <point x="632" y="1153"/>
      <point x="632" y="1209" type="curve" smooth="yes"/>
      <point x="632" y="1269"/>
      <point x="652" y="1317"/>
      <point x="692" y="1357" type="curve" smooth="yes"/>
      <point x="732" y="1397"/>
      <point x="780" y="1417"/>
      <point x="836" y="1417" type="curve"/>
      <point x="844" y="1417"/>
      <point x="852" y="1417"/>
      <point x="856" y="1417" type="curve"/>
    </contour>
    <contour>
      <point x="856" y="1129" type="curve"/>
      <point x="856" y="1293" type="line"/>
      <point x="852" y="1297"/>
      <point x="844" y="1297"/>
      <point x="836" y="1297" type="curve"/>
      <point x="812" y="1297"/>
      <point x="792" y="1289"/>
      <point x="776" y="1273" type="curve" smooth="yes"/>
      <point x="760" y="1257"/>
      <point x="752" y="1233"/>
      <point x="752" y="1209" type="curve"/>
      <point x="752" y="1189"/>
      <point x="760" y="1169"/>
      <point x="776" y="1149" type="curve" smooth="yes"/>
      <point x="792" y="1133"/>
      <point x="812" y="1125"/>
      <point x="836" y="1125" type="curve"/>
      <point x="844" y="1125"/>
      <point x="852" y="1125"/>
    </contour>
    <contour>
      <point x="856" y="1625" type="line"/>
      <point x="980" y="1625" type="line"/>
      <point x="980" y="1005" type="line"/>
      <point x="856" y="1005" type="line"/>
      <point x="852" y="1005"/>
      <point x="844" y="1005"/>
      <point x="836" y="1005" type="curve"/>
      <point x="780" y="1005"/>
      <point x="732" y="1025"/>
      <point x="692" y="1065" type="curve" smooth="yes"/>
      <point x="652" y="1105"/>
      <point x="632" y="1153"/>
      <point x="632" y="1209" type="curve" smooth="yes"/>
      <point x="632" y="1269"/>
      <point x="652" y="1317"/>
      <point x="692" y="1357" type="curve" smooth="yes"/>
      <point x="732" y="1397"/>
      <point x="780" y="1417"/>
      <point x="836" y="1417" type="curve"/>
      <point x="844" y="1417"/>
      <point x="852" y="1417"/>
      <point x="856" y="1417" type="curve"/>
    </contour>
    <contour>
      <point x="856" y="1129" type="curve"/>
      <point x="856" y="1293" type="line"/>
      <point x="852" y="1297"/>
      <point x="844" y="1297"/>
      <point x="836" y="1297" type="curve"/>
      <point x="812" y="1297"/>
      <point x="792" y="1289"/>
      <point x="776" y="1273" type="curve" smooth="yes"/>
      <point x="760" y="1257"/>
      <point x="752" y="1233"/>
      <point x="752" y="1209" type="curve"/>
      <point x="752" y="1189"/>
      <point x="760" y="1169"/>
      <point x="776" y="1149" type="curve" smooth="yes"/>
      <point x="792" y="1133"/>
      <point x="812" y="1125"/>
      <point x="836" y="1125" type="curve"/>
      <point x="844" y="1125"/>
      <point x="852" y="1125"/>
    </contour>
    <contour>
      <point x="856" y="1625" type="line"/>
      <point x="980" y="1625" type="line"/>
      <point x="980" y="1005" type="line"/>
      <point x="856" y="1005" type="line"/>
      <point x="852" y="1005"/>
      <point x="844" y="1005"/>
      <point x="836" y="1005" type="curve"/>
      <point x="780" y="1005"/>
      <point x="732" y="1025"/>
      <point x="692" y="1065" type="curve" smooth="yes"/>
      <point x="652" y="1105"/>
      <point x="632" y="1153"/>
      <point x="632" y="1209" type="curve" smooth="yes"/>
      <point x="632" y="1269"/>
      <point x="652" y="1317"/>
      <point x="692" y="1357" type="curve" smooth="yes"/>
      <point x="732" y="1397"/>
      <point x="780" y="1417"/>
      <point x="836" y="1417" type="curve"/>
      <point x="844" y="1417"/>
      <point x="852" y="1417"/>
      <point x="856" y="1417" type="curve"/>
    </contour>
    <contour>
      <point x="264" y="1093" type="line"/>
      <point x="312" y="1097"/>
      <point x="356" y="1113"/>
      <point x="392" y="1153" type="curve" smooth="yes"/>
      <point x="424" y="1189"/>
      <point x="444" y="1233"/>
      <point x="444" y="1281" type="curve"/>
      <point x="444" y="1333"/>
      <point x="424" y="1377"/>
      <point x="392" y="1413" type="curve" smooth="yes"/>
      <point x="356" y="1449"/>
      <point x="312" y="1469"/>
      <point x="264" y="1469" type="curve"/>
    </contour>
    <contour>
      <point x="140" y="1593" type="line"/>
      <point x="148" y="1593"/>
      <point x="168" y="1593"/>
      <point x="200" y="1593" type="curve" smooth="yes"/>
      <point x="232" y="1597"/>
      <point x="252" y="1597"/>
      <point x="260" y="1597" type="curve"/>
      <point x="344" y="1597"/>
      <point x="416" y="1569"/>
      <point x="476" y="1505" type="curve" smooth="yes"/>
      <point x="536" y="1445"/>
      <point x="564" y="1373"/>
      <point x="564" y="1285" type="curve"/>
      <point x="564" y="1229"/>
      <point x="552" y="1173"/>
      <point x="524" y="1125" type="curve" smooth="yes"/>
      <point x="496" y="1077"/>
      <point x="460" y="1041"/>
      <point x="416" y="1013" type="curve" smooth="yes"/>
      <point x="368" y="985"/>
      <point x="316" y="969"/>
      <point x="264" y="969" type="curve"/>
      <point x="140" y="969" type="line"/>
    </contour>
  </outline>
</glyph>
<glyph name="E" format="2">
  <advance width="2048"/>
  <unicode hex="0045"/>
  <outline>
    <contour>
      <point x="1566" y="357" type="curve" smooth="yes"/>
      <point x="1572" y="357"/>
      <point x="1587" y="357"/>
      <point x="1594" y="356" type="curve" smooth="yes"/>
      <point x="1627" y="351"/>
      <point x="1659" y="333"/>
      <point x="1691" y="302" type="curve" smooth="yes"/>
      <point x="1713" y="279"/>
      <point x="1734" y="252"/>
      <point x="1752" y="221" type="curve" smooth="yes"/>
      <point x="1755" y="217"/>
      <point x="1757" y="212"/>
      <point x="1758" y="210" type="curve" smooth="yes"/>
      <point x="1759" y="209"/>
      <point x="1761" y="205"/>
      <point x="1763" y="202" type="curve" smooth="yes"/>
      <point x="1794" y="144"/>
      <point x="1819" y="76"/>
      <point x="1832" y="14" type="curve" smooth="yes"/>
      <point x="1843" y="-41"/>
      <point x="1844" y="-82"/>
      <point x="1834" y="-123" type="curve" smooth="yes"/>
      <point x="1825" y="-165"/>
      <point x="1806" y="-204"/>
      <point x="1778" y="-237" type="curve" smooth="yes"/>
      <point x="1771" y="-245"/>
      <point x="1754" y="-261"/>
      <point x="1747" y="-268" type="curve" smooth="yes"/>
      <point x="1712" y="-296"/>
      <point x="1673" y="-315"/>
      <point x="1631" y="-324" type="curve" smooth="yes"/>
      <point x="1561" y="-338"/>
      <point x="1490" y="-325"/>
      <point x="1432" y="-286" type="curve" smooth="yes"/>
      <point x="1401" y="-266"/>
      <point x="1373" y="-237"/>
      <point x="1354" y="-207" type="curve" smooth="yes"/>
      <point x="1332" y="-172"/>
      <point x="1320" y="-136"/>
      <point x="1315" y="-92" type="curve" smooth="yes"/>
      <point x="1313" y="-80"/>
      <point x="1313" y="-49"/>
      <point x="1315" y="-34" type="curve" smooth="yes"/>
      <point x="1318" y="-6"/>
      <point x="1323" y="24"/>
      <point x="1331" y="52" type="curve" smooth="yes"/>
      <point x="1353" y="133"/>
      <point x="1390" y="211"/>
      <point x="1433" y="267" type="curve" smooth="yes"/>
      <point x="1461" y="303"/>
      <point x="1490" y="329"/>
      <point x="1521" y="344" type="curve" smooth="yes"/>
      <point x="1536" y="351"/>
      <point x="1549" y="355"/>
    </contour>
    <contour>
      <point x="472" y="1374" type="line"/>
      <point x="472" y="1260" type="line"/>
      <point x="241" y="1260" type="line"/>
      <point x="241" y="1122" type="line"/>
      <point x="553" y="1122" type="line"/>
      <point x="553" y="1008" type="line"/>
      <point x="129" y="1008" type="line"/>
      <point x="129" y="1010" type="line"/>
      <point x="127" y="1010" type="line"/>
      <point x="127" y="1592" type="line"/>
      <point x="127" y="1595" type="line"/>
      <point x="553" y="1595" type="line"/>
      <point x="553" y="1481" type="line"/>
      <point x="241" y="1481" type="line"/>
      <point x="241" y="1374" type="line"/>
    </contour>
    <contour>
      <point x="693" y="1213" type="curve"/>
      <point x="840" y="1211" type="line"/>
      <point x="838" y="1213"/>
      <point x="833" y="1218"/>
      <point x="825" y="1228" type="curve" smooth="yes"/>
      <point x="817" y="1237"/>
      <point x="811" y="1245"/>
      <point x="807" y="1249" type="curve" smooth="yes"/>
      <point x="802" y="1254"/>
      <point x="796" y="1259"/>
      <point x="788" y="1264" type="curve" smooth="yes"/>
      <point x="781" y="1269"/>
      <point x="773" y="1271"/>
      <point x="766" y="1271" type="curve"/>
      <point x="759" y="1271"/>
      <point x="752" y="1269"/>
      <point x="744" y="1264" type="curve" smooth="yes"/>
      <point x="737" y="1260"/>
      <point x="731" y="1255"/>
      <point x="726" y="1250" type="curve" smooth="yes"/>
      <point x="721" y="1245"/>
      <point x="715" y="1238"/>
      <point x="708" y="1229" type="curve" smooth="yes"/>
      <point x="700" y="1221"/>
      <point x="695" y="1215"/>
    </contour>
    <contour>
      <point x="960" y="1185" type="curve"/>
      <point x="960" y="1180"/>
      <point x="960" y="1173"/>
      <point x="960" y="1165" type="curve" smooth="yes"/>
      <point x="960" y="1156"/>
      <point x="960" y="1150"/>
      <point x="960" y="1146" type="curve"/>
      <point x="697" y="1144" type="line"/>
      <point x="704" y="1132"/>
      <point x="714" y="1123"/>
      <point x="726" y="1116" type="curve" smooth="yes"/>
      <point x="738" y="1109"/>
      <point x="752" y="1106"/>
      <point x="766" y="1106" type="curve"/>
      <point x="783" y="1106"/>
      <point x="818" y="1106"/>
      <point x="869" y="1108" type="curve" smooth="yes"/>
      <point x="921" y="1109"/>
      <point x="949" y="1110"/>
      <point x="953" y="1112" type="curve"/>
      <point x="953" y="995" type="line"/>
      <point x="943" y="993"/>
      <point x="881" y="992"/>
      <point x="766" y="992" type="curve"/>
      <point x="713" y="992"/>
      <point x="667" y="1011"/>
      <point x="629" y="1049" type="curve" smooth="yes"/>
      <point x="592" y="1086"/>
      <point x="573" y="1132"/>
      <point x="573" y="1185" type="curve" smooth="yes"/>
      <point x="573" y="1239"/>
      <point x="592" y="1284"/>
      <point x="629" y="1322" type="curve" smooth="yes"/>
      <point x="667" y="1360"/>
      <point x="713" y="1379"/>
      <point x="766" y="1379" type="curve" smooth="yes"/>
      <point x="820" y="1379"/>
      <point x="865" y="1360"/>
      <point x="903" y="1322" type="curve" smooth="yes"/>
      <point x="941" y="1284"/>
      <point x="960" y="1239"/>
    </contour>
  </outline>
</glyph>
<glyph name="F" format="2">
  <advance width="2048"/>
  <unicode hex="0046"/>
  <outline>
    <contour>
      <point x="454" y="1356" type="line"/>
      <point x="455" y="1242" type="line"/>
      <point x="224" y="1242" type="line"/>
      <point x="224" y="992" type="line"/>
      <point x="110" y="992" type="line"/>
      <point x="110" y="1574" type="line"/>
      <point x="110" y="1577" type="line"/>
      <point x="535" y="1577" type="line"/>
      <point x="536" y="1463" type="line"/>
      <point x="224" y="1463" type="line"/>
      <point x="224" y="1356" type="line"/>
    </contour>
    <contour>
      <point x="871" y="1557" type="curve"/>
      <point x="871" y="1431" type="line"/>
      <point x="854" y="1443"/>
      <point x="838" y="1451"/>
      <point x="817" y="1451" type="curve"/>
      <point x="793" y="1451"/>
      <point x="772" y="1442"/>
      <point x="757" y="1422" type="curve"/>
      <point x="757" y="1376" type="line"/>
      <point x="829" y="1376" type="line"/>
      <point x="829" y="1262" type="line"/>
      <point x="757" y="1262" type="line"/>
      <point x="757" y="990" type="line"/>
      <point x="631" y="990" type="line"/>
      <point x="632" y="1262" type="line"/>
      <point x="560" y="1262" type="line"/>
      <point x="560" y="1376" type="line"/>
      <point x="634" y="1376" type="line"/>
      <point x="634" y="1424" type="line"/>
      <point x="646" y="1464"/>
      <point x="668" y="1499"/>
      <point x="701" y="1524" type="curve" smooth="yes"/>
      <point x="736" y="1551"/>
      <point x="773" y="1563"/>
      <point x="817" y="1563" type="curve"/>
      <point x="836" y="1563"/>
      <point x="853" y="1562"/>
    </contour>
    <contour>
      <point x="1105" y="-256" type="curve" smooth="yes"/>
      <point x="1100" y="-257"/>
      <point x="1096" y="-260"/>
      <point x="1094" y="-265" type="curve" smooth="yes"/>
      <point x="1092" y="-268"/>
      <point x="1092" y="-275"/>
      <point x="1094" y="-278" type="curve" smooth="yes"/>
      <point x="1097" y="-284"/>
      <point x="1101" y="-286"/>
      <point x="1107" y="-287" type="curve" smooth="yes"/>
      <point x="1111" y="-287"/>
      <point x="1112" y="-287"/>
      <point x="1114" y="-286" type="curve" smooth="yes"/>
      <point x="1118" y="-284"/>
      <point x="1121" y="-281"/>
      <point x="1123" y="-277" type="curve" smooth="yes"/>
      <point x="1125" y="-271"/>
      <point x="1123" y="-263"/>
      <point x="1119" y="-260" type="curve" smooth="yes"/>
      <point x="1115" y="-256"/>
      <point x="1109" y="-255"/>
    </contour>
    <contour>
      <point x="1083" y="601" type="curve" smooth="yes"/>
      <point x="1077" y="601"/>
      <point x="1065" y="599"/>
      <point x="1060" y="598" type="curve" smooth="yes"/>
      <point x="1024" y="589"/>
      <point x="1001" y="571"/>
      <point x="990" y="545" type="curve" smooth="yes"/>
      <point x="980" y="520"/>
      <point x="981" y="489"/>
      <point x="992" y="457" type="curve" smooth="yes"/>
      <point x="1003" y="426"/>
      <point x="1022" y="395"/>
      <point x="1052" y="358" type="curve" smooth="yes"/>
      <point x="1058" y="352" type="line"/>
      <point x="1054" y="349" type="line" smooth="yes"/>
      <point x="1052" y="346"/>
      <point x="1051" y="345"/>
      <point x="1050" y="345" type="curve" smooth="yes"/>
      <point x="1049" y="345"/>
      <point x="1047" y="345"/>
      <point x="1044" y="345" type="curve" smooth="yes"/>
      <point x="1037" y="344"/>
      <point x="1023" y="343"/>
      <point x="1016" y="344" type="curve" smooth="yes"/>
      <point x="992" y="346"/>
      <point x="971" y="356"/>
      <point x="947" y="374" type="curve" smooth="yes"/>
      <point x="944" y="376"/>
      <point x="936" y="382"/>
      <point x="930" y="387" type="curve" smooth="yes"/>
      <point x="906" y="405"/>
      <point x="895" y="411"/>
      <point x="883" y="411" type="curve" smooth="yes"/>
      <point x="875" y="411"/>
      <point x="869" y="410"/>
      <point x="862" y="405" type="curve" smooth="yes"/>
      <point x="855" y="401"/>
      <point x="842" y="389"/>
      <point x="835" y="380" type="curve" smooth="yes"/>
      <point x="819" y="361"/>
      <point x="809" y="337"/>
      <point x="805" y="308" type="curve" smooth="yes"/>
      <point x="803" y="299"/>
      <point x="803" y="273"/>
      <point x="805" y="264" type="curve" smooth="yes"/>
      <point x="808" y="238"/>
      <point x="818" y="215"/>
      <point x="831" y="200" type="curve" smooth="yes"/>
      <point x="855" y="172"/>
      <point x="900" y="165"/>
      <point x="948" y="181" type="curve" smooth="yes"/>
      <point x="977" y="191"/>
      <point x="1007" y="209"/>
      <point x="1043" y="238" type="curve" smooth="yes"/>
      <point x="1053" y="246" type="line"/>
      <point x="1057" y="243" type="line" smooth="yes"/>
      <point x="1058" y="241"/>
      <point x="1060" y="240"/>
      <point x="1060" y="239" type="curve" smooth="yes"/>
      <point x="1060" y="239"/>
      <point x="1060" y="236"/>
      <point x="1061" y="233" type="curve" smooth="yes"/>
      <point x="1062" y="225"/>
      <point x="1062" y="205"/>
      <point x="1061" y="198" type="curve" smooth="yes"/>
      <point x="1057" y="178"/>
      <point x="1050" y="162"/>
      <point x="1037" y="143" type="curve" smooth="yes"/>
      <point x="1033" y="137"/>
      <point x="1030" y="134"/>
      <point x="1015" y="115" type="curve" smooth="yes"/>
      <point x="1000" y="95"/>
      <point x="994" y="84"/>
      <point x="994" y="71" type="curve" smooth="yes"/>
      <point x="994" y="59"/>
      <point x="1000" y="48"/>
      <point x="1016" y="32" type="curve" smooth="yes"/>
      <point x="1034" y="14"/>
      <point x="1057" y="2"/>
      <point x="1085" y="-4" type="curve" smooth="yes"/>
      <point x="1097" y="-7"/>
      <point x="1102" y="-7"/>
      <point x="1119" y="-7" type="curve" smooth="yes"/>
      <point x="1137" y="-7"/>
      <point x="1143" y="-7"/>
      <point x="1157" y="-3" type="curve" smooth="yes"/>
      <point x="1189" y="5"/>
      <point x="1212" y="20"/>
      <point x="1223" y="43" type="curve" smooth="yes"/>
      <point x="1238" y="71"/>
      <point x="1236" y="112"/>
      <point x="1219" y="151" type="curve" smooth="yes"/>
      <point x="1207" y="178"/>
      <point x="1190" y="205"/>
      <point x="1162" y="238" type="curve" smooth="yes"/>
      <point x="1159" y="242" type="line"/>
      <point x="1162" y="246" type="line" smooth="yes"/>
      <point x="1164" y="248"/>
      <point x="1165" y="249"/>
      <point x="1166" y="249" type="curve" smooth="yes"/>
      <point x="1167" y="249"/>
      <point x="1170" y="249"/>
      <point x="1172" y="249" type="curve" smooth="yes"/>
      <point x="1181" y="251"/>
      <point x="1195" y="251"/>
      <point x="1203" y="250" type="curve" smooth="yes"/>
      <point x="1224" y="247"/>
      <point x="1243" y="239"/>
      <point x="1264" y="225" type="curve" smooth="yes"/>
      <point x="1267" y="222"/>
      <point x="1276" y="216"/>
      <point x="1282" y="210" type="curve" smooth="yes"/>
      <point x="1303" y="194"/>
      <point x="1311" y="189"/>
      <point x="1321" y="185" type="curve" smooth="yes"/>
      <point x="1332" y="181"/>
      <point x="1342" y="182"/>
      <point x="1352" y="188" type="curve" smooth="yes"/>
      <point x="1360" y="192"/>
      <point x="1372" y="203"/>
      <point x="1380" y="212" type="curve" smooth="yes"/>
      <point x="1395" y="229"/>
      <point x="1405" y="252"/>
      <point x="1410" y="275" type="curve" smooth="yes"/>
      <point x="1413" y="290"/>
      <point x="1414" y="310"/>
      <point x="1412" y="325" type="curve" smooth="yes"/>
      <point x="1409" y="355"/>
      <point x="1398" y="382"/>
      <point x="1382" y="398" type="curve" smooth="yes"/>
      <point x="1372" y="408"/>
      <point x="1360" y="415"/>
      <point x="1345" y="418" type="curve" smooth="yes"/>
      <point x="1312" y="427"/>
      <point x="1273" y="419"/>
      <point x="1232" y="397" type="curve" smooth="yes"/>
      <point x="1212" y="386"/>
      <point x="1193" y="373"/>
      <point x="1169" y="353" type="curve" smooth="yes"/>
      <point x="1163" y="347" type="line"/>
      <point x="1160" y="351" type="line" smooth="yes"/>
      <point x="1158" y="353"/>
      <point x="1156" y="354"/>
      <point x="1157" y="355" type="curve" smooth="yes"/>
      <point x="1157" y="355"/>
      <point x="1157" y="357"/>
      <point x="1156" y="359" type="curve" smooth="yes"/>
      <point x="1153" y="375"/>
      <point x="1154" y="392"/>
      <point x="1158" y="408" type="curve" smooth="yes"/>
      <point x="1164" y="428"/>
      <point x="1173" y="443"/>
      <point x="1194" y="470" type="curve" smooth="yes"/>
      <point x="1213" y="494"/>
      <point x="1218" y="502"/>
      <point x="1221" y="512" type="curve" smooth="yes"/>
      <point x="1223" y="518"/>
      <point x="1223" y="526"/>
      <point x="1221" y="531" type="curve" smooth="yes"/>
      <point x="1219" y="540"/>
      <point x="1213" y="549"/>
      <point x="1203" y="559" type="curve" smooth="yes"/>
      <point x="1181" y="583"/>
      <point x="1150" y="597"/>
      <point x="1115" y="601" type="curve" smooth="yes"/>
      <point x="1109" y="602"/>
      <point x="1088" y="602"/>
    </contour>
    <contour>
      <point x="1116" y="350" type="curve" smooth="yes"/>
      <point x="1089" y="354"/>
      <point x="1063" y="337"/>
      <point x="1056" y="310" type="curve" smooth="yes"/>
      <point x="1055" y="306"/>
      <point x="1055" y="304"/>
      <point x="1055" y="297" type="curve" smooth="yes"/>
      <point x="1055" y="290"/>
      <point x="1055" y="288"/>
      <point x="1056" y="284" type="curve" smooth="yes"/>
      <point x="1062" y="263"/>
      <point x="1079" y="248"/>
      <point x="1099" y="244" type="curve" smooth="yes"/>
      <point x="1118" y="241"/>
      <point x="1135" y="247"/>
      <point x="1148" y="261" type="curve" smooth="yes"/>
      <point x="1165" y="279"/>
      <point x="1166" y="308"/>
      <point x="1151" y="329" type="curve" smooth="yes"/>
      <point x="1143" y="340"/>
      <point x="1130" y="348"/>
    </contour>
    <contour>
      <point x="1091" y="672" type="curve" smooth="yes"/>
      <point x="1098" y="673"/>
      <point x="1131" y="672"/>
      <point x="1139" y="671" type="curve" smooth="yes"/>
      <point x="1205" y="665"/>
      <point x="1264" y="645"/>
      <point x="1317" y="609" type="curve" smooth="yes"/>
      <point x="1371" y="573"/>
      <point x="1415" y="523"/>
      <point x="1444" y="465" type="curve" smooth="yes"/>
      <point x="1463" y="427"/>
      <point x="1476" y="385"/>
      <point x="1481" y="343" type="curve" smooth="yes"/>
      <point x="1484" y="322"/>
      <point x="1484" y="291"/>
      <point x="1483" y="271" type="curve" smooth="yes"/>
      <point x="1478" y="208"/>
      <point x="1460" y="151"/>
      <point x="1427" y="99" type="curve" smooth="yes"/>
      <point x="1399" y="54"/>
      <point x="1361" y="15"/>
      <point x="1317" y="-15" type="curve" smooth="yes"/>
      <point x="1284" y="-37"/>
      <point x="1249" y="-53"/>
      <point x="1209" y="-65" type="curve" smooth="yes"/>
      <point x="1201" y="-67"/>
      <point x="1183" y="-71"/>
      <point x="1176" y="-72" type="curve" smooth="yes"/>
      <point x="1173" y="-73" type="line"/>
      <point x="1173" y="-144" type="line"/>
      <point x="1173" y="-215" type="line"/>
      <point x="1230" y="-215" type="line" smooth="yes"/>
      <point x="1278" y="-215"/>
      <point x="1288" y="-216"/>
      <point x="1291" y="-216" type="curve" smooth="yes"/>
      <point x="1314" y="-220"/>
      <point x="1332" y="-238"/>
      <point x="1337" y="-261" type="curve" smooth="yes"/>
      <point x="1338" y="-266"/>
      <point x="1338" y="-269"/>
      <point x="1338" y="-293" type="curve" smooth="yes"/>
      <point x="1338" y="-317"/>
      <point x="1338" y="-319"/>
      <point x="1337" y="-321" type="curve" smooth="yes"/>
      <point x="1336" y="-324"/>
      <point x="1334" y="-326"/>
      <point x="1331" y="-327" type="curve" smooth="yes"/>
      <point x="1330" y="-327"/>
      <point x="1307" y="-327"/>
      <point x="1108" y="-327" type="curve" smooth="yes"/>
      <point x="886" y="-327" type="line"/>
      <point x="884" y="-326" type="line" smooth="yes"/>
      <point x="883" y="-326"/>
      <point x="881" y="-324"/>
      <point x="880" y="-323" type="curve" smooth="yes"/>
      <point x="879" y="-321" type="line"/>
      <point x="879" y="-292" type="line" smooth="yes"/>
      <point x="879" y="-261"/>
      <point x="879" y="-261"/>
      <point x="882" y="-251" type="curve" smooth="yes"/>
      <point x="885" y="-245"/>
      <point x="888" y="-239"/>
      <point x="894" y="-233" type="curve" smooth="yes"/>
      <point x="901" y="-226"/>
      <point x="907" y="-222"/>
      <point x="916" y="-218" type="curve" smooth="yes"/>
      <point x="925" y="-215"/>
      <point x="924" y="-215"/>
      <point x="986" y="-215" type="curve" smooth="yes"/>
      <point x="1044" y="-215" type="line"/>
      <point x="1044" y="-144" type="line"/>
      <point x="1044" y="-73" type="line"/>
      <point x="1036" y="-71" type="line" smooth="yes"/>
      <point x="1012" y="-67"/>
      <point x="987" y="-59"/>
      <point x="964" y="-50" type="curve" smooth="yes"/>
      <point x="880" y="-15"/>
      <point x="811" y="50"/>
      <point x="771" y="131" type="curve" smooth="yes"/>
      <point x="752" y="169"/>
      <point x="741" y="208"/>
      <point x="735" y="251" type="curve" smooth="yes"/>
      <point x="733" y="268"/>
      <point x="733" y="276"/>
      <point x="733" y="298" type="curve" smooth="yes"/>
      <point x="733" y="319"/>
      <point x="733" y="328"/>
      <point x="736" y="346" type="curve" smooth="yes"/>
      <point x="750" y="452"/>
      <point x="808" y="547"/>
      <point x="898" y="608" type="curve" smooth="yes"/>
      <point x="951" y="645"/>
      <point x="1016" y="667"/>
      <point x="1081" y="672" type="curve" smooth="yes"/>
      <point x="1085" y="672"/>
      <point x="1090" y="672"/>
    </contour>
  </outline>
</glyph>
<glyph name="I" format="2">
  <advance width="2048"/>
  <unicode hex="0049"/>
  <outline>
    <contour>
      <point x="270" y="1651" type="line"/>
      <point x="270" y="1021" type="line"/>
      <point x="389" y="1021" type="line"/>
      <point x="389" y="1651" type="line"/>
    </contour>
    <contour>
      <point x="700" y="1660" type="line"/>
      <point x="700" y="1545" type="line"/>
      <point x="819" y="1545" type="line"/>
      <point x="819" y="1660" type="line"/>
    </contour>
    <contour>
      <point x="700" y="1436" type="line"/>
      <point x="700" y="1021" type="line"/>
      <point x="821" y="1021" type="line"/>
      <point x="821" y="1436" type="line"/>
    </contour>
    <contour>
      <point x="139" y="1683" type="line"/>
      <point x="139" y="1533" type="line"/>
      <point x="545" y="1533" type="line"/>
      <point x="545" y="1683" type="line"/>
    </contour>
    <contour>
      <point x="131" y="1168" type="line"/>
      <point x="131" y="1018" type="line"/>
      <point x="537" y="1018" type="line"/>
      <point x="537" y="1168" type="line"/>
    </contour>
    <contour>
      <point x="971" y="21" type="curve"/>
      <point x="998" y="-4"/>
      <point x="984" y="-18"/>
      <point x="1012" y="-24" type="curve" smooth="yes"/>
      <point x="1053" y="-32"/>
      <point x="1061" y="55"/>
      <point x="1052" y="87" type="curve" smooth="yes"/>
      <point x="1042" y="123"/>
      <point x="1045" y="172"/>
      <point x="1080" y="168" type="curve" smooth="yes"/>
      <point x="1115" y="164"/>
      <point x="1107" y="50"/>
      <point x="1109" y="3" type="curve" smooth="yes"/>
      <point x="1111" y="-44"/>
      <point x="1119" y="-41"/>
      <point x="1117" y="-59" type="curve" smooth="yes"/>
      <point x="1115" y="-76"/>
      <point x="1177" y="-49"/>
      <point x="1222" y="-45" type="curve" smooth="yes"/>
      <point x="1267" y="-42"/>
      <point x="1305" y="-93"/>
      <point x="1359" y="-74" type="curve" smooth="yes"/>
      <point x="1413" y="-54"/>
      <point x="1536" y="-76"/>
      <point x="1610" y="-74" type="curve" smooth="yes"/>
      <point x="1683" y="-72"/>
      <point x="1768" y="-59"/>
      <point x="1846" y="-46" type="curve" smooth="yes"/>
      <point x="1924" y="-32"/>
      <point x="1890" y="38"/>
      <point x="1877" y="106" type="curve" smooth="yes"/>
      <point x="1863" y="183"/>
      <point x="1862" y="209"/>
      <point x="1811" y="327" type="curve" smooth="yes"/>
      <point x="1761" y="445"/>
      <point x="1771" y="423"/>
      <point x="1693" y="483" type="curve" smooth="yes"/>
      <point x="1615" y="543"/>
      <point x="1489" y="535"/>
      <point x="1441" y="541" type="curve" smooth="yes"/>
      <point x="1392" y="546"/>
      <point x="1266" y="496"/>
      <point x="1239" y="467" type="curve" smooth="yes"/>
      <point x="1211" y="438"/>
      <point x="1125" y="306"/>
      <point x="1119" y="306" type="curve" smooth="yes"/>
      <point x="1113" y="306"/>
      <point x="1006" y="289"/>
      <point x="996" y="269" type="curve" smooth="yes"/>
      <point x="986" y="250"/>
      <point x="946" y="60"/>
    </contour>
    <contour>
      <point x="1221" y="427" type="line"/>
      <point x="1761" y="427" type="line"/>
      <point x="1761" y="408" type="line"/>
      <point x="1221" y="408" type="line"/>
    </contour>
    <contour>
      <point x="1160" y="323" type="line"/>
      <point x="1792" y="323" type="line"/>
      <point x="1792" y="304" type="line"/>
      <point x="1160" y="304" type="line"/>
    </contour>
    <contour>
      <point x="1202" y="197" type="line"/>
      <point x="1848" y="197" type="line"/>
      <point x="1848" y="178" type="line"/>
      <point x="1202" y="178" type="line"/>
    </contour>
    <contour>
      <point x="1243" y="64" type="line"/>
      <point x="1860" y="64" type="line"/>
      <point x="1860" y="45" type="line"/>
      <point x="1243" y="45" type="line"/>
    </contour>
    <contour>
      <point x="1114" y="122" type="line"/>
      <point x="1192" y="122" type="line"/>
      <point x="1192" y="103" type="line"/>
      <point x="1114" y="103" type="line"/>
    </contour>
    <contour>
      <point x="998" y="239" type="line"/>
      <point x="1175" y="236" type="line"/>
      <point x="1175" y="217" type="line"/>
      <point x="1006" y="217" type="line"/>
    </contour>
    <contour>
      <point x="1117" y="4" type="line"/>
      <point x="1211" y="4" type="line"/>
      <point x="1211" y="-16" type="line"/>
      <point x="1117" y="-16" type="line"/>
    </contour>
    <contour>
      <point x="979" y="171" type="line"/>
      <point x="1039" y="171" type="line"/>
      <point x="1039" y="151" type="line"/>
      <point x="979" y="151" type="line"/>
    </contour>
    <contour>
      <point x="971" y="74" type="line"/>
      <point x="1044" y="74" type="line"/>
      <point x="1044" y="54" type="line"/>
      <point x="971" y="54" type="line"/>
    </contour>
    <contour>
      <point x="1349" y="519" type="line"/>
      <point x="1368" y="519" type="line"/>
      <point x="1368" y="425" type="line"/>
      <point x="1349" y="425" type="line"/>
    </contour>
    <contour>
      <point x="1485" y="527" type="line"/>
      <point x="1504" y="527" type="line"/>
      <point x="1504" y="432" type="line"/>
      <point x="1485" y="432" type="line"/>
    </contour>
    <contour>
      <point x="1630" y="501" type="line"/>
      <point x="1654" y="497" type="line"/>
      <point x="1654" y="427" type="line"/>
      <point x="1635" y="427" type="line"/>
    </contour>
    <contour>
      <point x="1262" y="403" type="line"/>
      <point x="1282" y="404" type="line"/>
      <point x="1282" y="325" type="line"/>
      <point x="1262" y="324" type="line"/>
    </contour>
    <contour>
      <point x="1395" y="399" type="line"/>
      <point x="1414" y="399" type="line"/>
      <point x="1414" y="326" type="line"/>
      <point x="1395" y="326" type="line"/>
    </contour>
    <contour>
      <point x="1540" y="399" type="line"/>
      <point x="1564" y="395" type="line"/>
      <point x="1564" y="321" type="line"/>
      <point x="1545" y="321" type="line"/>
    </contour>
    <contour>
      <point x="1356" y="305" type="line"/>
      <point x="1375" y="305" type="line"/>
      <point x="1375" y="199" type="line"/>
      <point x="1356" y="199" type="line"/>
    </contour>
    <contour>
      <point x="1494" y="295" type="line"/>
      <point x="1513" y="295" type="line"/>
      <point x="1513" y="200" type="line"/>
      <point x="1494" y="200" type="line"/>
    </contour>
    <contour>
      <point x="1637" y="299" type="line"/>
      <point x="1661" y="295" type="line"/>
      <point x="1661" y="214" type="line"/>
      <point x="1642" y="214" type="line"/>
    </contour>
    <contour>
      <point x="1271" y="174" type="line"/>
      <point x="1290" y="174" type="line"/>
      <point x="1290" y="79" type="line"/>
      <point x="1271" y="79" type="line"/>
    </contour>
    <contour>
      <point x="1406" y="165" type="line"/>
      <point x="1425" y="165" type="line"/>
      <point x="1425" y="87" type="line"/>
      <point x="1406" y="87" type="line"/>
    </contour>
    <contour>
      <point x="1551" y="162" type="line"/>
      <point x="1575" y="158" type="line"/>
      <point x="1575" y="82" type="line"/>
      <point x="1556" y="82" type="line"/>
    </contour>
    <contour>
      <point x="1703" y="171" type="line"/>
      <point x="1722" y="171" type="line"/>
      <point x="1722" y="77" type="line"/>
      <point x="1703" y="77" type="line"/>
    </contour>
    <contour>
      <point x="1839" y="179" type="line"/>
      <point x="1858" y="179" type="line"/>
      <point x="1858" y="84" type="line"/>
      <point x="1839" y="84" type="line"/>
    </contour>
    <contour>
      <point x="1712" y="397" type="line"/>
      <point x="1736" y="393" type="line"/>
      <point x="1736" y="327" type="line"/>
      <point x="1717" y="327" type="line"/>
    </contour>
    <contour>
      <point x="1371" y="43" type="line"/>
      <point x="1390" y="43" type="line"/>
      <point x="1390" y="-52" type="line"/>
      <point x="1371" y="-52" type="line"/>
    </contour>
    <contour>
      <point x="1508" y="35" type="line"/>
      <point x="1527" y="35" type="line"/>
      <point x="1527" y="-60" type="line"/>
      <point x="1508" y="-60" type="line"/>
    </contour>
    <contour>
      <point x="1650" y="42" type="line"/>
      <point x="1680" y="38" type="line"/>
      <point x="1680" y="-57" type="line"/>
      <point x="1655" y="-58" type="line"/>
    </contour>
    <contour>
      <point x="1790" y="45" type="line"/>
      <point x="1814" y="40" type="line"/>
      <point x="1814" y="-54" type="line"/>
      <point x="1795" y="-54" type="line"/>
    </contour>
    <contour>
      <point x="1773" y="301" type="line"/>
      <point x="1797" y="296" type="line"/>
      <point x="1797" y="202" type="line"/>
      <point x="1778" y="202" type="line"/>
    </contour>
  </outline>
</glyph>
<glyph name="L" format="2">
  <advance width="2048"/>
  <unicode hex="004C"/>
  <outline>
    <contour>
      <point x="1551" y="839" type="curve" smooth="yes"/>
      <point x="1551" y="825"/>
      <point x="1499" y="814"/>
      <point x="1436" y="814" type="curve" smooth="yes"/>
      <point x="1372" y="814"/>
      <point x="1320" y="825"/>
      <point x="1320" y="839" type="curve" smooth="yes"/>
      <point x="1320" y="852"/>
      <point x="1372" y="863"/>
      <point x="1436" y="863" type="curve" smooth="yes"/>
      <point x="1499" y="863"/>
      <point x="1551" y="852"/>
    </contour>
    <contour>
      <point x="1714" y="422" type="curve" smooth="yes"/>
      <point x="1714" y="446"/>
      <point x="1593" y="469"/>
      <point x="1451" y="469" type="curve" smooth="yes"/>
      <point x="1309" y="469"/>
      <point x="1198" y="445"/>
      <point x="1198" y="421" type="curve" smooth="yes"/>
      <point x="1198" y="396"/>
      <point x="1315" y="375"/>
      <point x="1457" y="375" type="curve" smooth="yes"/>
      <point x="1599" y="375"/>
      <point x="1714" y="398"/>
    </contour>
    <contour>
      <point x="1320" y="837" type="line"/>
      <point x="1199" y="421" type="line"/>
      <point x="1714" y="424" type="line"/>
      <point x="1553" y="837" type="line"/>
    </contour>
    <contour>
      <point x="1417" y="433" type="line"/>
      <point x="1417" y="168" type="line"/>
      <point x="1507" y="168" type="line"/>
      <point x="1507" y="433" type="line"/>
    </contour>
    <contour>
      <point x="1344" y="197" type="line"/>
      <point x="1344" y="31" type="line"/>
      <point x="1577" y="29" type="line"/>
      <point x="1577" y="195" type="line"/>
    </contour>
    <contour>
      <point x="1553" y="829" type="curve" smooth="yes"/>
      <point x="1553" y="815"/>
      <point x="1501" y="804"/>
      <point x="1438" y="804" type="curve" smooth="yes"/>
      <point x="1374" y="804"/>
      <point x="1320" y="819"/>
      <point x="1320" y="833" type="curve" smooth="yes"/>
      <point x="1320" y="846"/>
      <point x="1374" y="837"/>
      <point x="1438" y="837" type="curve" smooth="yes"/>
      <point x="1501" y="837"/>
      <point x="1553" y="842"/>
    </contour>
    <contour>
      <point x="1417" y="433" type="line"/>
      <point x="1417" y="168" type="line"/>
      <point x="1507" y="168" type="line"/>
      <point x="1507" y="433" type="line"/>
    </contour>
    <contour>
      <point x="98" y="1785" type="line"/>
      <point x="98" y="1009" type="line"/>
      <point x="99" y="1009" type="line"/>
      <point x="99" y="1008" type="line"/>
      <point x="716" y="1008" type="line"/>
      <point x="715" y="1160" type="line"/>
      <point x="250" y="1160" type="line"/>
      <point x="250" y="1785" type="line"/>
    </contour>
    <contour>
      <point x="1109" y="1023" type="curve"/>
      <point x="1109" y="1191" type="line"/>
      <point x="1088" y="1173"/>
      <point x="1065" y="1165"/>
      <point x="1038" y="1165" type="curve"/>
      <point x="1005" y="1165"/>
      <point x="978" y="1177"/>
      <point x="957" y="1202" type="curve"/>
      <point x="957" y="1778" type="line"/>
      <point x="790" y="1778" type="line"/>
      <point x="793" y="1201" type="line"/>
      <point x="809" y="1145"/>
      <point x="839" y="1100"/>
      <point x="884" y="1066" type="curve" smooth="yes"/>
      <point x="929" y="1031"/>
      <point x="980" y="1014"/>
      <point x="1038" y="1014" type="curve"/>
      <point x="1063" y="1014"/>
      <point x="1086" y="1017"/>
    </contour>
  </outline>
</glyph>
<glyph name="M" format="2">
  <advance width="2048"/>
  <unicode hex="004D"/>
  <outline>
    <contour>
      <point x="96" y="1765" type="line"/>
      <point x="96" y="995" type="line"/>
      <point x="248" y="995" type="line"/>
      <point x="248" y="1473" type="line"/>
      <point x="496" y="997" type="line"/>
      <point x="648" y="997" type="line"/>
      <point x="896" y="1473" type="line"/>
      <point x="896" y="995" type="line"/>
      <point x="1048" y="995" type="line"/>
      <point x="1048" y="1765" type="line"/>
      <point x="896" y="1765" type="line"/>
      <point x="572" y="1143" type="line"/>
      <point x="248" y="1765" type="line"/>
    </contour>
    <contour>
      <point x="1110" y="1544" type="line"/>
      <point x="1110" y="1028" type="line"/>
      <point x="1279" y="1028" type="line"/>
      <point x="1279" y="1360" type="line"/>
      <point x="1300" y="1383"/>
      <point x="1327" y="1395"/>
      <point x="1359" y="1395" type="curve"/>
      <point x="1392" y="1395"/>
      <point x="1419" y="1383"/>
      <point x="1440" y="1358" type="curve"/>
      <point x="1440" y="1345" type="line"/>
      <point x="1437" y="1028" type="line"/>
      <point x="1440" y="1028" type="line"/>
      <point x="1606" y="1028" type="line"/>
      <point x="1607" y="1028" type="line"/>
      <point x="1606" y="1138" type="line"/>
      <point x="1606" y="1360" type="line"/>
      <point x="1627" y="1383"/>
      <point x="1654" y="1395"/>
      <point x="1686" y="1395" type="curve"/>
      <point x="1719" y="1395"/>
      <point x="1746" y="1383"/>
      <point x="1767" y="1358" type="curve"/>
      <point x="1767" y="1028" type="line"/>
      <point x="1934" y="1028" type="line"/>
      <point x="1931" y="1359" type="line"/>
      <point x="1915" y="1414"/>
      <point x="1885" y="1459"/>
      <point x="1840" y="1494" type="curve" smooth="yes"/>
      <point x="1795" y="1529"/>
      <point x="1744" y="1546"/>
      <point x="1686" y="1546" type="curve"/>
      <point x="1659" y="1546"/>
      <point x="1632" y="1542"/>
      <point x="1606" y="1534" type="curve"/>
      <point x="1518" y="1490" type="line"/>
      <point x="1472" y="1527"/>
      <point x="1419" y="1546"/>
      <point x="1359" y="1546" type="curve"/>
      <point x="1332" y="1546"/>
      <point x="1305" y="1542"/>
      <point x="1279" y="1534" type="curve"/>
      <point x="1279" y="1544" type="line"/>
    </contour>
    <contour>
      <point x="1328" y="503" type="curve" smooth="yes"/>
      <point x="1328" y="522"/>
      <point x="1306" y="538"/>
      <point x="1280" y="538" type="curve" smooth="yes"/>
      <point x="1253" y="538"/>
      <point x="1231" y="522"/>
      <point x="1231" y="503" type="curve" smooth="yes"/>
      <point x="1231" y="483"/>
      <point x="1254" y="451"/>
      <point x="1281" y="451" type="curve" smooth="yes"/>
      <point x="1307" y="451"/>
      <point x="1328" y="483"/>
    </contour>
    <contour>
      <point x="1570" y="503" type="curve" smooth="yes"/>
      <point x="1570" y="522"/>
      <point x="1548" y="538"/>
      <point x="1522" y="538" type="curve" smooth="yes"/>
      <point x="1495" y="538"/>
      <point x="1473" y="522"/>
      <point x="1473" y="503" type="curve" smooth="yes"/>
      <point x="1473" y="483"/>
      <point x="1496" y="453"/>
      <point x="1523" y="453" type="curve" smooth="yes"/>
      <point x="1549" y="453"/>
      <point x="1570" y="483"/>
    </contour>
    <contour>
      <point x="1875" y="448" type="curve" smooth="yes"/>
      <point x="1875" y="503"/>
      <point x="1837" y="547"/>
      <point x="1791" y="547" type="curve" smooth="yes"/>
      <point x="1780" y="547"/>
      <point x="1769" y="544"/>
      <point x="1759" y="540" type="curve"/>
      <point x="1695" y="669"/>
      <point x="1558" y="758"/>
      <point x="1400" y="758" type="curve" smooth="yes"/>
      <point x="1232" y="758"/>
      <point x="1088" y="657"/>
      <point x="1030" y="515" type="curve"/>
      <point x="1018" y="522"/>
      <point x="1005" y="526"/>
      <point x="991" y="526" type="curve" smooth="yes"/>
      <point x="944" y="526"/>
      <point x="906" y="481"/>
      <point x="906" y="427" type="curve" smooth="yes"/>
      <point x="906" y="372"/>
      <point x="944" y="327"/>
      <point x="991" y="327" type="curve" smooth="yes"/>
      <point x="996" y="327"/>
      <point x="1001" y="328"/>
      <point x="1006" y="329" type="curve"/>
      <point x="1030" y="140"/>
      <point x="1197" y="-6"/>
      <point x="1400" y="-6" type="curve" smooth="yes"/>
      <point x="1610" y="-6"/>
      <point x="1781" y="150"/>
      <point x="1796" y="348" type="curve"/>
      <point x="1840" y="351"/>
      <point x="1875" y="395"/>
    </contour>
    <contour>
      <point x="1652" y="617" type="curve"/>
      <point x="1639" y="468"/>
      <point x="1621" y="370"/>
      <point x="1623" y="348" type="curve" smooth="yes"/>
      <point x="1626" y="320"/>
      <point x="1696" y="130"/>
      <point x="1657" y="116" type="curve" smooth="yes"/>
      <point x="1639" y="109"/>
      <point x="1520" y="49"/>
      <point x="1410" y="52" type="curve" smooth="yes"/>
      <point x="1288" y="56"/>
      <point x="1146" y="138"/>
      <point x="1143" y="150" type="curve" smooth="yes"/>
      <point x="1137" y="173"/>
      <point x="1187" y="300"/>
      <point x="1186" y="345" type="curve" smooth="yes"/>
      <point x="1185" y="393"/>
      <point x="1132" y="625"/>
      <point x="1164" y="621" type="curve" smooth="yes"/>
      <point x="1196" y="617"/>
      <point x="1332" y="579"/>
      <point x="1384" y="578" type="curve" smooth="yes"/>
      <point x="1436" y="577"/>
      <point x="1624" y="638"/>
    </contour>
    <contour>
      <point x="1465" y="332" type="curve" smooth="yes"/>
      <point x="1465" y="340"/>
      <point x="1445" y="347"/>
      <point x="1420" y="347" type="curve" smooth="yes"/>
      <point x="1395" y="347"/>
      <point x="1375" y="340"/>
      <point x="1375" y="332" type="curve" smooth="yes"/>
      <point x="1375" y="324"/>
      <point x="1395" y="317"/>
      <point x="1420" y="317" type="curve" smooth="yes"/>
      <point x="1445" y="317"/>
      <point x="1465" y="324"/>
    </contour>
    <contour>
      <point x="1611" y="198" type="curve" smooth="yes"/>
      <point x="1611" y="219"/>
      <point x="1525" y="236"/>
      <point x="1420" y="236" type="curve" smooth="yes"/>
      <point x="1315" y="236"/>
      <point x="1229" y="219"/>
      <point x="1229" y="198" type="curve" smooth="yes"/>
      <point x="1229" y="176"/>
      <point x="1315" y="159"/>
      <point x="1420" y="159" type="curve" smooth="yes"/>
      <point x="1525" y="159"/>
      <point x="1611" y="176"/>
    </contour>
    <contour>
      <point x="1013" y="423" type="curve" smooth="yes"/>
      <point x="1013" y="389"/>
      <point x="998" y="361"/>
      <point x="981" y="361" type="curve" smooth="yes"/>
      <point x="963" y="361"/>
      <point x="948" y="389"/>
      <point x="948" y="423" type="curve" smooth="yes"/>
      <point x="948" y="456"/>
      <point x="963" y="484"/>
      <point x="981" y="484" type="curve" smooth="yes"/>
      <point x="998" y="484"/>
      <point x="1013" y="456"/>
    </contour>
    <contour>
      <point x="1834" y="442" type="curve" smooth="yes"/>
      <point x="1834" y="406"/>
      <point x="1818" y="377"/>
      <point x="1798" y="377" type="curve" smooth="yes"/>
      <point x="1777" y="377"/>
      <point x="1761" y="406"/>
      <point x="1761" y="442" type="curve" smooth="yes"/>
      <point x="1761" y="477"/>
      <point x="1777" y="506"/>
      <point x="1798" y="506" type="curve" smooth="yes"/>
      <point x="1818" y="506"/>
      <point x="1834" y="477"/>
    </contour>
  </outline>
</glyph>
<glyph name="N" format="2">
  <advance width="2048"/>
  <unicode hex="004E"/>
  <outline>
    <contour>
      <point x="57" y="1785" type="line"/>
      <point x="57" y="1009" type="line"/>
      <point x="209" y="1009" type="line"/>
      <point x="209" y="1534" type="line"/>
      <point x="657" y="1009" type="line"/>
      <point x="809" y="1009" type="line"/>
      <point x="809" y="1785" type="line"/>
      <point x="657" y="1785" type="line"/>
      <point x="657" y="1262" type="line"/>
      <point x="209" y="1785" type="line"/>
    </contour>
    <contour>
      <point x="861" y="1527" type="line"/>
      <point x="861" y="1011" type="line"/>
      <point x="1030" y="1011" type="line"/>
      <point x="1030" y="1343" type="line"/>
      <point x="1051" y="1366"/>
      <point x="1078" y="1378"/>
      <point x="1110" y="1378" type="curve"/>
      <point x="1143" y="1378"/>
      <point x="1170" y="1365"/>
      <point x="1191" y="1341" type="curve"/>
      <point x="1191" y="1011" type="line"/>
      <point x="1358" y="1011" type="line"/>
      <point x="1355" y="1342" type="line"/>
      <point x="1339" y="1397"/>
      <point x="1309" y="1442"/>
      <point x="1264" y="1477" type="curve" smooth="yes"/>
      <point x="1219" y="1511"/>
      <point x="1168" y="1529"/>
      <point x="1110" y="1529" type="curve"/>
      <point x="1083" y="1529"/>
      <point x="1056" y="1525"/>
      <point x="1030" y="1517" type="curve"/>
      <point x="1030" y="1527" type="line"/>
    </contour>
    <contour>
      <point x="1227" y="317" type="curve"/>
      <point x="1118" y="267" type="line"/>
      <point x="1038" y="213"/>
      <point x="1089" y="201"/>
      <point x="1087" y="138" type="curve" smooth="yes"/>
      <point x="1086" y="132"/>
      <point x="1086" y="126"/>
      <point x="1086" y="121" type="curve" smooth="yes"/>
      <point x="1083" y="70"/>
      <point x="1201" y="37"/>
      <point x="1254" y="30" type="curve" smooth="yes"/>
      <point x="1307" y="23"/>
      <point x="1411" y="-18"/>
      <point x="1459" y="-18" type="curve" smooth="yes"/>
      <point x="1507" y="-18"/>
      <point x="1547" y="32"/>
      <point x="1601" y="32" type="curve" smooth="yes"/>
      <point x="1611" y="32"/>
      <point x="1625" y="31"/>
      <point x="1639" y="29" type="curve" smooth="yes"/>
      <point x="1699" y="24"/>
      <point x="1781" y="16"/>
      <point x="1781" y="87" type="curve" smooth="yes"/>
      <point x="1781" y="175"/>
      <point x="1758" y="225"/>
      <point x="1740" y="239" type="curve" smooth="yes"/>
      <point x="1722" y="253"/>
      <point x="1686" y="270"/>
      <point x="1643" y="301" type="curve" smooth="yes"/>
      <point x="1632" y="309"/>
      <point x="1540" y="399"/>
      <point x="1530" y="406" type="curve"/>
      <point x="1501" y="852" type="line"/>
      <point x="1400" y="859" type="line"/>
      <point x="1340" y="384" type="line"/>
      <point x="1306" y="377"/>
      <point x="1305" y="326"/>
    </contour>
    <contour>
      <point x="1371" y="27" type="curve" smooth="yes"/>
      <point x="1371" y="9"/>
      <point x="1296" y="62"/>
      <point x="1234" y="62" type="curve" smooth="yes"/>
      <point x="1172" y="62"/>
      <point x="1122" y="77"/>
      <point x="1122" y="95" type="curve" smooth="yes"/>
      <point x="1122" y="113"/>
      <point x="1172" y="128"/>
      <point x="1234" y="128" type="curve" smooth="yes"/>
      <point x="1296" y="128"/>
      <point x="1371" y="45"/>
    </contour>
    <contour>
      <point x="1762" y="91" type="curve" smooth="yes"/>
      <point x="1762" y="73"/>
      <point x="1706" y="59"/>
      <point x="1637" y="59" type="curve" smooth="yes"/>
      <point x="1568" y="59"/>
      <point x="1517" y="18"/>
      <point x="1517" y="36" type="curve" smooth="yes"/>
      <point x="1517" y="54"/>
      <point x="1568" y="123"/>
      <point x="1637" y="123" type="curve" smooth="yes"/>
      <point x="1706" y="123"/>
      <point x="1762" y="109"/>
    </contour>
    <contour>
      <point x="1343" y="146" type="curve" smooth="yes"/>
      <point x="1343" y="221"/>
      <point x="1344" y="382"/>
      <point x="1348" y="381" type="curve" smooth="yes"/>
      <point x="1354" y="380"/>
      <point x="1350" y="237"/>
      <point x="1351" y="141" type="curve" smooth="yes"/>
      <point x="1351" y="66"/>
      <point x="1411" y="-3"/>
      <point x="1408" y="-6" type="curve" smooth="yes"/>
      <point x="1400" y="-14"/>
      <point x="1343" y="70"/>
    </contour>
    <contour>
      <point x="1515" y="136" type="curve" smooth="yes"/>
      <point x="1515" y="54"/>
      <point x="1507" y="-10"/>
      <point x="1504" y="-9" type="curve" smooth="yes"/>
      <point x="1497" y="-7"/>
      <point x="1509" y="115"/>
      <point x="1509" y="136" type="curve" smooth="yes"/>
      <point x="1509" y="218"/>
      <point x="1522" y="397"/>
      <point x="1525" y="396" type="curve" smooth="yes"/>
      <point x="1536" y="393"/>
      <point x="1515" y="218"/>
    </contour>
  </outline>
</glyph>
<glyph name="O" format="2">
  <advance width="2048"/>
  <unicode hex="004F"/>
  <outline>
    <contour>
      <point x="1401" y="662" type="curve"/>
      <point x="1397" y="615"/>
      <point x="1415" y="623"/>
      <point x="1399" y="568" type="curve" smooth="yes"/>
      <point x="1385" y="512"/>
      <point x="1415" y="498"/>
      <point x="1367" y="461" type="curve" smooth="yes"/>
      <point x="1319" y="425"/>
      <point x="1297" y="381"/>
      <point x="1282" y="451" type="curve" smooth="yes"/>
      <point x="1267" y="520"/>
      <point x="1297" y="594"/>
      <point x="1267" y="579" type="curve" smooth="yes"/>
      <point x="1238" y="564"/>
      <point x="1223" y="556"/>
      <point x="1230" y="518" type="curve" smooth="yes"/>
      <point x="1233" y="494"/>
      <point x="1231" y="489"/>
      <point x="1246" y="446" type="curve" smooth="yes"/>
      <point x="1258" y="406"/>
      <point x="1249" y="340"/>
      <point x="1297" y="347" type="curve" smooth="yes"/>
      <point x="1345" y="355"/>
      <point x="1380" y="421"/>
      <point x="1392" y="425" type="curve" smooth="yes"/>
      <point x="1401" y="427"/>
      <point x="1419" y="451"/>
      <point x="1415" y="377" type="curve" smooth="yes"/>
      <point x="1411" y="303"/>
      <point x="1371" y="292"/>
      <point x="1345" y="273" type="curve" smooth="yes"/>
      <point x="1319" y="255"/>
      <point x="1345" y="269"/>
      <point x="1271" y="266" type="curve" smooth="yes"/>
      <point x="1198" y="262"/>
      <point x="1197" y="252"/>
      <point x="1200" y="221" type="curve" smooth="yes"/>
      <point x="1204" y="192"/>
      <point x="1230" y="115"/>
      <point x="1267" y="122" type="curve" smooth="yes"/>
      <point x="1304" y="130"/>
      <point x="1200" y="217"/>
      <point x="1259" y="224" type="curve" smooth="yes"/>
      <point x="1319" y="230"/>
      <point x="1382" y="208"/>
      <point x="1407" y="225" type="curve" smooth="yes"/>
      <point x="1433" y="244"/>
      <point x="1481" y="368"/>
      <point x="1481" y="357" type="curve"/>
      <point x="1499" y="203" type="line"/>
      <point x="1522" y="148"/>
      <point x="1507" y="130"/>
      <point x="1559" y="112" type="curve" smooth="yes"/>
      <point x="1610" y="93"/>
      <point x="1602" y="115"/>
      <point x="1635" y="115" type="curve" smooth="yes"/>
      <point x="1668" y="115"/>
      <point x="1739" y="126"/>
      <point x="1713" y="157" type="curve" smooth="yes"/>
      <point x="1687" y="185"/>
      <point x="1655" y="168"/>
      <point x="1616" y="150" type="curve" smooth="yes"/>
      <point x="1583" y="136"/>
      <point x="1574" y="153"/>
      <point x="1551" y="205" type="curve" smooth="yes"/>
      <point x="1529" y="257"/>
      <point x="1547" y="295"/>
      <point x="1547" y="321" type="curve" smooth="yes"/>
      <point x="1547" y="347"/>
      <point x="1547" y="365"/>
      <point x="1587" y="355" type="curve" smooth="yes"/>
      <point x="1628" y="343"/>
      <point x="1591" y="351"/>
      <point x="1646" y="303" type="curve" smooth="yes"/>
      <point x="1702" y="255"/>
      <point x="1698" y="241"/>
      <point x="1739" y="225" type="curve" smooth="yes"/>
      <point x="1779" y="211"/>
      <point x="1804" y="193"/>
      <point x="1819" y="218" type="curve" smooth="yes"/>
      <point x="1835" y="244"/>
      <point x="1867" y="289"/>
      <point x="1856" y="313" type="curve"/>
      <point x="1783" y="288" type="line"/>
      <point x="1805" y="303"/>
      <point x="1787" y="252"/>
      <point x="1735" y="303" type="curve" smooth="yes"/>
      <point x="1684" y="355"/>
      <point x="1672" y="348"/>
      <point x="1658" y="392" type="curve"/>
      <point x="1691" y="432" type="line"/>
      <point x="1750" y="429"/>
      <point x="1761" y="391"/>
      <point x="1790" y="421" type="curve" smooth="yes"/>
      <point x="1819" y="451"/>
      <point x="1850" y="487"/>
      <point x="1835" y="528" type="curve" smooth="yes"/>
      <point x="1819" y="568"/>
      <point x="1809" y="598"/>
      <point x="1794" y="561" type="curve" smooth="yes"/>
      <point x="1779" y="524"/>
      <point x="1782" y="486"/>
      <point x="1771" y="479" type="curve" smooth="yes"/>
      <point x="1761" y="472"/>
      <point x="1719" y="495"/>
      <point x="1668" y="490" type="curve" smooth="yes"/>
      <point x="1649" y="489"/>
      <point x="1635" y="465"/>
      <point x="1632" y="539" type="curve" smooth="yes"/>
      <point x="1628" y="612"/>
      <point x="1636" y="646"/>
      <point x="1617" y="675" type="curve" smooth="yes"/>
      <point x="1601" y="699"/>
      <point x="1595" y="709"/>
      <point x="1559" y="715" type="curve" smooth="yes"/>
      <point x="1531" y="720"/>
      <point x="1439" y="727"/>
    </contour>
    <contour>
      <point x="1511" y="608" type="curve" smooth="yes"/>
      <point x="1511" y="594"/>
      <point x="1499" y="582"/>
      <point x="1483" y="582" type="curve" smooth="yes"/>
      <point x="1467" y="582"/>
      <point x="1455" y="594"/>
      <point x="1455" y="608" type="curve" smooth="yes"/>
      <point x="1455" y="622"/>
      <point x="1467" y="633"/>
      <point x="1483" y="633" type="curve" smooth="yes"/>
      <point x="1499" y="633"/>
      <point x="1511" y="622"/>
    </contour>
    <contour>
      <point x="1586" y="608" type="curve" smooth="yes"/>
      <point x="1586" y="594"/>
      <point x="1574" y="582"/>
      <point x="1559" y="582" type="curve" smooth="yes"/>
      <point x="1543" y="582"/>
      <point x="1531" y="594"/>
      <point x="1531" y="608" type="curve" smooth="yes"/>
      <point x="1531" y="622"/>
      <point x="1543" y="633"/>
      <point x="1559" y="633" type="curve" smooth="yes"/>
      <point x="1574" y="633"/>
      <point x="1586" y="622"/>
    </contour>
    <contour>
      <point x="1594" y="521" type="curve" smooth="yes"/>
      <point x="1594" y="517"/>
      <point x="1566" y="501"/>
      <point x="1531" y="501" type="curve" smooth="yes"/>
      <point x="1495" y="501"/>
      <point x="1466" y="517"/>
      <point x="1466" y="521" type="curve" smooth="yes"/>
      <point x="1466" y="525"/>
      <point x="1495" y="507"/>
      <point x="1531" y="507" type="curve" smooth="yes"/>
      <point x="1566" y="507"/>
      <point x="1594" y="525"/>
    </contour>
    <contour>
      <point x="632" y="1310" type="curve"/>
      <point x="632" y="1260"/>
      <point x="610" y="1216"/>
      <point x="575" y="1178" type="curve" smooth="yes"/>
      <point x="538" y="1142"/>
      <point x="498" y="1125"/>
      <point x="444" y="1125" type="curve" smooth="yes"/>
      <point x="397" y="1125"/>
      <point x="350" y="1142"/>
      <point x="318" y="1178" type="curve" smooth="yes"/>
      <point x="279" y="1216"/>
      <point x="265" y="1260"/>
      <point x="265" y="1310" type="curve"/>
      <point x="265" y="1363"/>
      <point x="279" y="1406"/>
      <point x="318" y="1445" type="curve" smooth="yes"/>
      <point x="350" y="1481"/>
      <point x="397" y="1498"/>
      <point x="444" y="1498" type="curve" smooth="yes"/>
      <point x="498" y="1498"/>
      <point x="538" y="1481"/>
      <point x="575" y="1445" type="curve" smooth="yes"/>
      <point x="610" y="1406"/>
      <point x="632" y="1363"/>
    </contour>
    <contour>
      <point x="753" y="1312" type="curve" smooth="yes"/>
      <point x="753" y="1400"/>
      <point x="719" y="1475"/>
      <point x="662" y="1536" type="curve" smooth="yes"/>
      <point x="600" y="1601"/>
      <point x="529" y="1626"/>
      <point x="444" y="1626" type="curve" smooth="yes"/>
      <point x="362" y="1626"/>
      <point x="290" y="1601"/>
      <point x="229" y="1536" type="curve" smooth="yes"/>
      <point x="172" y="1475"/>
      <point x="138" y="1400"/>
      <point x="138" y="1312" type="curve" smooth="yes"/>
      <point x="138" y="1226"/>
      <point x="172" y="1153"/>
      <point x="229" y="1091" type="curve" smooth="yes"/>
      <point x="290" y="1028"/>
      <point x="362" y="997"/>
      <point x="444" y="997" type="curve" smooth="yes"/>
      <point x="529" y="997"/>
      <point x="600" y="1028"/>
      <point x="662" y="1091" type="curve" smooth="yes"/>
      <point x="719" y="1153"/>
      <point x="753" y="1226"/>
    </contour>
    <contour>
      <point x="1006" y="1295" type="curve"/>
      <point x="1011" y="1295"/>
      <point x="1016" y="1295"/>
      <point x="1029" y="1295" type="curve"/>
      <point x="1029" y="1295" type="line"/>
      <point x="1046" y="1291"/>
      <point x="1060" y="1283"/>
      <point x="1078" y="1264" type="curve" smooth="yes"/>
      <point x="1085" y="1249"/>
      <point x="1091" y="1229"/>
      <point x="1091" y="1210" type="curve"/>
      <point x="1091" y="1189"/>
      <point x="1085" y="1174"/>
      <point x="1078" y="1155" type="curve" smooth="yes"/>
      <point x="1060" y="1141"/>
      <point x="1046" y="1129"/>
      <point x="1029" y="1125" type="curve"/>
      <point x="1029" y="1126" type="line"/>
      <point x="1016" y="1125"/>
      <point x="1011" y="1125"/>
      <point x="1006" y="1125" type="curve"/>
      <point x="998" y="1125"/>
      <point x="991" y="1125"/>
      <point x="988" y="1126" type="curve"/>
      <point x="988" y="1125" type="line"/>
      <point x="968" y="1129"/>
      <point x="949" y="1141"/>
      <point x="938" y="1155" type="curve" smooth="yes"/>
      <point x="925" y="1174"/>
      <point x="919" y="1189"/>
      <point x="919" y="1210" type="curve"/>
      <point x="919" y="1229"/>
      <point x="925" y="1249"/>
      <point x="938" y="1264" type="curve" smooth="yes"/>
      <point x="949" y="1283"/>
      <point x="968" y="1291"/>
      <point x="988" y="1295" type="curve"/>
      <point x="988" y="1295" type="line"/>
      <point x="991" y="1295"/>
      <point x="998" y="1295"/>
    </contour>
    <contour>
      <point x="1004" y="1004" type="line"/>
      <point x="1006" y="1004" type="line" smooth="yes"/>
      <point x="1006" y="1004"/>
      <point x="1006" y="1004"/>
      <point x="1006" y="1004" type="curve"/>
      <point x="1066" y="1004"/>
      <point x="1115" y="1023"/>
      <point x="1154" y="1063" type="curve" smooth="yes"/>
      <point x="1193" y="1105"/>
      <point x="1215" y="1155"/>
      <point x="1215" y="1210" type="curve" smooth="yes"/>
      <point x="1215" y="1266"/>
      <point x="1193" y="1314"/>
      <point x="1154" y="1355" type="curve" smooth="yes"/>
      <point x="1115" y="1399"/>
      <point x="1066" y="1418"/>
      <point x="1006" y="1418" type="curve"/>
      <point x="1006" y="1418"/>
      <point x="1006" y="1418"/>
      <point x="1004" y="1418" type="curve"/>
      <point x="1004" y="1418" type="line"/>
      <point x="1004" y="1418"/>
      <point x="1004" y="1418"/>
      <point x="1004" y="1418" type="curve"/>
      <point x="998" y="1418"/>
      <point x="991" y="1418"/>
      <point x="988" y="1418" type="curve"/>
      <point x="935" y="1413"/>
      <point x="890" y="1389"/>
      <point x="853" y="1350" type="curve" smooth="yes"/>
      <point x="816" y="1311"/>
      <point x="796" y="1264"/>
      <point x="796" y="1210" type="curve"/>
      <point x="796" y="1155"/>
      <point x="816" y="1108"/>
      <point x="853" y="1069" type="curve" smooth="yes"/>
      <point x="890" y="1030"/>
      <point x="935" y="1008"/>
      <point x="988" y="1004" type="curve"/>
      <point x="991" y="1004"/>
      <point x="998" y="1004"/>
      <point x="1004" y="1004" type="curve"/>
      <point x="1004" y="1004"/>
      <point x="1004" y="1004"/>
      <point x="1004" y="1004" type="curve"/>
    </contour>
    <contour>
      <point x="1486" y="606.5" type="curve" smooth="yes"/>
      <point x="1486" y="609.5375661239"/>
      <point x="1483.5375661239" y="612"/>
      <point x="1480.5" y="612" type="curve" smooth="yes"/>
      <point x="1477.4624338761" y="612"/>
      <point x="1475" y="609.5375661239"/>
      <point x="1475" y="606.5" type="curve" smooth="yes"/>
      <point x="1475" y="603.4624338761"/>
      <point x="1477.4624338761" y="601"/>
      <point x="1480.5" y="601" type="curve" smooth="yes"/>
      <point x="1483.5375661239" y="601"/>
      <point x="1486" y="603.4624338761"/>
    </contour>
    <contour>
      <point x="1563" y="607.5" type="curve" smooth="yes"/>
      <point x="1563" y="609.9852813741"/>
      <point x="1560.761423749" y="612"/>
      <point x="1558" y="612" type="curve" smooth="yes"/>
      <point x="1555.238576251" y="612"/>
      <point x="1553" y="609.9852813741"/>
      <point x="1553" y="607.5" type="curve" smooth="yes"/>
      <point x="1553" y="605.0147186259"/>
      <point x="1555.238576251" y="603"/>
      <point x="1558" y="603" type="curve" smooth="yes"/>
      <point x="1560.761423749" y="603"/>
      <point x="1563" y="605.0147186259"/>
    </contour>
  </outline>
</glyph>
<glyph name="P" format="2">
  <advance width="2048"/>
  <unicode hex="0050"/>
  <outline>
    <contour>
      <point x="1446" y="446" type="curve" smooth="yes"/>
      <point x="1446" y="425"/>
      <point x="1430" y="408"/>
      <point x="1409" y="408" type="curve" smooth="yes"/>
      <point x="1389" y="408"/>
      <point x="1372" y="425"/>
      <point x="1372" y="446" type="curve" smooth="yes"/>
      <point x="1372" y="467"/>
      <point x="1389" y="484"/>
      <point x="1409" y="484" type="curve" smooth="yes"/>
      <point x="1430" y="484"/>
      <point x="1446" y="467"/>
    </contour>
    <contour>
      <point x="1427" y="446" type="curve" smooth="yes"/>
      <point x="1427" y="454"/>
      <point x="1421" y="460"/>
      <point x="1413" y="460" type="curve" smooth="yes"/>
      <point x="1404" y="460"/>
      <point x="1398" y="454"/>
      <point x="1398" y="446" type="curve" smooth="yes"/>
      <point x="1398" y="437"/>
      <point x="1404" y="431"/>
      <point x="1413" y="431" type="curve" smooth="yes"/>
      <point x="1421" y="431"/>
      <point x="1427" y="437"/>
    </contour>
    <contour>
      <point x="1650" y="446" type="curve" smooth="yes"/>
      <point x="1650" y="425"/>
      <point x="1633" y="408"/>
      <point x="1613" y="408" type="curve" smooth="yes"/>
      <point x="1592" y="408"/>
      <point x="1576" y="425"/>
      <point x="1576" y="446" type="curve" smooth="yes"/>
      <point x="1576" y="467"/>
      <point x="1592" y="484"/>
      <point x="1613" y="484" type="curve" smooth="yes"/>
      <point x="1633" y="484"/>
      <point x="1650" y="467"/>
    </contour>
    <contour>
      <point x="1631" y="446" type="curve" smooth="yes"/>
      <point x="1631" y="454"/>
      <point x="1624" y="460"/>
      <point x="1616" y="460" type="curve" smooth="yes"/>
      <point x="1608" y="460"/>
      <point x="1601" y="454"/>
      <point x="1601" y="446" type="curve" smooth="yes"/>
      <point x="1601" y="437"/>
      <point x="1608" y="431"/>
      <point x="1616" y="431" type="curve" smooth="yes"/>
      <point x="1624" y="431"/>
      <point x="1631" y="437"/>
    </contour>
    <contour>
      <point x="1696" y="260" type="curve" smooth="yes"/>
      <point x="1696" y="206"/>
      <point x="1614" y="163"/>
      <point x="1513" y="163" type="curve" smooth="yes"/>
      <point x="1413" y="163"/>
      <point x="1331" y="206"/>
      <point x="1331" y="260" type="curve" smooth="yes"/>
      <point x="1331" y="313"/>
      <point x="1413" y="357"/>
      <point x="1513" y="357" type="curve" smooth="yes"/>
      <point x="1614" y="357"/>
      <point x="1696" y="313"/>
    </contour>
    <contour>
      <point x="1477" y="252" type="curve" smooth="yes"/>
      <point x="1477" y="269"/>
      <point x="1462" y="283"/>
      <point x="1442" y="283" type="curve" smooth="yes"/>
      <point x="1423" y="283"/>
      <point x="1407" y="269"/>
      <point x="1407" y="252" type="curve" smooth="yes"/>
      <point x="1407" y="234"/>
      <point x="1423" y="220"/>
      <point x="1442" y="220" type="curve" smooth="yes"/>
      <point x="1462" y="220"/>
      <point x="1477" y="234"/>
    </contour>
    <contour>
      <point x="1613" y="252" type="curve" smooth="yes"/>
      <point x="1613" y="269"/>
      <point x="1597" y="283"/>
      <point x="1578" y="283" type="curve" smooth="yes"/>
      <point x="1558" y="283"/>
      <point x="1542" y="269"/>
      <point x="1542" y="252" type="curve" smooth="yes"/>
      <point x="1542" y="234"/>
      <point x="1558" y="220"/>
      <point x="1578" y="220" type="curve" smooth="yes"/>
      <point x="1597" y="220"/>
      <point x="1613" y="234"/>
    </contour>
    <contour>
      <point x="1626" y="108" type="curve" smooth="yes"/>
      <point x="1626" y="104"/>
      <point x="1576" y="71"/>
      <point x="1516" y="71" type="curve" smooth="yes"/>
      <point x="1456" y="71"/>
      <point x="1408" y="104"/>
      <point x="1408" y="108" type="curve" smooth="yes"/>
      <point x="1408" y="112"/>
      <point x="1456" y="87"/>
      <point x="1516" y="87" type="curve" smooth="yes"/>
      <point x="1576" y="87"/>
      <point x="1626" y="112"/>
    </contour>
    <contour>
      <point x="1148" y="760" type="curve"/>
      <point x="1217" y="750"/>
      <point x="1342" y="641"/>
      <point x="1315" y="622" type="curve" smooth="yes"/>
      <point x="1276" y="594"/>
      <point x="1183" y="537"/>
      <point x="1155" y="513" type="curve" smooth="yes"/>
      <point x="1136" y="497"/>
      <point x="1129" y="645"/>
    </contour>
    <contour>
      <point x="1819" y="788" type="curve"/>
      <point x="1839" y="674"/>
      <point x="1818" y="530"/>
      <point x="1799" y="547" type="curve" smooth="yes"/>
      <point x="1776" y="567"/>
      <point x="1684" y="620"/>
      <point x="1636" y="648" type="curve" smooth="yes"/>
      <point x="1607" y="665"/>
      <point x="1751" y="778"/>
    </contour>
    <contour>
      <point x="1860" y="345" type="curve" smooth="yes"/>
      <point x="1860" y="398"/>
      <point x="1845" y="448"/>
      <point x="1818" y="492" type="curve"/>
      <point x="1841" y="516"/>
      <point x="1859" y="693"/>
      <point x="1836" y="825" type="curve"/>
      <point x="1756" y="814"/>
      <point x="1607" y="686"/>
      <point x="1602" y="647" type="curve" smooth="yes"/>
      <point x="1602" y="646"/>
      <point x="1602" y="646"/>
      <point x="1602" y="646" type="curve"/>
      <point x="1569" y="654"/>
      <point x="1534" y="659"/>
      <point x="1498" y="659" type="curve" smooth="yes"/>
      <point x="1441" y="659"/>
      <point x="1388" y="647"/>
      <point x="1340" y="627" type="curve"/>
      <point x="1324" y="671"/>
      <point x="1210" y="774"/>
      <point x="1133" y="785" type="curve"/>
      <point x="1110" y="650"/>
      <point x="1129" y="468"/>
      <point x="1153" y="450" type="curve" smooth="yes"/>
      <point x="1154" y="450"/>
      <point x="1155" y="449"/>
      <point x="1156" y="449" type="curve"/>
      <point x="1143" y="417"/>
      <point x="1136" y="382"/>
      <point x="1136" y="345" type="curve" smooth="yes"/>
      <point x="1136" y="172"/>
      <point x="1298" y="32"/>
      <point x="1498" y="32" type="curve" smooth="yes"/>
      <point x="1698" y="32"/>
      <point x="1860" y="172"/>
    </contour>
    <contour>
      <point x="257" y="1618" type="line"/>
      <point x="265" y="1620"/>
      <point x="273" y="1621"/>
      <point x="281" y="1621" type="curve"/>
      <point x="311" y="1621"/>
      <point x="336" y="1611"/>
      <point x="357" y="1590" type="curve" smooth="yes"/>
      <point x="378" y="1570"/>
      <point x="388" y="1545"/>
      <point x="388" y="1515" type="curve"/>
      <point x="388" y="1485"/>
      <point x="378" y="1460"/>
      <point x="357" y="1439" type="curve" smooth="yes"/>
      <point x="336" y="1419"/>
      <point x="311" y="1408"/>
      <point x="281" y="1408" type="curve"/>
      <point x="273" y="1408"/>
      <point x="265" y="1409"/>
      <point x="257" y="1411" type="curve"/>
    </contour>
    <contour>
      <point x="257" y="995" type="line"/>
      <point x="257" y="1258" type="line"/>
      <point x="262" y="1258"/>
      <point x="270" y="1257"/>
      <point x="281" y="1257" type="curve"/>
      <point x="352" y="1257"/>
      <point x="413" y="1282"/>
      <point x="463" y="1333" type="curve" smooth="yes"/>
      <point x="514" y="1383"/>
      <point x="539" y="1444"/>
      <point x="539" y="1515" type="curve" smooth="yes"/>
      <point x="539" y="1587"/>
      <point x="514" y="1647"/>
      <point x="463" y="1697" type="curve" smooth="yes"/>
      <point x="413" y="1747"/>
      <point x="352" y="1772"/>
      <point x="281" y="1772" type="curve"/>
      <point x="270" y="1772"/>
      <point x="262" y="1772"/>
      <point x="257" y="1771" type="curve"/>
      <point x="105" y="1771" type="line"/>
      <point x="105" y="995" type="line"/>
    </contour>
    <contour>
      <point x="764" y="1340" type="line"/>
      <point x="772" y="1342"/>
      <point x="780" y="1343"/>
      <point x="788" y="1343" type="curve"/>
      <point x="818" y="1343"/>
      <point x="843" y="1333"/>
      <point x="864" y="1312" type="curve" smooth="yes"/>
      <point x="884" y="1291"/>
      <point x="895" y="1266"/>
      <point x="895" y="1237" type="curve"/>
      <point x="895" y="1207"/>
      <point x="884" y="1182"/>
      <point x="864" y="1161" type="curve" smooth="yes"/>
      <point x="843" y="1140"/>
      <point x="818" y="1130"/>
      <point x="788" y="1130" type="curve"/>
      <point x="780" y="1130"/>
      <point x="772" y="1131"/>
      <point x="764" y="1133" type="curve"/>
    </contour>
    <contour>
      <point x="764" y="782" type="line"/>
      <point x="764" y="980" type="line"/>
      <point x="769" y="979"/>
      <point x="777" y="979"/>
      <point x="788" y="979" type="curve"/>
      <point x="859" y="979"/>
      <point x="920" y="1004"/>
      <point x="970" y="1054" type="curve" smooth="yes"/>
      <point x="1020" y="1105"/>
      <point x="1046" y="1166"/>
      <point x="1046" y="1237" type="curve" smooth="yes"/>
      <point x="1046" y="1308"/>
      <point x="1020" y="1369"/>
      <point x="970" y="1419" type="curve" smooth="yes"/>
      <point x="920" y="1469"/>
      <point x="859" y="1494"/>
      <point x="788" y="1494" type="curve"/>
      <point x="777" y="1494"/>
      <point x="769" y="1494"/>
      <point x="764" y="1493" type="curve"/>
      <point x="612" y="1493" type="line"/>
      <point x="612" y="782" type="line"/>
    </contour>
  </outline>
</glyph>
<glyph name="A.0" format="2">
  <advance width="1916"/>
  <outline>
    <contour>
      <point x="363" y="1344" type="line"/>
      <point x="317" y="1502" type="line"/>
      <point x="260" y="1344" type="line"/>
    </contour>
    <contour>
      <point x="497" y="999" type="line"/>
      <point x="414" y="1213" type="line"/>
      <point x="414" y="1213" type="line"/>
      <point x="227" y="1213" type="line"/>
      <point x="170" y="999" type="line"/>
      <point x="28" y="999" type="line"/>
      <point x="230" y="1722" type="line"/>
      <point x="373" y="1722" type="line"/>
      <point x="639" y="999" type="line"/>
    </contour>
    <contour>
      <point x="1001" y="1354" type="line"/>
      <point x="993" y="1357"/>
      <point x="986" y="1357"/>
      <point x="978" y="1357" type="curve"/>
      <point x="951" y="1357"/>
      <point x="926" y="1347"/>
      <point x="907" y="1328" type="curve" smooth="yes"/>
      <point x="887" y="1308"/>
      <point x="877" y="1286"/>
      <point x="877" y="1257" type="curve"/>
      <point x="877" y="1229"/>
      <point x="887" y="1204"/>
      <point x="907" y="1186" type="curve" smooth="yes"/>
      <point x="926" y="1167"/>
      <point x="951" y="1158"/>
      <point x="978" y="1158" type="curve"/>
      <point x="986" y="1158"/>
      <point x="993" y="1158"/>
      <point x="1001" y="1159" type="curve"/>
    </contour>
    <contour>
      <point x="1001" y="1009" type="line"/>
      <point x="1001" y="1017" type="line"/>
      <point x="996" y="1016"/>
      <point x="988" y="1016"/>
      <point x="978" y="1016" type="curve"/>
      <point x="911" y="1016"/>
      <point x="853" y="1039"/>
      <point x="806" y="1087" type="curve" smooth="yes"/>
      <point x="760" y="1133"/>
      <point x="737" y="1189"/>
      <point x="737" y="1257" type="curve"/>
      <point x="737" y="1323"/>
      <point x="760" y="1379"/>
      <point x="806" y="1424" type="curve" smooth="yes"/>
      <point x="853" y="1469"/>
      <point x="911" y="1492"/>
      <point x="978" y="1492" type="curve"/>
      <point x="988" y="1492"/>
      <point x="996" y="1489"/>
      <point x="1001" y="1489" type="curve"/>
      <point x="1143" y="1489" type="line"/>
      <point x="1143" y="1009" type="line"/>
    </contour>
  </outline>
</glyph>
<glyph name="A.1" format="2">
  <advance width="2048"/>
  <outline>
    <contour>
      <point x="1772" y="308" type="curve" smooth="yes"/>
      <point x="1772" y="479"/>
      <point x="1657" y="619"/>
      <point x="1516" y="619" type="curve" smooth="yes"/>
      <point x="1471" y="619"/>
      <point x="1429" y="605"/>
      <point x="1392" y="581" type="curve"/>
      <point x="1455" y="706" type="line"/>
      <point x="1421" y="725" type="line"/>
      <point x="1345" y="578" type="line"/>
      <point x="1306" y="600"/>
      <point x="1262" y="612"/>
      <point x="1215" y="612" type="curve" smooth="yes"/>
      <point x="1058" y="612"/>
      <point x="930" y="474"/>
      <point x="930" y="304" type="curve" smooth="yes"/>
      <point x="930" y="134"/>
      <point x="1126" y="-4"/>
      <point x="1283" y="-4" type="curve" smooth="yes"/>
      <point x="1313" y="-4"/>
      <point x="1342" y="1"/>
      <point x="1370" y="10" type="curve"/>
      <point x="1387" y="-4"/>
      <point x="1411" y="-12"/>
      <point x="1444" y="-12" type="curve" smooth="yes"/>
      <point x="1585" y="-12"/>
      <point x="1772" y="136"/>
    </contour>
  </outline>
</glyph>
<glyph name="B.0" format="2">
  <advance width="2048"/>
  <outline>
    <contour>
      <point x="278" y="1456" type="curve"/>
      <point x="278" y="1663" type="line"/>
      <point x="286" y="1665"/>
      <point x="294" y="1666"/>
      <point x="302" y="1666" type="curve"/>
      <point x="332" y="1666"/>
      <point x="358" y="1655"/>
      <point x="378" y="1635" type="curve" smooth="yes"/>
      <point x="399" y="1614"/>
      <point x="409" y="1589"/>
      <point x="409" y="1559" type="curve"/>
      <point x="409" y="1529"/>
      <point x="399" y="1504"/>
      <point x="378" y="1484" type="curve" smooth="yes"/>
      <point x="358" y="1463"/>
      <point x="332" y="1453"/>
      <point x="302" y="1453" type="curve"/>
      <point x="294" y="1453"/>
      <point x="286" y="1454"/>
    </contour>
    <contour>
      <point x="278" y="1138" type="curve"/>
      <point x="278" y="1345" type="line"/>
      <point x="286" y="1347"/>
      <point x="294" y="1348"/>
      <point x="302" y="1348" type="curve"/>
      <point x="332" y="1348"/>
      <point x="358" y="1337"/>
      <point x="378" y="1317" type="curve" smooth="yes"/>
      <point x="399" y="1296"/>
      <point x="409" y="1271"/>
      <point x="409" y="1241" type="curve"/>
      <point x="409" y="1211"/>
      <point x="399" y="1186"/>
      <point x="378" y="1166" type="curve" smooth="yes"/>
      <point x="358" y="1145"/>
      <point x="332" y="1135"/>
      <point x="302" y="1135" type="curve"/>
      <point x="294" y="1135"/>
      <point x="286" y="1136"/>
    </contour>
    <contour>
      <point x="278" y="1782" type="curve"/>
      <point x="126" y="1782" type="line"/>
      <point x="126" y="1006" type="line"/>
      <point x="278" y="1006" type="line"/>
      <point x="284" y="1005"/>
      <point x="292" y="1005"/>
      <point x="302" y="1005" type="curve"/>
      <point x="374" y="1005"/>
      <point x="434" y="1030"/>
      <point x="485" y="1080" type="curve" smooth="yes"/>
      <point x="535" y="1130"/>
      <point x="560" y="1190"/>
      <point x="560" y="1262" type="curve"/>
      <point x="560" y="1278"/>
      <point x="556" y="1294"/>
      <point x="547" y="1309" type="curve" smooth="yes"/>
      <point x="539" y="1324"/>
      <point x="524" y="1342"/>
      <point x="504" y="1364" type="curve" smooth="yes"/>
      <point x="483" y="1385"/>
      <point x="473" y="1396"/>
      <point x="471" y="1398" type="curve"/>
      <point x="475" y="1402"/>
      <point x="485" y="1413"/>
      <point x="502" y="1431" type="curve" smooth="yes"/>
      <point x="518" y="1448"/>
      <point x="531" y="1464"/>
      <point x="540" y="1479" type="curve" smooth="yes"/>
      <point x="550" y="1493"/>
      <point x="554" y="1508"/>
      <point x="554" y="1524" type="curve"/>
      <point x="554" y="1595"/>
      <point x="529" y="1656"/>
      <point x="479" y="1706" type="curve" smooth="yes"/>
      <point x="428" y="1756"/>
      <point x="368" y="1782"/>
      <point x="296" y="1782" type="curve"/>
      <point x="284" y="1782"/>
      <point x="284" y="1782"/>
    </contour>
    <contour>
      <point x="781" y="1151" type="curve"/>
      <point x="781" y="1358" type="line"/>
      <point x="789" y="1360"/>
      <point x="797" y="1361"/>
      <point x="805" y="1361" type="curve"/>
      <point x="835" y="1361"/>
      <point x="860" y="1351"/>
      <point x="881" y="1330" type="curve" smooth="yes"/>
      <point x="902" y="1310"/>
      <point x="912" y="1284"/>
      <point x="912" y="1254" type="curve"/>
      <point x="912" y="1225"/>
      <point x="902" y="1200"/>
      <point x="881" y="1179" type="curve" smooth="yes"/>
      <point x="860" y="1159"/>
      <point x="835" y="1148"/>
      <point x="805" y="1148" type="curve"/>
      <point x="797" y="1148"/>
      <point x="789" y="1149"/>
    </contour>
    <contour>
      <point x="781" y="1774" type="line"/>
      <point x="629" y="1774" type="line"/>
      <point x="629" y="998" type="line"/>
      <point x="781" y="998" type="line"/>
      <point x="786" y="998"/>
      <point x="794" y="997"/>
      <point x="805" y="997" type="curve"/>
      <point x="876" y="997"/>
      <point x="937" y="1022"/>
      <point x="988" y="1072" type="curve" smooth="yes"/>
      <point x="1038" y="1122"/>
      <point x="1063" y="1183"/>
      <point x="1063" y="1254" type="curve" smooth="yes"/>
      <point x="1063" y="1326"/>
      <point x="1038" y="1387"/>
      <point x="988" y="1437" type="curve" smooth="yes"/>
      <point x="937" y="1487"/>
      <point x="876" y="1512"/>
      <point x="805" y="1512" type="curve"/>
      <point x="794" y="1512"/>
      <point x="786" y="1512"/>
      <point x="781" y="1511" type="curve"/>
    </contour>
  </outline>
</glyph>
<glyph name="B.1" format="2">
  <advance width="2048"/>
  <outline>
    <contour>
      <point x="1916" y="233.5" type="curve" smooth="yes"/>
      <point x="1916" y="431.494"/>
      <point x="1753.7" y="592"/>
      <point x="1553.5" y="592" type="curve" smooth="yes"/>
      <point x="1353.3" y="592"/>
      <point x="1191" y="431.494"/>
      <point x="1191" y="233.5" type="curve" smooth="yes"/>
      <point x="1191" y="35.5059"/>
      <point x="1353.3" y="-125"/>
      <point x="1553.5" y="-125" type="curve" smooth="yes"/>
      <point x="1753.7" y="-125"/>
      <point x="1916" y="35.5059"/>
    </contour>
    <contour>
      <point x="1554" y="593" type="curve"/>
      <point x="1678" y="515"/>
      <point x="1723" y="353"/>
      <point x="1723" y="233" type="curve" smooth="yes"/>
      <point x="1723" y="66"/>
      <point x="1720" y="-36"/>
      <point x="1549" y="-127" type="curve"/>
      <point x="1374" y="-48"/>
      <point x="1308" y="80"/>
      <point x="1308" y="259" type="curve" smooth="yes"/>
      <point x="1308" y="411"/>
      <point x="1420" y="541"/>
    </contour>
    <contour>
      <point x="1554" y="590" type="curve"/>
      <point x="1672" y="516"/>
      <point x="1713" y="347"/>
      <point x="1713" y="233" type="curve" smooth="yes"/>
      <point x="1713" y="74"/>
      <point x="1713" y="-39"/>
      <point x="1550" y="-125" type="curve"/>
      <point x="1384" y="-50"/>
      <point x="1318" y="87"/>
      <point x="1318" y="258" type="curve" smooth="yes"/>
      <point x="1318" y="402"/>
      <point x="1427" y="541"/>
    </contour>
  </outline>
</glyph>
<glyph name="C.0" format="2">
  <advance width="2048"/>
  <outline>
    <contour>
      <point x="443" y="1621" type="curve"/>
      <point x="469" y="1621"/>
      <point x="493" y="1617"/>
      <point x="516" y="1609" type="curve"/>
      <point x="516" y="1775" type="line"/>
      <point x="492" y="1780"/>
      <point x="468" y="1782"/>
      <point x="443" y="1782" type="curve"/>
      <point x="338" y="1782"/>
      <point x="248" y="1744"/>
      <point x="173" y="1667" type="curve" smooth="yes"/>
      <point x="99" y="1591"/>
      <point x="61" y="1498"/>
      <point x="61" y="1389" type="curve" smooth="yes"/>
      <point x="61" y="1281"/>
      <point x="99" y="1188"/>
      <point x="173" y="1111" type="curve" smooth="yes"/>
      <point x="248" y="1034"/>
      <point x="338" y="995"/>
      <point x="443" y="995" type="curve"/>
      <point x="468" y="995"/>
      <point x="492" y="998"/>
      <point x="516" y="1002" type="curve"/>
      <point x="516" y="1164" type="line"/>
      <point x="493" y="1156"/>
      <point x="469" y="1152"/>
      <point x="443" y="1152" type="curve"/>
      <point x="380" y="1152"/>
      <point x="326" y="1175"/>
      <point x="281" y="1221" type="curve" smooth="yes"/>
      <point x="237" y="1267"/>
      <point x="214" y="1322"/>
      <point x="214" y="1387" type="curve"/>
      <point x="214" y="1452"/>
      <point x="237" y="1507"/>
      <point x="281" y="1553" type="curve" smooth="yes"/>
      <point x="326" y="1599"/>
      <point x="380" y="1621"/>
    </contour>
    <contour>
      <point x="844" y="1000" type="line"/>
      <point x="835" y="1000"/>
      <point x="827" y="999"/>
      <point x="818" y="999" type="curve"/>
      <point x="747" y="999"/>
      <point x="686" y="1024"/>
      <point x="635" y="1074" type="curve" smooth="yes"/>
      <point x="585" y="1124"/>
      <point x="560" y="1185"/>
      <point x="560" y="1256" type="curve" smooth="yes"/>
      <point x="560" y="1328"/>
      <point x="585" y="1389"/>
      <point x="635" y="1439" type="curve" smooth="yes"/>
      <point x="686" y="1489"/>
      <point x="747" y="1514"/>
      <point x="818" y="1514" type="curve"/>
      <point x="827" y="1514"/>
      <point x="835" y="1514"/>
      <point x="844" y="1513" type="curve"/>
      <point x="844" y="1360" type="line"/>
      <point x="835" y="1362"/>
      <point x="827" y="1363"/>
      <point x="818" y="1363" type="curve"/>
      <point x="788" y="1363"/>
      <point x="763" y="1353"/>
      <point x="742" y="1332" type="curve" smooth="yes"/>
      <point x="721" y="1312"/>
      <point x="711" y="1286"/>
      <point x="711" y="1256" type="curve"/>
      <point x="711" y="1227"/>
      <point x="721" y="1202"/>
      <point x="742" y="1181" type="curve" smooth="yes"/>
      <point x="763" y="1161"/>
      <point x="788" y="1150"/>
      <point x="818" y="1150" type="curve"/>
      <point x="827" y="1150"/>
      <point x="835" y="1151"/>
      <point x="844" y="1153" type="curve"/>
    </contour>
  </outline>
</glyph>
<glyph name="C.1" format="2">
  <advance width="2048"/>
  <outline>
    <contour>
      <point x="1455" y="455" type="curve"/>
      <point x="1455" y="430"/>
      <point x="1414" y="411"/>
      <point x="1365" y="411" type="curve"/>
      <point x="1315" y="411"/>
      <point x="1274" y="430"/>
      <point x="1274" y="455" type="curve"/>
      <point x="1274" y="479"/>
      <point x="1315" y="498"/>
      <point x="1365" y="498" type="curve"/>
      <point x="1414" y="498"/>
      <point x="1455" y="479"/>
    </contour>
    <contour>
      <point x="1399" y="453" type="curve"/>
      <point x="1399" y="432"/>
      <point x="1384" y="415"/>
      <point x="1365" y="415" type="curve" smooth="yes"/>
      <point x="1347" y="415"/>
      <point x="1332" y="432"/>
      <point x="1332" y="453" type="curve"/>
      <point x="1332" y="473"/>
      <point x="1347" y="490"/>
      <point x="1365" y="490" type="curve" smooth="yes"/>
      <point x="1384" y="490"/>
      <point x="1399" y="473"/>
    </contour>
    <contour>
      <point x="1508" y="358" type="line"/>
      <point x="1557" y="245" type="line"/>
      <point x="1421" y="249" type="line"/>
    </contour>
    <contour>
      <point x="1534" y="173" type="line"/>
      <point x="1538" y="131" type="line"/>
      <point x="1459" y="128" type="line"/>
      <point x="1455" y="173" type="line"/>
    </contour>
    <contour>
      <point x="1874" y="326" type="curve" smooth="yes"/>
      <point x="1874" y="405"/>
      <point x="1844" y="478"/>
      <point x="1795" y="536" type="curve"/>
      <point x="1848" y="705" type="line"/>
      <point x="1713" y="605" type="line"/>
      <point x="1656" y="640"/>
      <point x="1589" y="660"/>
      <point x="1517" y="660" type="curve" smooth="yes"/>
      <point x="1456" y="660"/>
      <point x="1398" y="646"/>
      <point x="1348" y="620" type="curve"/>
      <point x="1202" y="743" type="line"/>
      <point x="1244" y="542" type="line"/>
      <point x="1192" y="483"/>
      <point x="1160" y="408"/>
      <point x="1160" y="326" type="curve" smooth="yes"/>
      <point x="1160" y="142"/>
      <point x="1320" y="-8"/>
      <point x="1517" y="-8" type="curve" smooth="yes"/>
      <point x="1714" y="-8"/>
      <point x="1874" y="142"/>
    </contour>
    <contour>
      <point x="1611" y="243" type="line"/>
      <point x="1611" y="249" type="line"/>
      <point x="1736" y="287" type="line"/>
      <point x="1736" y="281" type="line"/>
    </contour>
    <contour>
      <point x="1307" y="178" type="line"/>
      <point x="1395" y="218" type="line"/>
      <point x="1395" y="213" type="line"/>
      <point x="1307" y="173" type="line"/>
    </contour>
    <contour>
      <point x="1617" y="203" type="line"/>
      <point x="1617" y="209" type="line"/>
      <point x="1747" y="164" type="line"/>
      <point x="1747" y="158" type="line"/>
    </contour>
    <contour>
      <point x="1275" y="279" type="line"/>
      <point x="1275" y="285" type="line"/>
      <point x="1392" y="259" type="line"/>
      <point x="1392" y="253" type="line"/>
    </contour>
    <contour>
      <point x="1755" y="455" type="curve"/>
      <point x="1755" y="430"/>
      <point x="1714" y="411"/>
      <point x="1665" y="411" type="curve"/>
      <point x="1615" y="411"/>
      <point x="1574" y="430"/>
      <point x="1574" y="455" type="curve"/>
      <point x="1574" y="479"/>
      <point x="1615" y="498"/>
      <point x="1665" y="498" type="curve"/>
      <point x="1714" y="498"/>
      <point x="1755" y="479"/>
    </contour>
    <contour>
      <point x="1699" y="453" type="curve"/>
      <point x="1699" y="432"/>
      <point x="1684" y="415"/>
      <point x="1665" y="415" type="curve" smooth="yes"/>
      <point x="1647" y="415"/>
      <point x="1632" y="432"/>
      <point x="1632" y="453" type="curve"/>
      <point x="1632" y="473"/>
      <point x="1647" y="490"/>
      <point x="1665" y="490" type="curve" smooth="yes"/>
      <point x="1684" y="490"/>
      <point x="1699" y="473"/>
    </contour>
  </outline>
</glyph>
<glyph name="D.0" format="2">
  <advance width="2048"/>
  <outline>
    <contour>
      <point x="1026" y="1159" type="curve"/>
      <point x="1026" y="1354" type="line"/>
      <point x="1021" y="1358"/>
      <point x="1012" y="1358"/>
      <point x="1002" y="1358" type="curve"/>
      <point x="974" y="1358"/>
      <point x="950" y="1349"/>
      <point x="931" y="1330" type="curve" smooth="yes"/>
      <point x="912" y="1311"/>
      <point x="903" y="1282"/>
      <point x="903" y="1254" type="curve"/>
      <point x="903" y="1230"/>
      <point x="912" y="1206"/>
      <point x="931" y="1183" type="curve" smooth="yes"/>
      <point x="950" y="1164"/>
      <point x="974" y="1154"/>
      <point x="1002" y="1154" type="curve"/>
      <point x="1012" y="1154"/>
      <point x="1021" y="1154"/>
    </contour>
    <contour>
      <point x="1026" y="1748" type="line"/>
      <point x="1173" y="1748" type="line"/>
      <point x="1173" y="1012" type="line"/>
      <point x="1026" y="1012" type="line"/>
      <point x="1021" y="1012"/>
      <point x="1012" y="1012"/>
      <point x="1002" y="1012" type="curve"/>
      <point x="936" y="1012"/>
      <point x="879" y="1035"/>
      <point x="831" y="1083" type="curve" smooth="yes"/>
      <point x="784" y="1130"/>
      <point x="760" y="1187"/>
      <point x="760" y="1254" type="curve" smooth="yes"/>
      <point x="760" y="1325"/>
      <point x="784" y="1382"/>
      <point x="831" y="1430" type="curve" smooth="yes"/>
      <point x="879" y="1477"/>
      <point x="936" y="1501"/>
      <point x="1002" y="1501" type="curve"/>
      <point x="1012" y="1501"/>
      <point x="1021" y="1501"/>
      <point x="1026" y="1501" type="curve"/>
    </contour>
    <contour>
      <point x="1026" y="1159" type="curve"/>
      <point x="1026" y="1354" type="line"/>
      <point x="1021" y="1358"/>
      <point x="1012" y="1358"/>
      <point x="1002" y="1358" type="curve"/>
      <point x="974" y="1358"/>
      <point x="950" y="1349"/>
      <point x="931" y="1330" type="curve" smooth="yes"/>
      <point x="912" y="1311"/>
      <point x="903" y="1282"/>
      <point x="903" y="1254" type="curve"/>
      <point x="903" y="1230"/>
      <point x="912" y="1206"/>
      <point x="931" y="1183" type="curve" smooth="yes"/>
      <point x="950" y="1164"/>
      <point x="974" y="1154"/>
      <point x="1002" y="1154" type="curve"/>
      <point x="1012" y="1154"/>
      <point x="1021" y="1154"/>
    </contour>
    <contour>
      <point x="1026" y="1748" type="line"/>
      <point x="1173" y="1748" type="line"/>
      <point x="1173" y="1012" type="line"/>
      <point x="1026" y="1012" type="line"/>
      <point x="1021" y="1012"/>
      <point x="1012" y="1012"/>
      <point x="1002" y="1012" type="curve"/>
      <point x="936" y="1012"/>
      <point x="879" y="1035"/>
      <point x="831" y="1083" type="curve" smooth="yes"/>
      <point x="784" y="1130"/>
      <point x="760" y="1187"/>
      <point x="760" y="1254" type="curve" smooth="yes"/>
      <point x="760" y="1325"/>
      <point x="784" y="1382"/>
      <point x="831" y="1430" type="curve" smooth="yes"/>
      <point x="879" y="1477"/>
      <point x="936" y="1501"/>
      <point x="1002" y="1501" type="curve"/>
      <point x="1012" y="1501"/>
      <point x="1021" y="1501"/>
      <point x="1026" y="1501" type="curve"/>
    </contour>
    <contour>
      <point x="1026" y="1159" type="curve"/>
      <point x="1026" y="1354" type="line"/>
      <point x="1021" y="1358"/>
      <point x="1012" y="1358"/>
      <point x="1002" y="1358" type="curve"/>
      <point x="974" y="1358"/>
      <point x="950" y="1349"/>
      <point x="931" y="1330" type="curve" smooth="yes"/>
      <point x="912" y="1311"/>
      <point x="903" y="1282"/>
      <point x="903" y="1254" type="curve"/>
      <point x="903" y="1230"/>
      <point x="912" y="1206"/>
      <point x="931" y="1183" type="curve" smooth="yes"/>
      <point x="950" y="1164"/>
      <point x="974" y="1154"/>
      <point x="1002" y="1154" type="curve"/>
      <point x="1012" y="1154"/>
      <point x="1021" y="1154"/>
    </contour>
    <contour>
      <point x="1026" y="1748" type="line"/>
      <point x="1173" y="1748" type="line"/>
      <point x="1173" y="1012" type="line"/>
      <point x="1026" y="1012" type="line"/>
      <point x="1021" y="1012"/>
      <point x="1012" y="1012"/>
      <point x="1002" y="1012" type="curve"/>
      <point x="936" y="1012"/>
      <point x="879" y="1035"/>
      <point x="831" y="1083" type="curve" smooth="yes"/>
      <point x="784" y="1130"/>
      <point x="760" y="1187"/>
      <point x="760" y="1254" type="curve" smooth="yes"/>
      <point x="760" y="1325"/>
      <point x="784" y="1382"/>
      <point x="831" y="1430" type="curve" smooth="yes"/>
      <point x="879" y="1477"/>
      <point x="936" y="1501"/>
      <point x="1002" y="1501" type="curve"/>
      <point x="1012" y="1501"/>
      <point x="1021" y="1501"/>
      <point x="1026" y="1501" type="curve"/>
    </contour>
    <contour>
      <point x="323" y="1116" type="line"/>
      <point x="380" y="1121"/>
      <point x="432" y="1140"/>
      <point x="475" y="1187" type="curve" smooth="yes"/>
      <point x="513" y="1230"/>
      <point x="537" y="1282"/>
      <point x="537" y="1339" type="curve"/>
      <point x="537" y="1401"/>
      <point x="513" y="1453"/>
      <point x="475" y="1496" type="curve" smooth="yes"/>
      <point x="432" y="1539"/>
      <point x="380" y="1563"/>
      <point x="323" y="1563" type="curve"/>
    </contour>
    <contour>
      <point x="176" y="1710" type="line"/>
      <point x="185" y="1710"/>
      <point x="209" y="1710"/>
      <point x="247" y="1710" type="curve" smooth="yes"/>
      <point x="285" y="1715"/>
      <point x="309" y="1715"/>
      <point x="318" y="1715" type="curve"/>
      <point x="418" y="1715"/>
      <point x="504" y="1681"/>
      <point x="575" y="1605" type="curve" smooth="yes"/>
      <point x="646" y="1534"/>
      <point x="679" y="1449"/>
      <point x="679" y="1344" type="curve"/>
      <point x="679" y="1278"/>
      <point x="665" y="1211"/>
      <point x="632" y="1154" type="curve" smooth="yes"/>
      <point x="599" y="1097"/>
      <point x="556" y="1054"/>
      <point x="504" y="1021" type="curve" smooth="yes"/>
      <point x="447" y="988"/>
      <point x="385" y="969"/>
      <point x="323" y="969" type="curve"/>
      <point x="176" y="969" type="line"/>
    </contour>
  </outline>
</glyph>
<glyph name="D.1" format="2">
  <advance width="2048"/>
  <outline>
    <contour>
      <point x="1648" y="268" type="curve" smooth="yes"/>
      <point x="1648" y="274"/>
      <point x="1642" y="279"/>
      <point x="1636" y="279" type="curve" smooth="yes"/>
      <point x="1629" y="279"/>
      <point x="1624" y="274"/>
      <point x="1624" y="268" type="curve" smooth="yes"/>
      <point x="1624" y="261"/>
      <point x="1629" y="256"/>
      <point x="1636" y="256" type="curve" smooth="yes"/>
      <point x="1642" y="256"/>
      <point x="1648" y="261"/>
    </contour>
    <contour>
      <point x="1638" y="311" type="curve" smooth="yes"/>
      <point x="1643" y="312"/>
      <point x="1668" y="312"/>
      <point x="1674" y="311" type="curve" smooth="yes"/>
      <point x="1680" y="311"/>
      <point x="1687" y="310"/>
      <point x="1691" y="309" type="curve" smooth="yes"/>
      <point x="1694" y="308"/>
      <point x="1702" y="306"/>
      <point x="1702" y="306" type="curve"/>
      <point x="1702" y="306"/>
      <point x="1699" y="306"/>
      <point x="1696" y="306" type="curve" smooth="yes"/>
      <point x="1691" y="306"/>
      <point x="1690" y="306"/>
      <point x="1687" y="304" type="curve" smooth="yes"/>
      <point x="1679" y="302"/>
      <point x="1672" y="296"/>
      <point x="1672" y="290" type="curve" smooth="yes"/>
      <point x="1672" y="287"/>
      <point x="1672" y="285"/>
      <point x="1674" y="282" type="curve" smooth="yes"/>
      <point x="1678" y="278"/>
      <point x="1678" y="276"/>
      <point x="1678" y="269" type="curve" smooth="yes"/>
      <point x="1678" y="264"/>
      <point x="1678" y="262"/>
      <point x="1677" y="258" type="curve" smooth="yes"/>
      <point x="1675" y="250"/>
      <point x="1672" y="243"/>
      <point x="1666" y="228" type="curve" smooth="yes"/>
      <point x="1664" y="223"/>
      <point x="1662" y="218"/>
      <point x="1662" y="217" type="curve" smooth="yes"/>
      <point x="1661" y="213"/>
      <point x="1661" y="200"/>
      <point x="1662" y="193" type="curve" smooth="yes"/>
      <point x="1664" y="173"/>
      <point x="1668" y="157"/>
      <point x="1673" y="154" type="curve" smooth="yes"/>
      <point x="1675" y="153"/>
      <point x="1676" y="153"/>
      <point x="1678" y="155" type="curve" smooth="yes"/>
      <point x="1682" y="161"/>
      <point x="1686" y="163"/>
      <point x="1697" y="167" type="curve" smooth="yes"/>
      <point x="1710" y="172"/>
      <point x="1713" y="174"/>
      <point x="1717" y="180" type="curve" smooth="yes"/>
      <point x="1720" y="184"/>
      <point x="1724" y="188"/>
      <point x="1739" y="203" type="curve" smooth="yes"/>
      <point x="1743" y="207"/>
      <point x="1747" y="211"/>
      <point x="1748" y="212" type="curve" smooth="yes"/>
      <point x="1749" y="213"/>
      <point x="1750" y="214"/>
      <point x="1750" y="214" type="curve" smooth="yes"/>
      <point x="1750" y="214"/>
      <point x="1751" y="212"/>
      <point x="1752" y="209" type="curve" smooth="yes"/>
      <point x="1754" y="201"/>
      <point x="1758" y="190"/>
      <point x="1760" y="185" type="curve" smooth="yes"/>
      <point x="1764" y="175"/>
      <point x="1766" y="171"/>
      <point x="1776" y="159" type="curve" smooth="yes"/>
      <point x="1786" y="145"/>
      <point x="1790" y="140"/>
      <point x="1805" y="124" type="curve" smooth="yes"/>
      <point x="1828" y="101"/>
      <point x="1834" y="93"/>
      <point x="1856" y="56" type="curve" smooth="yes"/>
      <point x="1870" y="32"/>
      <point x="1877" y="22"/>
      <point x="1891" y="4" type="curve" smooth="yes"/>
      <point x="1903" y="-14"/>
      <point x="1920" y="-34"/>
      <point x="1946" y="-67" type="curve" smooth="yes"/>
      <point x="1956" y="-78"/>
      <point x="1965" y="-90"/>
      <point x="1967" y="-93" type="curve" smooth="yes"/>
      <point x="1979" y="-108"/>
      <point x="1988" y="-124"/>
      <point x="1993" y="-139" type="curve" smooth="yes"/>
      <point x="2002" y="-165"/>
      <point x="2004" y="-189"/>
      <point x="1999" y="-217" type="curve" smooth="yes"/>
      <point x="1998" y="-222" type="line"/>
      <point x="1999" y="-225" type="line" smooth="yes"/>
      <point x="2004" y="-232"/>
      <point x="2012" y="-242"/>
      <point x="2019" y="-250" type="curve" smooth="yes"/>
      <point x="2029" y="-259"/>
      <point x="2037" y="-265"/>
      <point x="2046" y="-267" type="curve" smooth="yes"/>
      <point x="2049" y="-267"/>
      <point x="2057" y="-268"/>
      <point x="2074" y="-268" type="curve" smooth="yes"/>
      <point x="2082" y="-269"/>
      <point x="2092" y="-269"/>
      <point x="2096" y="-270" type="curve" smooth="yes"/>
      <point x="2142" y="-272"/>
      <point x="2172" y="-265"/>
      <point x="2188" y="-276" type="curve" smooth="yes"/>
      <point x="2192" y="-278"/>
      <point x="2195" y="-281"/>
      <point x="2195" y="-282" type="curve" smooth="yes"/>
      <point x="2195" y="-282"/>
      <point x="2193" y="-282"/>
      <point x="2191" y="-283" type="curve" smooth="yes"/>
      <point x="2177" y="-284"/>
      <point x="2163" y="-301"/>
      <point x="2142" y="-305" type="curve" smooth="yes"/>
      <point x="2136" y="-306" type="line"/>
      <point x="2136" y="-306" type="line" smooth="yes"/>
      <point x="2134" y="-304"/>
      <point x="2132" y="-304"/>
      <point x="2122" y="-304" type="curve" smooth="yes"/>
      <point x="2108" y="-304"/>
      <point x="2100" y="-306"/>
      <point x="2090" y="-309" type="curve" smooth="yes"/>
      <point x="2082" y="-312"/>
      <point x="2080" y="-313"/>
      <point x="2068" y="-313" type="curve" smooth="yes"/>
      <point x="2058" y="-313"/>
      <point x="2049" y="-312"/>
      <point x="2033" y="-310" type="curve" smooth="yes"/>
      <point x="2016" y="-307"/>
      <point x="2008" y="-305"/>
      <point x="1992" y="-299" type="curve" smooth="yes"/>
      <point x="1988" y="-298"/>
      <point x="1980" y="-295"/>
      <point x="1975" y="-293" type="curve" smooth="yes"/>
      <point x="1960" y="-288"/>
      <point x="1957" y="-286"/>
      <point x="1954" y="-280" type="curve" smooth="yes"/>
      <point x="1952" y="-276"/>
      <point x="1951" y="-275"/>
      <point x="1948" y="-276" type="curve" smooth="yes"/>
      <point x="1946" y="-276"/>
      <point x="1946" y="-277"/>
      <point x="1939" y="-281" type="curve" smooth="yes"/>
      <point x="1921" y="-293"/>
      <point x="1907" y="-298"/>
      <point x="1888" y="-300" type="curve" smooth="yes"/>
      <point x="1881" y="-300"/>
      <point x="1875" y="-300"/>
      <point x="1865" y="-299" type="curve" smooth="yes"/>
      <point x="1841" y="-296"/>
      <point x="1823" y="-293"/>
      <point x="1814" y="-288" type="curve" smooth="yes"/>
      <point x="1812" y="-287"/>
      <point x="1808" y="-284"/>
      <point x="1808" y="-284" type="curve" smooth="yes"/>
      <point x="1808" y="-283"/>
      <point x="1808" y="-283"/>
      <point x="1809" y="-282" type="curve" smooth="yes"/>
      <point x="1811" y="-282"/>
      <point x="1814" y="-279"/>
      <point x="1814" y="-277" type="curve" smooth="yes"/>
      <point x="1814" y="-275"/>
      <point x="1814" y="-272"/>
      <point x="1812" y="-271" type="curve" smooth="yes"/>
      <point x="1810" y="-268"/>
      <point x="1806" y="-268"/>
      <point x="1804" y="-272" type="curve" smooth="yes"/>
      <point x="1803" y="-274"/>
      <point x="1803" y="-274"/>
      <point x="1803" y="-278" type="curve" smooth="yes"/>
      <point x="1803" y="-281" type="line"/>
      <point x="1797" y="-281" type="line" smooth="yes"/>
      <point x="1788" y="-281"/>
      <point x="1783" y="-280"/>
      <point x="1780" y="-278" type="curve" smooth="yes"/>
      <point x="1780" y="-277"/>
      <point x="1779" y="-277"/>
      <point x="1780" y="-276" type="curve" smooth="yes"/>
      <point x="1780" y="-273"/>
      <point x="1782" y="-270"/>
      <point x="1788" y="-262" type="curve" smooth="yes"/>
      <point x="1795" y="-253"/>
      <point x="1797" y="-250"/>
      <point x="1799" y="-249" type="curve" smooth="yes"/>
      <point x="1800" y="-248"/>
      <point x="1800" y="-248"/>
      <point x="1803" y="-250" type="curve" smooth="yes"/>
      <point x="1808" y="-252"/>
      <point x="1816" y="-255"/>
      <point x="1836" y="-258" type="curve" smooth="yes"/>
      <point x="1842" y="-260"/>
      <point x="1848" y="-261"/>
      <point x="1849" y="-261" type="curve" smooth="yes"/>
      <point x="1850" y="-261"/>
      <point x="1854" y="-262"/>
      <point x="1858" y="-264" type="curve" smooth="yes"/>
      <point x="1869" y="-268"/>
      <point x="1880" y="-270"/>
      <point x="1884" y="-270" type="curve" smooth="yes"/>
      <point x="1886" y="-270"/>
      <point x="1888" y="-268"/>
      <point x="1886" y="-265" type="curve" smooth="yes"/>
      <point x="1885" y="-264"/>
      <point x="1884" y="-264"/>
      <point x="1869" y="-262" type="curve" smooth="yes"/>
      <point x="1853" y="-259" type="line"/>
      <point x="1844" y="-255" type="line" smooth="yes"/>
      <point x="1823" y="-247"/>
      <point x="1814" y="-244"/>
      <point x="1805" y="-245" type="curve" smooth="yes"/>
      <point x="1801" y="-245" type="line"/>
      <point x="1800" y="-243" type="line" smooth="yes"/>
      <point x="1797" y="-240"/>
      <point x="1794" y="-234"/>
      <point x="1788" y="-221" type="curve" smooth="yes"/>
      <point x="1777" y="-199"/>
      <point x="1773" y="-191"/>
      <point x="1768" y="-183" type="curve" smooth="yes"/>
      <point x="1760" y="-171"/>
      <point x="1751" y="-162"/>
      <point x="1742" y="-159" type="curve" smooth="yes"/>
      <point x="1740" y="-158"/>
      <point x="1738" y="-158"/>
      <point x="1736" y="-158" type="curve" smooth="yes"/>
      <point x="1733" y="-158"/>
      <point x="1733" y="-158"/>
      <point x="1732" y="-159" type="curve" smooth="yes"/>
      <point x="1730" y="-160"/>
      <point x="1730" y="-161"/>
      <point x="1729" y="-162" type="curve" smooth="yes"/>
      <point x="1728" y="-165"/>
      <point x="1728" y="-166"/>
      <point x="1728" y="-181" type="curve" smooth="yes"/>
      <point x="1727" y="-199"/>
      <point x="1727" y="-202"/>
      <point x="1724" y="-210" type="curve" smooth="yes"/>
      <point x="1722" y="-217"/>
      <point x="1718" y="-224"/>
      <point x="1712" y="-230" type="curve" smooth="yes"/>
      <point x="1708" y="-233"/>
      <point x="1707" y="-234"/>
      <point x="1704" y="-236" type="curve" smooth="yes"/>
      <point x="1696" y="-240"/>
      <point x="1696" y="-241"/>
      <point x="1695" y="-254" type="curve" smooth="yes"/>
      <point x="1695" y="-259"/>
      <point x="1694" y="-263"/>
      <point x="1694" y="-265" type="curve" smooth="yes"/>
      <point x="1692" y="-275"/>
      <point x="1684" y="-279"/>
      <point x="1666" y="-279" type="curve" smooth="yes"/>
      <point x="1662" y="-279"/>
      <point x="1656" y="-279"/>
      <point x="1649" y="-280" type="curve" smooth="yes"/>
      <point x="1646" y="-280" type="line"/>
      <point x="1647" y="-278" type="line" smooth="yes"/>
      <point x="1651" y="-273"/>
      <point x="1651" y="-270"/>
      <point x="1648" y="-268" type="curve" smooth="yes"/>
      <point x="1646" y="-267"/>
      <point x="1644" y="-267"/>
      <point x="1642" y="-268" type="curve" smooth="yes"/>
      <point x="1638" y="-270"/>
      <point x="1635" y="-274"/>
      <point x="1636" y="-277" type="curve" smooth="yes"/>
      <point x="1636" y="-278"/>
      <point x="1636" y="-279"/>
      <point x="1637" y="-280" type="curve" smooth="yes"/>
      <point x="1638" y="-281"/>
      <point x="1638" y="-281"/>
      <point x="1637" y="-282" type="curve" smooth="yes"/>
      <point x="1636" y="-282"/>
      <point x="1633" y="-282"/>
      <point x="1632" y="-282" type="curve" smooth="yes"/>
      <point x="1628" y="-279"/>
      <point x="1628" y="-270"/>
      <point x="1632" y="-262" type="curve" smooth="yes"/>
      <point x="1634" y="-259"/>
      <point x="1638" y="-254"/>
      <point x="1641" y="-252" type="curve" smooth="yes"/>
      <point x="1642" y="-252"/>
      <point x="1647" y="-250"/>
      <point x="1651" y="-250" type="curve" smooth="yes"/>
      <point x="1660" y="-247"/>
      <point x="1664" y="-246"/>
      <point x="1668" y="-243" type="curve" smooth="yes"/>
      <point x="1672" y="-240"/>
      <point x="1675" y="-236"/>
      <point x="1676" y="-231" type="curve" smooth="yes"/>
      <point x="1677" y="-228"/>
      <point x="1678" y="-222"/>
      <point x="1680" y="-199" type="curve" smooth="yes"/>
      <point x="1682" y="-178"/>
      <point x="1682" y="-173"/>
      <point x="1682" y="-150" type="curve" smooth="yes"/>
      <point x="1682" y="-128"/>
      <point x="1682" y="-125"/>
      <point x="1680" y="-113" type="curve" smooth="yes"/>
      <point x="1678" y="-96"/>
      <point x="1674" y="-83"/>
      <point x="1667" y="-75" type="curve" smooth="yes"/>
      <point x="1665" y="-73"/>
      <point x="1663" y="-72"/>
      <point x="1659" y="-68" type="curve" smooth="yes"/>
      <point x="1656" y="-66"/>
      <point x="1650" y="-60"/>
      <point x="1647" y="-56" type="curve" smooth="yes"/>
      <point x="1643" y="-50"/>
      <point x="1639" y="-42"/>
      <point x="1636" y="-33" type="curve" smooth="yes"/>
      <point x="1629" y="-10"/>
      <point x="1628" y="25"/>
      <point x="1634" y="52" type="curve" smooth="yes"/>
      <point x="1637" y="68"/>
      <point x="1643" y="83"/>
      <point x="1650" y="94" type="curve" smooth="yes"/>
      <point x="1652" y="96" type="line"/>
      <point x="1656" y="96" type="line" smooth="yes"/>
      <point x="1662" y="96"/>
      <point x="1666" y="97"/>
      <point x="1672" y="100" type="curve" smooth="yes"/>
      <point x="1684" y="104"/>
      <point x="1695" y="111"/>
      <point x="1698" y="117" type="curve" smooth="yes"/>
      <point x="1699" y="119"/>
      <point x="1699" y="123"/>
      <point x="1699" y="125" type="curve" smooth="yes"/>
      <point x="1697" y="130"/>
      <point x="1690" y="132"/>
      <point x="1684" y="131" type="curve" smooth="yes"/>
      <point x="1681" y="130"/>
      <point x="1678" y="128"/>
      <point x="1673" y="124" type="curve" smooth="yes"/>
      <point x="1665" y="118"/>
      <point x="1658" y="111"/>
      <point x="1653" y="104" type="curve" smooth="yes"/>
      <point x="1650" y="100"/>
      <point x="1650" y="100"/>
      <point x="1649" y="100" type="curve" smooth="yes"/>
      <point x="1644" y="101"/>
      <point x="1640" y="106"/>
      <point x="1637" y="111" type="curve" smooth="yes"/>
      <point x="1635" y="116"/>
      <point x="1634" y="120"/>
      <point x="1632" y="130" type="curve" smooth="yes"/>
      <point x="1629" y="158"/>
      <point x="1624" y="174"/>
      <point x="1614" y="183" type="curve" smooth="yes"/>
      <point x="1610" y="187"/>
      <point x="1606" y="188"/>
      <point x="1598" y="189" type="curve" smooth="yes"/>
      <point x="1586" y="190"/>
      <point x="1582" y="192"/>
      <point x="1570" y="200" type="curve" smooth="yes"/>
      <point x="1562" y="206"/>
      <point x="1558" y="208"/>
      <point x="1551" y="210" type="curve" smooth="yes"/>
      <point x="1546" y="211"/>
      <point x="1543" y="213"/>
      <point x="1540" y="216" type="curve" smooth="yes"/>
      <point x="1534" y="221"/>
      <point x="1530" y="230"/>
      <point x="1529" y="242" type="curve" smooth="yes"/>
      <point x="1529" y="245" type="line"/>
      <point x="1530" y="245" type="line" smooth="yes"/>
      <point x="1533" y="244"/>
      <point x="1535" y="246"/>
      <point x="1537" y="250" type="curve" smooth="yes"/>
      <point x="1538" y="253"/>
      <point x="1539" y="256"/>
      <point x="1538" y="258" type="curve" smooth="yes"/>
      <point x="1538" y="260"/>
      <point x="1538" y="260"/>
      <point x="1538" y="261" type="curve" smooth="yes"/>
      <point x="1538" y="261"/>
      <point x="1540" y="260"/>
      <point x="1543" y="260" type="curve" smooth="yes"/>
      <point x="1545" y="259"/>
      <point x="1548" y="258"/>
      <point x="1550" y="258" type="curve" smooth="yes"/>
      <point x="1556" y="258"/>
      <point x="1558" y="264"/>
      <point x="1554" y="272" type="curve" smooth="yes"/>
      <point x="1553" y="274"/>
      <point x="1552" y="276"/>
      <point x="1549" y="278" type="curve" smooth="yes"/>
      <point x="1548" y="280"/>
      <point x="1546" y="282"/>
      <point x="1546" y="282" type="curve"/>
      <point x="1546" y="282"/>
      <point x="1551" y="282"/>
      <point x="1556" y="281" type="curve" smooth="yes"/>
      <point x="1574" y="280"/>
      <point x="1582" y="281"/>
      <point x="1590" y="283" type="curve" smooth="yes"/>
      <point x="1598" y="286"/>
      <point x="1602" y="289"/>
      <point x="1610" y="296" type="curve" smooth="yes"/>
      <point x="1622" y="307"/>
      <point x="1626" y="310"/>
    </contour>
    <contour>
      <point x="1689" y="302" type="curve" smooth="yes"/>
      <point x="1703" y="306"/>
      <point x="1718" y="298"/>
      <point x="1728" y="280" type="curve" smooth="yes"/>
      <point x="1731" y="276"/>
      <point x="1734" y="268"/>
      <point x="1736" y="263" type="curve" smooth="yes"/>
      <point x="1738" y="258"/>
      <point x="1749" y="220"/>
      <point x="1749" y="219" type="curve" smooth="yes"/>
      <point x="1749" y="218"/>
      <point x="1746" y="214"/>
      <point x="1743" y="211" type="curve" smooth="yes"/>
      <point x="1741" y="209"/>
      <point x="1737" y="205"/>
      <point x="1733" y="202" type="curve" smooth="yes"/>
      <point x="1724" y="192"/>
      <point x="1718" y="187"/>
      <point x="1715" y="183" type="curve" smooth="yes"/>
      <point x="1711" y="176"/>
      <point x="1708" y="174"/>
      <point x="1696" y="170" type="curve" smooth="yes"/>
      <point x="1685" y="166"/>
      <point x="1680" y="163"/>
      <point x="1676" y="158" type="curve" smooth="yes"/>
      <point x="1675" y="156" type="line"/>
      <point x="1674" y="157" type="line" smooth="yes"/>
      <point x="1669" y="163"/>
      <point x="1664" y="189"/>
      <point x="1664" y="207" type="curve" smooth="yes"/>
      <point x="1664" y="217"/>
      <point x="1664" y="216"/>
      <point x="1671" y="233" type="curve" smooth="yes"/>
      <point x="1679" y="251"/>
      <point x="1682" y="264"/>
      <point x="1681" y="273" type="curve" smooth="yes"/>
      <point x="1680" y="278"/>
      <point x="1680" y="280"/>
      <point x="1677" y="284" type="curve" smooth="yes"/>
      <point x="1675" y="286"/>
      <point x="1675" y="287"/>
      <point x="1675" y="289" type="curve" smooth="yes"/>
      <point x="1675" y="291"/>
      <point x="1676" y="294"/>
      <point x="1679" y="296" type="curve" smooth="yes"/>
      <point x="1682" y="299"/>
      <point x="1686" y="301"/>
    </contour>
    <contour>
      <point x="1538" y="278" type="curve" smooth="yes"/>
      <point x="1540" y="279"/>
      <point x="1541" y="280"/>
      <point x="1542" y="280" type="curve" smooth="yes"/>
      <point x="1543" y="280"/>
      <point x="1546" y="278"/>
      <point x="1548" y="275" type="curve" smooth="yes"/>
      <point x="1552" y="271"/>
      <point x="1554" y="265"/>
      <point x="1553" y="263" type="curve" smooth="yes"/>
      <point x="1552" y="261"/>
      <point x="1550" y="261"/>
      <point x="1544" y="262" type="curve" smooth="yes"/>
      <point x="1541" y="263"/>
      <point x="1538" y="264"/>
      <point x="1537" y="264" type="curve" smooth="yes"/>
      <point x="1534" y="264"/>
      <point x="1534" y="263"/>
      <point x="1535" y="258" type="curve" smooth="yes"/>
      <point x="1536" y="256"/>
      <point x="1536" y="255"/>
      <point x="1535" y="253" type="curve" smooth="yes"/>
      <point x="1534" y="250"/>
      <point x="1532" y="248"/>
      <point x="1531" y="248" type="curve" smooth="yes"/>
      <point x="1530" y="249"/>
      <point x="1530" y="254"/>
      <point x="1531" y="259" type="curve" smooth="yes"/>
      <point x="1532" y="268"/>
      <point x="1534" y="274"/>
    </contour>
    <contour>
      <point x="1684" y="127" type="curve" smooth="yes"/>
      <point x="1687" y="128"/>
      <point x="1690" y="128"/>
      <point x="1692" y="127" type="curve" smooth="yes"/>
      <point x="1694" y="126"/>
      <point x="1696" y="124"/>
      <point x="1696" y="122" type="curve" smooth="yes"/>
      <point x="1696" y="120"/>
      <point x="1694" y="116"/>
      <point x="1692" y="114" type="curve" smooth="yes"/>
      <point x="1685" y="108"/>
      <point x="1674" y="102"/>
      <point x="1664" y="100" type="curve" smooth="yes"/>
      <point x="1660" y="100"/>
      <point x="1654" y="99"/>
      <point x="1654" y="100" type="curve" smooth="yes"/>
      <point x="1654" y="100"/>
      <point x="1660" y="108"/>
      <point x="1664" y="112" type="curve" smooth="yes"/>
      <point x="1670" y="118"/>
      <point x="1679" y="126"/>
    </contour>
    <contour>
      <point x="1807" y="-248" type="curve" smooth="yes"/>
      <point x="1806" y="-248" type="line"/>
      <point x="1807" y="-248" type="line" smooth="yes"/>
      <point x="1810" y="-248"/>
      <point x="1814" y="-248"/>
      <point x="1820" y="-250" type="curve" smooth="yes"/>
      <point x="1826" y="-252"/>
      <point x="1835" y="-255"/>
      <point x="1834" y="-255" type="curve" smooth="yes"/>
      <point x="1833" y="-255"/>
      <point x="1810" y="-250"/>
    </contour>
    <contour>
      <point x="1876" y="-266" type="curve"/>
      <point x="1876" y="-266"/>
      <point x="1876" y="-266"/>
      <point x="1877" y="-266" type="curve" smooth="yes"/>
      <point x="1877" y="-266"/>
      <point x="1877" y="-266"/>
      <point x="1877" y="-266" type="curve"/>
      <point x="1877" y="-266"/>
      <point x="1876" y="-266"/>
    </contour>
    <contour>
      <point x="1878" y="-267" type="curve" smooth="yes"/>
      <point x="1878" y="-266" type="line"/>
      <point x="1878" y="-266" type="line" smooth="yes"/>
      <point x="1880" y="-266"/>
      <point x="1883" y="-267"/>
      <point x="1884" y="-267" type="curve" smooth="yes"/>
      <point x="1884" y="-268"/>
      <point x="1880" y="-267"/>
    </contour>
    <contour>
      <point x="1642" y="-272" type="curve" smooth="yes"/>
      <point x="1644" y="-271"/>
      <point x="1646" y="-271"/>
      <point x="1647" y="-272" type="curve" smooth="yes"/>
      <point x="1647" y="-272"/>
      <point x="1646" y="-276"/>
      <point x="1644" y="-278" type="curve" smooth="yes"/>
      <point x="1642" y="-279"/>
      <point x="1642" y="-279"/>
      <point x="1640" y="-278" type="curve" smooth="yes"/>
      <point x="1637" y="-277"/>
      <point x="1638" y="-273"/>
    </contour>
    <contour>
      <point x="1807" y="-273" type="curve" smooth="yes"/>
      <point x="1808" y="-271"/>
      <point x="1808" y="-271"/>
      <point x="1810" y="-273" type="curve" smooth="yes"/>
      <point x="1811" y="-274"/>
      <point x="1812" y="-276"/>
      <point x="1810" y="-278" type="curve" smooth="yes"/>
      <point x="1810" y="-279"/>
      <point x="1806" y="-281"/>
      <point x="1806" y="-280" type="curve" smooth="yes"/>
      <point x="1806" y="-280"/>
      <point x="1806" y="-275"/>
    </contour>
    <contour>
      <point x="1640" y="268" type="curve" smooth="yes"/>
      <point x="1640" y="269"/>
      <point x="1638" y="271"/>
      <point x="1637" y="271" type="curve" smooth="yes"/>
      <point x="1635" y="271"/>
      <point x="1634" y="269"/>
      <point x="1634" y="268" type="curve" smooth="yes"/>
      <point x="1634" y="266"/>
      <point x="1635" y="264"/>
      <point x="1637" y="264" type="curve" smooth="yes"/>
      <point x="1638" y="264"/>
      <point x="1640" y="266"/>
    </contour>
  </outline>
</glyph>
<glyph name="E.0" format="2">
  <advance width="2048"/>
  <outline>
    <contour>
      <point x="551" y="1486" type="line"/>
      <point x="551" y="1338" type="line"/>
      <point x="251" y="1338" type="line"/>
      <point x="251" y="1159" type="line"/>
      <point x="656" y="1159" type="line"/>
      <point x="656" y="1011" type="line"/>
      <point x="106" y="1011" type="line"/>
      <point x="106" y="1013" type="line"/>
      <point x="103" y="1013" type="line"/>
      <point x="103" y="1769" type="line"/>
      <point x="103" y="1773" type="line"/>
      <point x="656" y="1773" type="line"/>
      <point x="656" y="1625" type="line"/>
      <point x="251" y="1625" type="line"/>
      <point x="251" y="1486" type="line"/>
    </contour>
    <contour>
      <point x="838" y="1277" type="curve"/>
      <point x="1029" y="1274" type="line"/>
      <point x="1026" y="1277"/>
      <point x="1020" y="1283"/>
      <point x="1009" y="1296" type="curve" smooth="yes"/>
      <point x="999" y="1308"/>
      <point x="991" y="1318"/>
      <point x="986" y="1324" type="curve" smooth="yes"/>
      <point x="979" y="1330"/>
      <point x="972" y="1337"/>
      <point x="961" y="1343" type="curve" smooth="yes"/>
      <point x="952" y="1350"/>
      <point x="942" y="1352"/>
      <point x="933" y="1352" type="curve"/>
      <point x="924" y="1352"/>
      <point x="915" y="1350"/>
      <point x="904" y="1343" type="curve" smooth="yes"/>
      <point x="895" y="1338"/>
      <point x="887" y="1331"/>
      <point x="881" y="1325" type="curve" smooth="yes"/>
      <point x="874" y="1318"/>
      <point x="866" y="1309"/>
      <point x="857" y="1298" type="curve" smooth="yes"/>
      <point x="847" y="1287"/>
      <point x="840" y="1280"/>
    </contour>
    <contour>
      <point x="1185" y="1241" type="curve"/>
      <point x="1185" y="1234"/>
      <point x="1185" y="1225"/>
      <point x="1185" y="1215" type="curve" smooth="yes"/>
      <point x="1185" y="1203"/>
      <point x="1185" y="1195"/>
      <point x="1185" y="1190" type="curve"/>
      <point x="843" y="1187" type="line"/>
      <point x="852" y="1172"/>
      <point x="865" y="1160"/>
      <point x="881" y="1151" type="curve" smooth="yes"/>
      <point x="896" y="1142"/>
      <point x="915" y="1138"/>
      <point x="933" y="1138" type="curve"/>
      <point x="955" y="1138"/>
      <point x="1000" y="1138"/>
      <point x="1066" y="1141" type="curve" smooth="yes"/>
      <point x="1134" y="1142"/>
      <point x="1170" y="1143"/>
      <point x="1175" y="1146" type="curve"/>
      <point x="1175" y="994" type="line"/>
      <point x="1163" y="991"/>
      <point x="1082" y="990"/>
      <point x="933" y="990" type="curve"/>
      <point x="864" y="990"/>
      <point x="804" y="1015"/>
      <point x="755" y="1064" type="curve" smooth="yes"/>
      <point x="707" y="1112"/>
      <point x="682" y="1172"/>
      <point x="682" y="1241" type="curve" smooth="yes"/>
      <point x="682" y="1311"/>
      <point x="707" y="1369"/>
      <point x="755" y="1418" type="curve" smooth="yes"/>
      <point x="804" y="1468"/>
      <point x="864" y="1492"/>
      <point x="933" y="1492" type="curve" smooth="yes"/>
      <point x="1003" y="1492"/>
      <point x="1061" y="1468"/>
      <point x="1111" y="1418" type="curve" smooth="yes"/>
      <point x="1160" y="1369"/>
      <point x="1185" y="1311"/>
    </contour>
    <contour>
      <point x="551" y="1486" type="line"/>
      <point x="551" y="1338" type="line"/>
      <point x="251" y="1338" type="line"/>
      <point x="251" y="1159" type="line"/>
      <point x="656" y="1159" type="line"/>
      <point x="656" y="1011" type="line"/>
      <point x="106" y="1011" type="line"/>
      <point x="106" y="1013" type="line"/>
      <point x="103" y="1013" type="line"/>
      <point x="103" y="1769" type="line"/>
      <point x="103" y="1773" type="line"/>
      <point x="656" y="1773" type="line"/>
      <point x="656" y="1625" type="line"/>
      <point x="251" y="1625" type="line"/>
      <point x="251" y="1486" type="line"/>
    </contour>
    <contour>
      <point x="838" y="1277" type="curve"/>
      <point x="1029" y="1274" type="line"/>
      <point x="1026" y="1277"/>
      <point x="1020" y="1283"/>
      <point x="1009" y="1296" type="curve" smooth="yes"/>
      <point x="999" y="1308"/>
      <point x="991" y="1318"/>
      <point x="986" y="1324" type="curve" smooth="yes"/>
      <point x="979" y="1330"/>
      <point x="972" y="1337"/>
      <point x="961" y="1343" type="curve" smooth="yes"/>
      <point x="952" y="1350"/>
      <point x="942" y="1352"/>
      <point x="933" y="1352" type="curve"/>
      <point x="924" y="1352"/>
      <point x="915" y="1350"/>
      <point x="904" y="1343" type="curve" smooth="yes"/>
      <point x="895" y="1338"/>
      <point x="887" y="1331"/>
      <point x="881" y="1325" type="curve" smooth="yes"/>
      <point x="874" y="1318"/>
      <point x="866" y="1309"/>
      <point x="857" y="1298" type="curve" smooth="yes"/>
      <point x="847" y="1287"/>
      <point x="840" y="1280"/>
    </contour>
    <contour>
      <point x="1185" y="1241" type="curve"/>
      <point x="1185" y="1234"/>
      <point x="1185" y="1225"/>
      <point x="1185" y="1215" type="curve" smooth="yes"/>
      <point x="1185" y="1203"/>
      <point x="1185" y="1195"/>
      <point x="1185" y="1190" type="curve"/>
      <point x="843" y="1187" type="line"/>
      <point x="852" y="1172"/>
      <point x="865" y="1160"/>
      <point x="881" y="1151" type="curve" smooth="yes"/>
      <point x="896" y="1142"/>
      <point x="915" y="1138"/>
      <point x="933" y="1138" type="curve"/>
      <point x="955" y="1138"/>
      <point x="1000" y="1138"/>
      <point x="1066" y="1141" type="curve" smooth="yes"/>
      <point x="1134" y="1142"/>
      <point x="1170" y="1143"/>
      <point x="1175" y="1146" type="curve"/>
      <point x="1175" y="994" type="line"/>
      <point x="1163" y="991"/>
      <point x="1082" y="990"/>
      <point x="933" y="990" type="curve"/>
      <point x="864" y="990"/>
      <point x="804" y="1015"/>
      <point x="755" y="1064" type="curve" smooth="yes"/>
      <point x="707" y="1112"/>
      <point x="682" y="1172"/>
      <point x="682" y="1241" type="curve" smooth="yes"/>
      <point x="682" y="1311"/>
      <point x="707" y="1369"/>
      <point x="755" y="1418" type="curve" smooth="yes"/>
      <point x="804" y="1468"/>
      <point x="864" y="1492"/>
      <point x="933" y="1492" type="curve" smooth="yes"/>
      <point x="1003" y="1492"/>
      <point x="1061" y="1468"/>
      <point x="1111" y="1418" type="curve" smooth="yes"/>
      <point x="1160" y="1369"/>
      <point x="1185" y="1311"/>
    </contour>
  </outline>
</glyph>
<glyph name="E.1" format="2">
  <advance width="2048"/>
  <outline>
    <contour>
      <point x="1516" y="312" type="curve" smooth="yes"/>
      <point x="1522" y="312"/>
      <point x="1537" y="312"/>
      <point x="1544" y="311" type="curve" smooth="yes"/>
      <point x="1577" y="306"/>
      <point x="1609" y="288"/>
      <point x="1641" y="257" type="curve" smooth="yes"/>
      <point x="1663" y="234"/>
      <point x="1684" y="207"/>
      <point x="1702" y="176" type="curve" smooth="yes"/>
      <point x="1705" y="172"/>
      <point x="1707" y="167"/>
      <point x="1708" y="165" type="curve" smooth="yes"/>
      <point x="1709" y="164"/>
      <point x="1711" y="160"/>
      <point x="1713" y="157" type="curve" smooth="yes"/>
      <point x="1744" y="99"/>
      <point x="1769" y="31"/>
      <point x="1782" y="-31" type="curve" smooth="yes"/>
      <point x="1793" y="-86"/>
      <point x="1794" y="-127"/>
      <point x="1784" y="-168" type="curve" smooth="yes"/>
      <point x="1775" y="-210"/>
      <point x="1756" y="-249"/>
      <point x="1728" y="-282" type="curve" smooth="yes"/>
      <point x="1721" y="-290"/>
      <point x="1704" y="-306"/>
      <point x="1697" y="-313" type="curve" smooth="yes"/>
      <point x="1662" y="-341"/>
      <point x="1623" y="-360"/>
      <point x="1581" y="-369" type="curve" smooth="yes"/>
      <point x="1511" y="-383"/>
      <point x="1440" y="-370"/>
      <point x="1382" y="-331" type="curve" smooth="yes"/>
      <point x="1351" y="-311"/>
      <point x="1323" y="-282"/>
      <point x="1304" y="-252" type="curve" smooth="yes"/>
      <point x="1282" y="-217"/>
      <point x="1270" y="-181"/>
      <point x="1265" y="-137" type="curve" smooth="yes"/>
      <point x="1263" y="-125"/>
      <point x="1263" y="-94"/>
      <point x="1265" y="-79" type="curve" smooth="yes"/>
      <point x="1268" y="-51"/>
      <point x="1273" y="-21"/>
      <point x="1281" y="7" type="curve" smooth="yes"/>
      <point x="1303" y="88"/>
      <point x="1340" y="166"/>
      <point x="1383" y="222" type="curve" smooth="yes"/>
      <point x="1411" y="258"/>
      <point x="1440" y="284"/>
      <point x="1471" y="299" type="curve" smooth="yes"/>
      <point x="1486" y="306"/>
      <point x="1499" y="310"/>
    </contour>
    <contour>
      <point x="1516" y="312" type="curve" smooth="yes"/>
      <point x="1522" y="312"/>
      <point x="1537" y="312"/>
      <point x="1544" y="311" type="curve" smooth="yes"/>
      <point x="1577" y="306"/>
      <point x="1609" y="288"/>
      <point x="1641" y="257" type="curve" smooth="yes"/>
      <point x="1663" y="234"/>
      <point x="1684" y="207"/>
      <point x="1702" y="176" type="curve" smooth="yes"/>
      <point x="1705" y="172"/>
      <point x="1707" y="167"/>
      <point x="1708" y="165" type="curve" smooth="yes"/>
      <point x="1709" y="164"/>
      <point x="1711" y="160"/>
      <point x="1713" y="157" type="curve" smooth="yes"/>
      <point x="1744" y="99"/>
      <point x="1769" y="31"/>
      <point x="1782" y="-31" type="curve" smooth="yes"/>
      <point x="1793" y="-86"/>
      <point x="1794" y="-127"/>
      <point x="1784" y="-168" type="curve" smooth="yes"/>
      <point x="1775" y="-210"/>
      <point x="1756" y="-249"/>
      <point x="1728" y="-282" type="curve" smooth="yes"/>
      <point x="1721" y="-290"/>
      <point x="1704" y="-306"/>
      <point x="1697" y="-313" type="curve" smooth="yes"/>
      <point x="1662" y="-341"/>
      <point x="1623" y="-360"/>
      <point x="1581" y="-369" type="curve" smooth="yes"/>
      <point x="1511" y="-383"/>
      <point x="1440" y="-370"/>
      <point x="1382" y="-331" type="curve" smooth="yes"/>
      <point x="1351" y="-311"/>
      <point x="1323" y="-282"/>
      <point x="1304" y="-252" type="curve" smooth="yes"/>
      <point x="1282" y="-217"/>
      <point x="1270" y="-181"/>
      <point x="1265" y="-137" type="curve" smooth="yes"/>
      <point x="1263" y="-125"/>
      <point x="1263" y="-94"/>
      <point x="1265" y="-79" type="curve" smooth="yes"/>
      <point x="1268" y="-51"/>
      <point x="1273" y="-21"/>
      <point x="1281" y="7" type="curve" smooth="yes"/>
      <point x="1303" y="88"/>
      <point x="1340" y="166"/>
      <point x="1383" y="222" type="curve" smooth="yes"/>
      <point x="1411" y="258"/>
      <point x="1440" y="284"/>
      <point x="1471" y="299" type="curve" smooth="yes"/>
      <point x="1486" y="306"/>
      <point x="1499" y="310"/>
    </contour>
  </outline>
</glyph>
<glyph name="F.0" format="2">
  <advance width="2048"/>
  <outline>
    <contour>
      <point x="603" y="1509" type="line"/>
      <point x="613" y="1348" type="line"/>
      <point x="294" y="1348" type="line"/>
      <point x="294" y="996" type="line"/>
      <point x="140" y="996" type="line"/>
      <point x="140" y="1811" type="line"/>
      <point x="140" y="1811" type="line"/>
      <point x="717" y="1811" type="line"/>
      <point x="717" y="1650" type="line"/>
      <point x="294" y="1650" type="line"/>
      <point x="294" y="1509" type="line"/>
    </contour>
    <contour>
      <point x="1174" y="1784" type="curve"/>
      <point x="1174" y="1610" type="line"/>
      <point x="1150" y="1628"/>
      <point x="1124" y="1634"/>
      <point x="1102" y="1634" type="curve"/>
      <point x="1069" y="1634"/>
      <point x="1037" y="1628"/>
      <point x="1020" y="1601" type="curve"/>
      <point x="1020" y="1533" type="line"/>
      <point x="1118" y="1533" type="line"/>
      <point x="1118" y="1375" type="line"/>
      <point x="1020" y="1375" type="line"/>
      <point x="1020" y="996" type="line"/>
      <point x="848" y="996" type="line"/>
      <point x="848" y="1375" type="line"/>
      <point x="750" y="1375" type="line"/>
      <point x="750" y="1533" type="line"/>
      <point x="848" y="1533" type="line"/>
      <point x="848" y="1601" type="line"/>
      <point x="863" y="1661"/>
      <point x="896" y="1701"/>
      <point x="946" y="1744" type="curve" smooth="yes"/>
      <point x="987" y="1778"/>
      <point x="1043" y="1796"/>
      <point x="1102" y="1796" type="curve"/>
      <point x="1124" y="1796"/>
      <point x="1150" y="1796"/>
    </contour>
  </outline>
</glyph>
<glyph name="F.1" format="2">
  <advance width="2048"/>
  <outline>
    <contour>
      <point x="1457" y="-367" type="curve" smooth="yes"/>
      <point x="1451" y="-369"/>
      <point x="1447" y="-371"/>
      <point x="1447" y="-375" type="curve" smooth="yes"/>
      <point x="1443" y="-377"/>
      <point x="1443" y="-383"/>
      <point x="1447" y="-385" type="curve" smooth="yes"/>
      <point x="1449" y="-391"/>
      <point x="1453" y="-393"/>
      <point x="1459" y="-393" type="curve" smooth="yes"/>
      <point x="1463" y="-393"/>
      <point x="1463" y="-393"/>
      <point x="1465" y="-393" type="curve" smooth="yes"/>
      <point x="1469" y="-391"/>
      <point x="1471" y="-387"/>
      <point x="1473" y="-385" type="curve" smooth="yes"/>
      <point x="1475" y="-379"/>
      <point x="1473" y="-373"/>
      <point x="1469" y="-371" type="curve" smooth="yes"/>
      <point x="1467" y="-367"/>
      <point x="1461" y="-367"/>
    </contour>
    <contour>
      <point x="1435" y="351" type="curve" smooth="yes"/>
      <point x="1429" y="351"/>
      <point x="1419" y="349"/>
      <point x="1413" y="349" type="curve" smooth="yes"/>
      <point x="1379" y="341"/>
      <point x="1357" y="325"/>
      <point x="1347" y="305" type="curve" smooth="yes"/>
      <point x="1337" y="283"/>
      <point x="1339" y="257"/>
      <point x="1349" y="231" type="curve" smooth="yes"/>
      <point x="1359" y="205"/>
      <point x="1377" y="179"/>
      <point x="1405" y="147" type="curve" smooth="yes"/>
      <point x="1411" y="143" type="line"/>
      <point x="1407" y="139" type="line" smooth="yes"/>
      <point x="1405" y="137"/>
      <point x="1405" y="137"/>
      <point x="1405" y="137" type="curve" smooth="yes"/>
      <point x="1403" y="137"/>
      <point x="1401" y="137"/>
      <point x="1399" y="137" type="curve" smooth="yes"/>
      <point x="1391" y="135"/>
      <point x="1379" y="135"/>
      <point x="1371" y="135" type="curve" smooth="yes"/>
      <point x="1349" y="137"/>
      <point x="1329" y="145"/>
      <point x="1305" y="161" type="curve" smooth="yes"/>
      <point x="1303" y="163"/>
      <point x="1295" y="167"/>
      <point x="1289" y="171" type="curve" smooth="yes"/>
      <point x="1267" y="187"/>
      <point x="1255" y="193"/>
      <point x="1245" y="193" type="curve" smooth="yes"/>
      <point x="1237" y="193"/>
      <point x="1231" y="191"/>
      <point x="1225" y="187" type="curve" smooth="yes"/>
      <point x="1217" y="183"/>
      <point x="1205" y="173"/>
      <point x="1199" y="167" type="curve" smooth="yes"/>
      <point x="1183" y="149"/>
      <point x="1175" y="129"/>
      <point x="1171" y="105" type="curve" smooth="yes"/>
      <point x="1169" y="97"/>
      <point x="1169" y="77"/>
      <point x="1171" y="69" type="curve" smooth="yes"/>
      <point x="1173" y="47"/>
      <point x="1183" y="27"/>
      <point x="1195" y="15" type="curve" smooth="yes"/>
      <point x="1217" y="-7"/>
      <point x="1261" y="-15"/>
      <point x="1307" y="-1" type="curve" smooth="yes"/>
      <point x="1335" y="7"/>
      <point x="1363" y="23"/>
      <point x="1397" y="47" type="curve" smooth="yes"/>
      <point x="1407" y="53" type="line"/>
      <point x="1411" y="51" type="line" smooth="yes"/>
      <point x="1411" y="49"/>
      <point x="1413" y="49"/>
      <point x="1413" y="49" type="curve" smooth="yes"/>
      <point x="1413" y="49"/>
      <point x="1413" y="45"/>
      <point x="1415" y="43" type="curve" smooth="yes"/>
      <point x="1415" y="35"/>
      <point x="1415" y="19"/>
      <point x="1415" y="13" type="curve" smooth="yes"/>
      <point x="1411" y="-3"/>
      <point x="1405" y="-17"/>
      <point x="1391" y="-33" type="curve" smooth="yes"/>
      <point x="1387" y="-39"/>
      <point x="1385" y="-41"/>
      <point x="1371" y="-57" type="curve" smooth="yes"/>
      <point x="1357" y="-73"/>
      <point x="1351" y="-83"/>
      <point x="1351" y="-93" type="curve" smooth="yes"/>
      <point x="1351" y="-103"/>
      <point x="1357" y="-113"/>
      <point x="1371" y="-125" type="curve" smooth="yes"/>
      <point x="1389" y="-141"/>
      <point x="1411" y="-151"/>
      <point x="1437" y="-157" type="curve" smooth="yes"/>
      <point x="1449" y="-159"/>
      <point x="1453" y="-159"/>
      <point x="1469" y="-159" type="curve" smooth="yes"/>
      <point x="1487" y="-159"/>
      <point x="1493" y="-159"/>
      <point x="1505" y="-155" type="curve" smooth="yes"/>
      <point x="1537" y="-149"/>
      <point x="1559" y="-135"/>
      <point x="1569" y="-117" type="curve" smooth="yes"/>
      <point x="1583" y="-93"/>
      <point x="1581" y="-59"/>
      <point x="1565" y="-25" type="curve" smooth="yes"/>
      <point x="1553" y="-3"/>
      <point x="1537" y="19"/>
      <point x="1511" y="47" type="curve" smooth="yes"/>
      <point x="1509" y="51" type="line"/>
      <point x="1511" y="53" type="line" smooth="yes"/>
      <point x="1513" y="55"/>
      <point x="1513" y="57"/>
      <point x="1515" y="57" type="curve" smooth="yes"/>
      <point x="1515" y="57"/>
      <point x="1519" y="57"/>
      <point x="1521" y="57" type="curve" smooth="yes"/>
      <point x="1529" y="57"/>
      <point x="1543" y="57"/>
      <point x="1551" y="57" type="curve" smooth="yes"/>
      <point x="1569" y="55"/>
      <point x="1589" y="49"/>
      <point x="1609" y="35" type="curve" smooth="yes"/>
      <point x="1611" y="33"/>
      <point x="1619" y="27"/>
      <point x="1625" y="23" type="curve" smooth="yes"/>
      <point x="1645" y="9"/>
      <point x="1653" y="5"/>
      <point x="1663" y="3" type="curve" smooth="yes"/>
      <point x="1673" y="-1"/>
      <point x="1683" y="1"/>
      <point x="1693" y="5" type="curve" smooth="yes"/>
      <point x="1699" y="9"/>
      <point x="1711" y="17"/>
      <point x="1719" y="25" type="curve" smooth="yes"/>
      <point x="1733" y="39"/>
      <point x="1743" y="59"/>
      <point x="1747" y="77" type="curve" smooth="yes"/>
      <point x="1751" y="91"/>
      <point x="1751" y="107"/>
      <point x="1749" y="119" type="curve" smooth="yes"/>
      <point x="1747" y="145"/>
      <point x="1735" y="167"/>
      <point x="1721" y="181" type="curve" smooth="yes"/>
      <point x="1711" y="189"/>
      <point x="1699" y="195"/>
      <point x="1685" y="197" type="curve" smooth="yes"/>
      <point x="1655" y="205"/>
      <point x="1617" y="199"/>
      <point x="1577" y="181" type="curve" smooth="yes"/>
      <point x="1559" y="171"/>
      <point x="1541" y="159"/>
      <point x="1517" y="143" type="curve" smooth="yes"/>
      <point x="1511" y="139" type="line"/>
      <point x="1509" y="141" type="line" smooth="yes"/>
      <point x="1507" y="143"/>
      <point x="1505" y="143"/>
      <point x="1505" y="145" type="curve" smooth="yes"/>
      <point x="1505" y="145"/>
      <point x="1505" y="147"/>
      <point x="1505" y="149" type="curve" smooth="yes"/>
      <point x="1503" y="161"/>
      <point x="1503" y="175"/>
      <point x="1507" y="189" type="curve" smooth="yes"/>
      <point x="1513" y="207"/>
      <point x="1521" y="219"/>
      <point x="1541" y="241" type="curve" smooth="yes"/>
      <point x="1559" y="261"/>
      <point x="1565" y="267"/>
      <point x="1567" y="277" type="curve" smooth="yes"/>
      <point x="1569" y="281"/>
      <point x="1569" y="289"/>
      <point x="1567" y="293" type="curve" smooth="yes"/>
      <point x="1565" y="301"/>
      <point x="1559" y="307"/>
      <point x="1551" y="315" type="curve" smooth="yes"/>
      <point x="1529" y="335"/>
      <point x="1499" y="347"/>
      <point x="1467" y="351" type="curve" smooth="yes"/>
      <point x="1461" y="351"/>
      <point x="1441" y="351"/>
    </contour>
    <contour>
      <point x="1467" y="141" type="curve" smooth="yes"/>
      <point x="1441" y="143"/>
      <point x="1417" y="129"/>
      <point x="1409" y="107" type="curve" smooth="yes"/>
      <point x="1409" y="103"/>
      <point x="1409" y="101"/>
      <point x="1409" y="97" type="curve" smooth="yes"/>
      <point x="1409" y="91"/>
      <point x="1409" y="89"/>
      <point x="1409" y="85" type="curve" smooth="yes"/>
      <point x="1415" y="67"/>
      <point x="1431" y="55"/>
      <point x="1451" y="53" type="curve" smooth="yes"/>
      <point x="1469" y="49"/>
      <point x="1485" y="55"/>
      <point x="1497" y="67" type="curve" smooth="yes"/>
      <point x="1513" y="81"/>
      <point x="1515" y="105"/>
      <point x="1501" y="123" type="curve" smooth="yes"/>
      <point x="1493" y="133"/>
      <point x="1481" y="139"/>
    </contour>
    <contour>
      <point x="1443" y="411" type="curve" smooth="yes"/>
      <point x="1449" y="411"/>
      <point x="1481" y="411"/>
      <point x="1489" y="409" type="curve" smooth="yes"/>
      <point x="1551" y="405"/>
      <point x="1609" y="387"/>
      <point x="1659" y="359" type="curve" smooth="yes"/>
      <point x="1711" y="327"/>
      <point x="1753" y="285"/>
      <point x="1779" y="237" type="curve" smooth="yes"/>
      <point x="1797" y="205"/>
      <point x="1811" y="171"/>
      <point x="1815" y="135" type="curve" smooth="yes"/>
      <point x="1817" y="117"/>
      <point x="1817" y="91"/>
      <point x="1817" y="75" type="curve" smooth="yes"/>
      <point x="1813" y="21"/>
      <point x="1795" y="-25"/>
      <point x="1763" y="-69" type="curve" smooth="yes"/>
      <point x="1737" y="-107"/>
      <point x="1701" y="-139"/>
      <point x="1659" y="-165" type="curve" smooth="yes"/>
      <point x="1627" y="-183"/>
      <point x="1593" y="-197"/>
      <point x="1555" y="-207" type="curve" smooth="yes"/>
      <point x="1547" y="-209"/>
      <point x="1531" y="-213"/>
      <point x="1525" y="-213" type="curve" smooth="yes"/>
      <point x="1521" y="-213" type="line"/>
      <point x="1521" y="-273" type="line"/>
      <point x="1521" y="-333" type="line"/>
      <point x="1575" y="-333" type="line" smooth="yes"/>
      <point x="1621" y="-333"/>
      <point x="1631" y="-333"/>
      <point x="1635" y="-333" type="curve" smooth="yes"/>
      <point x="1655" y="-337"/>
      <point x="1673" y="-353"/>
      <point x="1677" y="-371" type="curve" smooth="yes"/>
      <point x="1679" y="-375"/>
      <point x="1679" y="-377"/>
      <point x="1679" y="-399" type="curve" smooth="yes"/>
      <point x="1679" y="-419"/>
      <point x="1679" y="-421"/>
      <point x="1677" y="-423" type="curve" smooth="yes"/>
      <point x="1677" y="-425"/>
      <point x="1675" y="-427"/>
      <point x="1671" y="-427" type="curve" smooth="yes"/>
      <point x="1671" y="-427"/>
      <point x="1649" y="-427"/>
      <point x="1459" y="-427" type="curve" smooth="yes"/>
      <point x="1247" y="-427" type="line"/>
      <point x="1245" y="-427" type="line" smooth="yes"/>
      <point x="1245" y="-427"/>
      <point x="1243" y="-425"/>
      <point x="1241" y="-423" type="curve" smooth="yes"/>
      <point x="1241" y="-423" type="line"/>
      <point x="1241" y="-397" type="line" smooth="yes"/>
      <point x="1241" y="-371"/>
      <point x="1241" y="-371"/>
      <point x="1243" y="-363" type="curve" smooth="yes"/>
      <point x="1247" y="-357"/>
      <point x="1249" y="-353"/>
      <point x="1255" y="-349" type="curve" smooth="yes"/>
      <point x="1261" y="-343"/>
      <point x="1267" y="-339"/>
      <point x="1275" y="-335" type="curve" smooth="yes"/>
      <point x="1285" y="-333"/>
      <point x="1283" y="-333"/>
      <point x="1343" y="-333" type="curve" smooth="yes"/>
      <point x="1399" y="-333" type="line"/>
      <point x="1399" y="-273" type="line"/>
      <point x="1399" y="-213" type="line"/>
      <point x="1391" y="-213" type="line" smooth="yes"/>
      <point x="1367" y="-209"/>
      <point x="1343" y="-201"/>
      <point x="1321" y="-195" type="curve" smooth="yes"/>
      <point x="1241" y="-165"/>
      <point x="1175" y="-111"/>
      <point x="1137" y="-43" type="curve" smooth="yes"/>
      <point x="1119" y="-11"/>
      <point x="1109" y="21"/>
      <point x="1103" y="57" type="curve" smooth="yes"/>
      <point x="1101" y="71"/>
      <point x="1101" y="79"/>
      <point x="1101" y="97" type="curve" smooth="yes"/>
      <point x="1101" y="115"/>
      <point x="1101" y="123"/>
      <point x="1105" y="137" type="curve" smooth="yes"/>
      <point x="1117" y="227"/>
      <point x="1173" y="307"/>
      <point x="1259" y="357" type="curve" smooth="yes"/>
      <point x="1309" y="387"/>
      <point x="1371" y="407"/>
      <point x="1433" y="411" type="curve" smooth="yes"/>
      <point x="1437" y="411"/>
      <point x="1443" y="411"/>
    </contour>
  </outline>
</glyph>
<glyph name="G.0" format="2">
  <advance width="2048"/>
  <outline>
    <contour>
      <point x="425" y="1632" type="curve"/>
      <point x="362" y="1632"/>
      <point x="306" y="1608"/>
      <point x="266" y="1567" type="curve" smooth="yes"/>
      <point x="219" y="1519"/>
      <point x="194" y="1462"/>
      <point x="194" y="1398" type="curve"/>
      <point x="194" y="1333"/>
      <point x="219" y="1277"/>
      <point x="266" y="1230" type="curve" smooth="yes"/>
      <point x="306" y="1189"/>
      <point x="362" y="1165"/>
      <point x="425" y="1165" type="curve"/>
      <point x="434" y="1165"/>
      <point x="434" y="1165"/>
      <point x="441" y="1165" type="curve"/>
      <point x="441" y="1333" type="line"/>
      <point x="594" y="1333" type="line"/>
      <point x="594" y="1003" type="line"/>
      <point x="441" y="1003" type="line"/>
      <point x="434" y="1003"/>
      <point x="434" y="1003"/>
      <point x="425" y="1003" type="curve"/>
      <point x="431" y="1003"/>
      <point x="225" y="1044"/>
      <point x="154" y="1124" type="curve" smooth="yes"/>
      <point x="81" y="1195"/>
      <point x="42" y="1292"/>
      <point x="42" y="1398" type="curve" smooth="yes"/>
      <point x="42" y="1511"/>
      <point x="81" y="1601"/>
      <point x="154" y="1681" type="curve" smooth="yes"/>
      <point x="225" y="1762"/>
      <point x="321" y="1794"/>
      <point x="425" y="1794" type="curve"/>
      <point x="450" y="1794"/>
      <point x="474" y="1794"/>
      <point x="498" y="1794" type="curve"/>
      <point x="498" y="1624" type="line"/>
      <point x="474" y="1632"/>
      <point x="450" y="1632"/>
    </contour>
    <contour>
      <point x="886" y="1018" type="line"/>
      <point x="886" y="1018" type="line"/>
      <point x="886" y="1018"/>
      <point x="886" y="1018"/>
      <point x="886" y="1018" type="curve"/>
      <point x="878" y="1018" type="line"/>
      <point x="853" y="1018"/>
      <point x="838" y="1018"/>
      <point x="838" y="1018" type="curve"/>
      <point x="774" y="1018"/>
      <point x="718" y="1049"/>
      <point x="687" y="1099" type="curve" smooth="yes"/>
      <point x="647" y="1139"/>
      <point x="631" y="1203"/>
      <point x="631" y="1276" type="curve"/>
      <point x="631" y="1340"/>
      <point x="654" y="1406"/>
      <point x="703" y="1453" type="curve" smooth="yes"/>
      <point x="742" y="1502"/>
      <point x="798" y="1527"/>
      <point x="871" y="1534" type="curve"/>
      <point x="871" y="1534"/>
      <point x="878" y="1534"/>
      <point x="886" y="1534" type="curve"/>
      <point x="886" y="1534"/>
      <point x="886" y="1534"/>
      <point x="886" y="1534" type="curve"/>
      <point x="886" y="1534" type="line"/>
      <point x="886" y="1534"/>
      <point x="886" y="1534"/>
      <point x="894" y="1534" type="curve"/>
      <point x="967" y="1534"/>
      <point x="1022" y="1510"/>
      <point x="1070" y="1461" type="curve" smooth="yes"/>
      <point x="1126" y="1406"/>
      <point x="1150" y="1349"/>
      <point x="1150" y="1276" type="curve"/>
      <point x="1150" y="1276" type="line"/>
      <point x="1150" y="1268"/>
      <point x="1150" y="1268"/>
      <point x="1150" y="1268" type="curve"/>
      <point x="1150" y="994" type="line"/>
      <point x="1133" y="937"/>
      <point x="1102" y="889"/>
      <point x="1054" y="857" type="curve" smooth="yes"/>
      <point x="1014" y="825"/>
      <point x="967" y="807"/>
      <point x="902" y="807" type="curve"/>
      <point x="791" y="807"/>
      <point x="718" y="807"/>
      <point x="703" y="816" type="curve"/>
      <point x="703" y="985" type="line"/>
      <point x="712" y="978"/>
      <point x="734" y="970"/>
      <point x="791" y="962" type="curve" smooth="yes"/>
      <point x="847" y="962"/>
      <point x="878" y="953"/>
      <point x="902" y="953" type="curve"/>
      <point x="918" y="953"/>
      <point x="943" y="962"/>
      <point x="958" y="970" type="curve" smooth="yes"/>
      <point x="973" y="978"/>
      <point x="991" y="985"/>
      <point x="998" y="994" type="curve"/>
      <point x="998" y="1034" type="line"/>
      <point x="967" y="1025"/>
      <point x="926" y="1018"/>
      <point x="894" y="1018" type="curve"/>
      <point x="894" y="1018"/>
      <point x="894" y="1018"/>
      <point x="886" y="1018" type="curve" smooth="yes"/>
    </contour>
    <contour>
      <point x="886" y="1381" type="curve"/>
      <point x="878" y="1381"/>
      <point x="871" y="1381"/>
      <point x="862" y="1381" type="curve"/>
      <point x="862" y="1381" type="line"/>
      <point x="838" y="1373"/>
      <point x="823" y="1365"/>
      <point x="806" y="1340" type="curve" smooth="yes"/>
      <point x="791" y="1324"/>
      <point x="782" y="1300"/>
      <point x="782" y="1276" type="curve"/>
      <point x="782" y="1252"/>
      <point x="791" y="1228"/>
      <point x="806" y="1203" type="curve" smooth="yes"/>
      <point x="823" y="1187"/>
      <point x="838" y="1170"/>
      <point x="862" y="1170" type="curve"/>
      <point x="862" y="1170" type="line"/>
      <point x="871" y="1170"/>
      <point x="878" y="1164"/>
      <point x="886" y="1164" type="curve"/>
      <point x="894" y="1164"/>
      <point x="902" y="1170"/>
      <point x="911" y="1170" type="curve"/>
      <point x="911" y="1170" type="line"/>
      <point x="934" y="1170"/>
      <point x="958" y="1187"/>
      <point x="973" y="1203" type="curve" smooth="yes"/>
      <point x="991" y="1228"/>
      <point x="998" y="1252"/>
      <point x="998" y="1276" type="curve"/>
      <point x="998" y="1300"/>
      <point x="991" y="1324"/>
      <point x="973" y="1340" type="curve" smooth="yes"/>
      <point x="958" y="1365"/>
      <point x="934" y="1373"/>
      <point x="911" y="1381" type="curve"/>
      <point x="911" y="1381" type="line"/>
      <point x="902" y="1381"/>
      <point x="894" y="1381"/>
    </contour>
  </outline>
</glyph>
